<?xml version="1.0" encoding="UTF-8"?><svg id="Layer_62" xmlns="http://www.w3.org/2000/svg" viewBox="0 0 250 250"><defs><style>.cls-1,.cls-2{fill:none;}.cls-3{fill:#2640b5;}.cls-2{stroke:#2640b5;stroke-miterlimit:10;}</style></defs><rect class="cls-2" x="15" y="15" width="220" height="220" rx="20" ry="20"/><path class="cls-3" d="M110.03,85.09c0-8.27,6.7-14.97,14.97-14.97s14.97,6.7,14.97,14.97c.54,1.95-29.49,2-29.93,0Z"/><path class="cls-3" d="M188.53,175.32s7.88,4.28,10.13,7.21c2.26,2.92,2.32,6.81-1.22,9.15-8.04,5.3-110.12,3.38-132.4,2.54-4.47-.17-9.36-.5-12.49-2.56-3.54-2.34-3.48-6.22-1.22-9.15,2.26-2.92,10.13-7.21,10.13-7.21,0,0,1.83-1.8,2.2-2.25,11.38,3.19,30.4,7.44,61.32,7.44,22.61,0,43.32-1.94,61-7.34,1.38,1.1,2.53,2.17,2.53,2.17Z"/><path class="cls-1" d="M39,155.67c0-35.78,38.5-64.78,86-64.78s86,29,86,64.78-172,35.78-172,0Z"/><path class="cls-3" d="M125,184.52c-22.71,0-43.9-2.41-59.67-6.78-18.55-5.14-28.35-12.78-28.35-22.07,0-17.95,9.23-34.79,25.99-47.42,16.59-12.5,38.62-19.38,62.03-19.38s45.43,6.88,62.03,19.38c16.76,12.63,25.99,29.47,25.99,47.42,0,9.29-9.8,16.92-28.35,22.07-15.77,4.37-36.96,6.78-59.67,6.78ZM125,92.91c-46.31,0-83.98,28.16-83.98,62.76,0,9.69,15.91,15.55,25.4,18.18,15.43,4.28,36.23,6.63,58.59,6.63s43.16-2.36,58.59-6.63c9.48-2.63,25.4-8.49,25.4-18.18,0-34.61-37.67-62.76-83.98-62.76Z"/><path class="cls-3" d="M156.93,59.81c2.37-4.39,7.37-6.29,11.16-4.24,3.79,2.05,4.94,7.27,2.56,11.66s-15.38,12.04-15.38,12.04c0,0-.72-15.07,1.66-19.46Z"/><path class="cls-3" d="M176.55,76.74c4.95-.65,9.42,2.28,9.98,6.55.56,4.27-2.99,8.26-7.94,8.91-4.95.65-18.77-5.4-18.77-5.4,0,0,11.79-9.42,16.74-10.07Z"/><path class="cls-3" d="M91.15,59.81c-2.37-4.39-7.37-6.29-11.16-4.24-3.79,2.05-4.94,7.27-2.56,11.66,2.37,4.39,15.38,12.04,15.38,12.04,0,0,.72-15.07-1.66-19.46Z"/><path class="cls-3" d="M71.53,76.74c-4.95-.65-9.42,2.28-9.98,6.55-.56,4.27,2.99,8.26,7.94,8.91,4.95.65,18.77-5.4,18.77-5.4,0,0-11.79-9.42-16.74-10.07Z"/></svg>