<?xml version="1.0" encoding="UTF-8" standalone="no"?>
<svg
   id="Layer_62"
   viewBox="0 0 250 250"
   version="1.1"
   sodipodi:docname="Logo-bell-dingit-border-thin.svg"
   inkscape:export-filename="Logo-bell-dingit-border-thin-432.png"
   inkscape:export-xdpi="165.888"
   inkscape:export-ydpi="165.888"
   inkscape:version="1.3.2 (091e20e, 2023-11-25)"
   xmlns:inkscape="http://www.inkscape.org/namespaces/inkscape"
   xmlns:sodipodi="http://sodipodi.sourceforge.net/DTD/sodipodi-0.dtd"
   xmlns="http://www.w3.org/2000/svg"
   xmlns:svg="http://www.w3.org/2000/svg">
  <sodipodi:namedview
     id="namedview8"
     pagecolor="#ffffff"
     bordercolor="#000000"
     borderopacity="0.25"
     inkscape:showpageshadow="2"
     inkscape:pageopacity="0.0"
     inkscape:pagecheckerboard="0"
     inkscape:deskcolor="#d1d1d1"
     inkscape:export-bgcolor="#ffffffff"
     inkscape:zoom="0.944"
     inkscape:cx="125"
     inkscape:cy="125"
     inkscape:window-width="1648"
     inkscape:window-height="913"
     inkscape:window-x="0"
     inkscape:window-y="25"
     inkscape:window-maximized="0"
     inkscape:current-layer="Layer_62" />
  <defs
     id="defs1">
    <style
       id="style1">.cls-1,.cls-2{fill:none;}.cls-3{fill:#2640b5;}.cls-2{stroke:#2640b5;stroke-miterlimit:10;}</style>
  </defs>
  <rect
     class="cls-2"
     x="15"
     y="15"
     width="220"
     height="220"
     rx="20"
     ry="20"
     id="rect1" />
  <path
     class="cls-3"
     d="m 107.32142,77.868659 c 0,-9.766322 7.91226,-17.678578 17.67858,-17.678578 9.76632,0 17.67858,7.912256 17.67858,17.678578 0.6377,2.302821 -34.82574,2.361868 -35.34535,0 z"
     id="path1"
     style="stroke-width:1.18093" />
  <path
     class="cls-3"
     d="m 200.02472,184.42431 c 0,0 9.30576,5.0544 11.96286,8.51454 2.66891,3.44832 2.73977,8.04216 -1.44074,10.80554 -9.4947,6.25895 -130.044425,3.99156 -156.355629,2.99957 -5.278774,-0.20076 -11.053541,-0.59046 -14.749863,-3.02319 -4.180506,-2.76338 -4.10965,-7.34541 -1.44074,-10.80554 2.668911,-3.44833 11.96286,-8.51453 11.96286,-8.51453 0,0 2.161108,-2.12569 2.598054,-2.65711 13.439026,3.76718 35.900387,8.78615 72.414858,8.78615 26.70091,0 51.15805,-2.29101 72.03696,-8.66805 1.62969,1.29903 2.98776,2.56262 2.98776,2.56262 z"
     id="path2"
     style="stroke-width:1.18093" />
  <path
     class="cls-1"
     d="M39,155.67c0-35.78,38.5-64.78,86-64.78s86,29,86,64.78-172,35.78-172,0Z"
     id="path3" />
  <path
     class="cls-3"
     d="m 125,195.28891 c -26.819006,0 -51.842993,-2.84606 -70.466319,-8.00674 -21.906321,-6.07 -33.479472,-15.09233 -33.479472,-26.0632 0,-21.19777 10.900018,-41.08469 30.692469,-55.99988 C 71.338369,90.457414 97.35434,82.332589 125,82.332589 c 27.64566,0 53.64982,8.124825 73.25332,22.886501 19.79245,14.91519 30.69247,34.80211 30.69247,55.99988 0,10.97087 -11.57315,19.9814 -33.47947,26.0632 -18.62333,5.16068 -43.64731,8.00674 -70.46632,8.00674 z m 0,-108.185348 c -54.689043,0 -99.174819,33.255098 -99.174819,74.115408 0,11.44324 18.788657,18.36352 29.995718,21.46937 18.221808,5.0544 42.785231,7.82959 69.190911,7.82959 26.40568,0 50.9691,-2.787 69.19091,-7.82959 11.19525,-3.10585 29.99572,-10.02613 29.99572,-21.46937 0,-40.87212 -44.48578,-74.115408 -99.17482,-74.115408 z"
     id="path4"
     style="stroke-width:1.18093" />
  <path
     class="cls-3"
     d="m 162.70722,48.014653 c 2.79881,-5.184299 8.70348,-7.428073 13.17922,-5.007159 4.47574,2.420915 5.83381,8.585389 3.02319,13.769688 -2.81063,5.184299 -18.16276,14.218443 -18.16276,14.218443 0,0 -0.85028,-17.796672 1.96035,-22.980972 z"
     id="path5"
     style="stroke-width:1.18093" />
  <path
     class="cls-3"
     d="m 185.87714,68.007862 c 5.84562,-0.767607 11.12439,2.692529 11.78572,7.735117 0.66132,5.042587 -3.531,9.754513 -9.37662,10.52212 -5.84562,0.767607 -22.16613,-6.377043 -22.16613,-6.377043 0,0 13.92321,-11.124396 19.76884,-11.892003 z"
     id="path6"
     style="stroke-width:1.18093" />
  <path
     class="cls-3"
     d="M 85.025392,48.014653 C 82.226578,42.830354 76.32191,40.58658 71.846171,43.007494 c -4.475739,2.420915 -5.833813,8.585389 -3.023191,13.769688 2.798813,5.184299 18.162762,14.218443 18.162762,14.218443 0,0 0.850272,-17.796672 -1.96035,-22.980972 z"
     id="path7"
     style="stroke-width:1.18093" />
  <path
     class="cls-3"
     d="m 61.855471,68.007862 c -5.845622,-0.767607 -11.124396,2.692529 -11.785719,7.735117 -0.661323,5.042587 3.530992,9.754513 9.376614,10.52212 5.845622,0.767607 22.166127,-6.377043 22.166127,-6.377043 0,0 -13.923209,-11.124396 -19.768832,-11.892003 z"
     id="path8"
     style="stroke-width:1.18093" />
</svg>
