<?xml version="1.0" encoding="UTF-8" standalone="no"?>
<svg
   id="Layer_46"
   data-name="Layer 46"
   viewBox="0 0 1024 1024"
   version="1.1"
   sodipodi:docname="bell-black-outline.svg"
   width="1024"
   height="1024"
   inkscape:version="1.3.2 (091e20e, 2023-11-25)"
   xmlns:inkscape="http://www.inkscape.org/namespaces/inkscape"
   xmlns:sodipodi="http://sodipodi.sourceforge.net/DTD/sodipodi-0.dtd"
   xmlns="http://www.w3.org/2000/svg"
   xmlns:svg="http://www.w3.org/2000/svg">
  <sodipodi:namedview
     id="namedview8"
     pagecolor="#ffffff"
     bordercolor="#000000"
     borderopacity="0.25"
     inkscape:showpageshadow="2"
     inkscape:pageopacity="0.0"
     inkscape:pagecheckerboard="0"
     inkscape:deskcolor="#d1d1d1"
     inkscape:zoom="0.3435976"
     inkscape:cx="510.7719"
     inkscape:cy="510.7719"
     inkscape:window-width="1360"
     inkscape:window-height="760"
     inkscape:window-x="1603"
     inkscape:window-y="25"
     inkscape:window-maximized="0"
     inkscape:current-layer="layer2" />
  <defs
     id="defs1">
    <style
       id="style1">
      .cls-1 {
        fill: #fafafa;
      }

      .cls-1, .cls-2 {
        stroke-width: 0px;
      }

      .cls-2 {
        fill: #0a0a0a;
      }
    </style>
  </defs>
  <g
     inkscape:groupmode="layer"
     id="layer1"
     inkscape:label="bg-circle">
    <ellipse
       style="fill:#ffffff;fill-opacity:1"
       id="path9"
       cx="512"
       cy="512"
       rx="512"
       ry="512" />
  </g>
  <g
     inkscape:groupmode="layer"
     id="layer2"
     inkscape:label="bell-group"
     transform="translate(-2.9103812,-8.7311436)">
    <path
       class="cls-2"
       d="m 444.21144,282.81754 c 0,-40.03 32.45,-72.47 72.47,-72.47 40.02,0 72.47,32.45 72.47,72.47 2.59,9.45 -142.79,9.68 -144.95,0 z"
       id="path1" />
    <path
       class="cls-2"
       d="m 824.32144,719.73754 c 0,0 38.14,20.75 49.07,34.91 10.93,14.16 11.25,32.98 -5.9,44.3 -38.92,25.68 -533.25,16.37 -641.12,12.31 -21.63,-0.81 -45.33,-2.41 -60.46,-12.39 -17.15,-11.32 -16.83,-30.14 -5.9,-44.3 10.93,-14.16 49.07,-34.91 49.07,-34.91 0,0 8.86,-8.7 10.67,-10.89 55.1,15.44 147.21,36 296.95,36 109.48,0 209.77,-9.4 295.38,-35.52 6.67,5.32 12.24,10.49 12.24,10.49 z"
       id="path2" />
    <g
       id="g4"
       transform="translate(87.311438,133.87754)">
      <path
         class="cls-2"
         d="M 429.39,630.43 C 319.43,630.43 216.83,618.77 140.47,597.59 50.65,572.68 3.18,535.73 3.18,490.73 c 0,-86.93 44.7,-168.48 125.87,-229.61 80.34,-60.52 187.01,-93.84 300.35,-93.84 113.34,0 220.01,33.33 300.35,93.84 81.17,61.14 125.87,142.69 125.87,229.61 0,45 -47.48,81.95 -137.3,106.86 -76.36,21.18 -178.96,32.84 -288.92,32.84 z m 0,-443.62 c -224.24,0 -406.68,136.34 -406.68,303.92 0,46.92 77.05,75.3 122.98,88.04 74.7,20.72 175.46,32.13 283.7,32.13 108.24,0 208.99,-11.41 283.7,-32.13 45.93,-12.74 122.98,-41.11 122.98,-88.04 0,-167.58 -182.43,-303.92 -406.68,-303.92 z"
         id="path4" />
    </g>
    <path
       class="cls-2"
       d="m 671.32144,160.43754 c 11.5,-21.26 35.69,-30.46 54.04,-20.54 18.35,9.92 23.9,35.2 12.41,56.46 -11.5,21.26 -74.46,58.31 -74.46,58.31 0,0 -3.48,-72.98 8.02,-94.24 z"
       id="path5" />
    <path
       class="cls-2"
       d="m 766.34144,242.42754 c 23.96,-3.15 45.6,11.05 48.32,31.73 2.72,20.68 -14.5,40 -38.46,43.16 -23.96,3.15 -90.9,-26.13 -90.9,-26.13 0,0 57.08,-45.61 81.04,-48.76 z"
       id="path6" />
    <path
       class="cls-2"
       d="m 352.79144,160.43754 c -11.5,-21.26 -35.69,-30.46 -54.04,-20.54 -18.35,9.92 -23.9,35.2 -12.41,56.46 11.5,21.26 74.46,58.31 74.46,58.31 0,0 3.48,-72.98 -8.02,-94.24 z"
       id="path7" />
    <path
       class="cls-2"
       d="m 257.77144,242.42754 c -23.96,-3.15 -45.6,11.05 -48.32,31.73 -2.72,20.68 14.5,40 38.46,43.16 23.96,3.15 90.9,-26.13 90.9,-26.13 0,0 -57.08,-45.61 -81.04,-48.76 z"
       id="path8" />
  </g>
</svg>
