<?xml version="1.0" encoding="UTF-8" standalone="no"?>
<svg
   id="Layer_27"
   data-name="Layer 27"
   viewBox="0 0 1740 1760"
   version="1.1"
   sodipodi:docname="biglogo.svg"
   inkscape:version="1.3.2 (091e20e, 2023-11-25)"
   xmlns:inkscape="http://www.inkscape.org/namespaces/inkscape"
   xmlns:sodipodi="http://sodipodi.sourceforge.net/DTD/sodipodi-0.dtd"
   xmlns="http://www.w3.org/2000/svg"
   xmlns:svg="http://www.w3.org/2000/svg">
  <sodipodi:namedview
     id="namedview13"
     pagecolor="#ffffff"
     bordercolor="#000000"
     borderopacity="0.25"
     inkscape:showpageshadow="2"
     inkscape:pageopacity="0.0"
     inkscape:pagecheckerboard="0"
     inkscape:deskcolor="#d1d1d1"
     inkscape:zoom="0.25731319"
     inkscape:cx="837.5008"
     inkscape:cy="818.06922"
     inkscape:window-width="1256"
     inkscape:window-height="788"
     inkscape:window-x="34"
     inkscape:window-y="55"
     inkscape:window-maximized="0"
     inkscape:current-layer="Layer_27" />
  <defs
     id="defs1">
    <style
       id="style1">
      .cls-1 {
        fill: none;
      }

      .cls-1, .cls-2, .cls-3 {
        stroke-width: 0px;
      }

      .cls-2 {
        fill: #2640b5;
      }

      .cls-3 {
        fill: #069bb4;
      }
    </style>
  </defs>
  <path
     class="cls-2"
     d="M 142.04631,1699.4062 V 1293.3014 H 277.6817 c 119.57688,0 191.1597,76.1494 191.1597,202.4552 0,126.3057 -71.58282,203.6496 -195.31798,203.6496 z m 128.09001,-53.5435 c 92.601,0 138.40253,-53.9365 138.40253,-150.1061 0,-96.1695 -45.80153,-148.9267 -134.63741,-148.9267 h -70.59995 v 299.0328 h 66.81971 z"
     id="path1" />
  <rect
     class="cls-2"
     x="511.43726"
     y="1293.2864"
     width="61.270298"
     height="406.10474"
     id="rect1" />
  <polygon
     class="cls-2"
     points="743.7,1203.59 743.7,1400.56 703.17,1400.56 703.17,1131.98 740.68,1131.98 877.33,1329.22 879.82,1329.22 879.82,1131.98 919.95,1131.98 919.95,1400.56 882.7,1400.56 746.19,1203.59 "
     id="polygon1"
     transform="matrix(1.5121002,0,0,1.5121002,-446.00946,-418.38079)" />
  <path
     class="cls-2"
     d="m 1158.722,1343.6544 c -68.8157,0 -121.3612,54.1332 -121.3612,152.4953 0,98.3621 52.1523,152.8885 123.7352,152.8885 65.0354,0 108.2663,-41.4467 109.6575,-106.8752 h -100.343 v -50.5647 h 159.6324 v 46.2098 c 0,102.5204 -70.3883,167.1627 -168.9469,167.1627 -110.0507,0 -184.61233,-79.9145 -184.61233,-208.4128 0,-128.4982 76.73903,-208.8059 181.84513,-208.8059 87.6413,0 155.2625,54.7229 168.947,133.8511 h -62.858 c -15.2722,-48.1906 -51.7592,-77.9336 -105.6958,-77.9336"
     id="path2" />
  <polygon
     class="cls-3"
     points="1212.84,1406.15 1213.02,1228.12 1234.55,1219.87 1234.55,1406.15 "
     id="polygon2"
     transform="matrix(1.5121002,0,0,1.5121002,-446.00946,-418.38079)" />
  <path
     class="cls-3"
     d="m 1570.7542,1454.5972 h -42.3388 v 179.7132 c 0,35.3982 20.3528,45.8468 42.5505,45.8468 8.6189,0 14.4859,-1.2853 19.0675,-2.5706 l 6.9708,29.5313 c -6.2299,2.3892 -15.4082,4.9446 -28.9718,4.9446 -36.1241,0 -72.4448,-24.0273 -72.4448,-70.0556 v -187.4247 h -41.991 v -28.4276 h 41.991 v -67.485 h 32.8278 v 67.485 h 42.3388 v 28.4276 z"
     id="path3" />
  <path
     class="cls-2"
     d="m 1417.3214,1358.3369 c -4.6422,-8.5887 -14.4104,-12.2933 -21.8196,-8.2863 -7.4094,4.007 -9.6473,14.2137 -5.0052,22.7874 4.6422,8.5886 30.0607,23.5434 30.0607,23.5434 0,0 1.4062,-29.4558 -3.2359,-38.0445 z"
     id="path4" />
  <path
     class="cls-2"
     d="m 1378.9594,1391.4368 c -9.6775,-1.2701 -18.4023,4.4607 -19.5061,12.8075 -1.1038,8.3468 5.8518,16.1492 15.5293,17.4193 9.6774,1.2703 36.6987,-10.5543 36.6987,-10.5543 0,0 -23.0445,-18.4174 -32.7219,-19.6877 z"
     id="path5" />
  <g
     id="g13"
     transform="matrix(1.5121002,0,0,1.5121002,-446.00946,-418.38079)">
    <path
       class="cls-2"
       d="m 797.51,470.63 c 0,-40.03 32.45,-72.47 72.47,-72.47 40.02,0 72.47,32.45 72.47,72.47 2.59,9.45 -142.79,9.68 -144.95,0 z"
       id="path6" />
    <path
       class="cls-2"
       d="m 1177.62,907.55 c 0,0 38.14,20.75 49.07,34.91 10.93,14.16 11.25,32.98 -5.9,44.3 -38.92,25.68 -533.25,16.37 -641.12,12.31 -21.63,-0.81 -45.33,-2.41 -60.46,-12.39 -17.15,-11.32 -16.83,-30.14 -5.9,-44.3 10.93,-14.16 49.07,-34.91 49.07,-34.91 0,0 8.86,-8.7 10.67,-10.89 55.1,15.44 147.21,36 296.95,36 109.48,0 209.77,-9.4 295.38,-35.52 6.67,5.32 12.24,10.49 12.24,10.49 z"
       id="path7" />
    <g
       id="g9">
      <path
         class="cls-1"
         d="M 453.55,812.42 C 453.55,639.18 640,498.73 870,498.73 c 230,0 416.45,140.44 416.45,313.69 0,173.25 -832.89,173.24 -832.89,0 z"
         id="path8" />
      <path
         class="cls-2"
         d="m 870,952.12 c -109.96,0 -212.56,-11.66 -288.92,-32.84 -89.82,-24.91 -137.3,-61.86 -137.3,-106.86 0,-86.93 44.7,-168.48 125.87,-229.61 80.34,-60.52 187.01,-93.84 300.35,-93.84 113.34,0 220.01,33.33 300.35,93.84 81.17,61.14 125.87,142.69 125.87,229.61 0,45 -47.48,81.95 -137.3,106.86 -76.36,21.18 -178.96,32.84 -288.92,32.84 z m 0,-443.62 c -224.24,0 -406.68,136.34 -406.68,303.92 0,46.92 77.05,75.3 122.98,88.04 74.7,20.72 175.46,32.13 283.7,32.13 108.24,0 208.99,-11.41 283.7,-32.13 45.93,-12.74 122.98,-41.11 122.98,-88.04 C 1276.68,644.84 1094.25,508.5 870,508.5 Z"
         id="path9" />
    </g>
    <path
       class="cls-2"
       d="m 1024.62,348.24 c 11.5,-21.26 35.69,-30.46 54.04,-20.54 18.35,9.92 23.9,35.2 12.41,56.46 -11.5,21.26 -74.46,58.31 -74.46,58.31 0,0 -3.48,-72.98 8.02,-94.24 z"
       id="path10" />
    <path
       class="cls-2"
       d="m 1119.64,430.24 c 23.96,-3.15 45.6,11.05 48.32,31.73 2.72,20.68 -14.5,40 -38.46,43.16 -23.96,3.15 -90.9,-26.13 -90.9,-26.13 0,0 57.08,-45.61 81.04,-48.76 z"
       id="path11" />
    <path
       class="cls-2"
       d="m 706.09,348.24 c -11.5,-21.26 -35.69,-30.46 -54.04,-20.54 -18.35,9.92 -23.9,35.2 -12.41,56.46 11.5,21.26 74.46,58.31 74.46,58.31 0,0 3.48,-72.98 -8.02,-94.24 z"
       id="path12" />
    <path
       class="cls-2"
       d="m 611.07,430.24 c -23.96,-3.15 -45.6,11.05 -48.32,31.73 -2.72,20.68 14.5,40 38.46,43.16 23.96,3.15 90.9,-26.13 90.9,-26.13 0,0 -57.08,-45.61 -81.04,-48.76 z"
       id="path13" />
  </g>
</svg>
