<?xml version="1.0" encoding="UTF-8" standalone="no"?>
<svg
   viewBox="0 0 640 512"
   version="1.1"
   id="svg1"
   sodipodi:docname="gears.svg"
   inkscape:version="1.3.2 (091e20e, 2023-11-25)"
   xmlns:inkscape="http://www.inkscape.org/namespaces/inkscape"
   xmlns:sodipodi="http://sodipodi.sourceforge.net/DTD/sodipodi-0.dtd"
   xmlns="http://www.w3.org/2000/svg"
   xmlns:svg="http://www.w3.org/2000/svg">
  <defs
     id="defs1" />
  <sodipodi:namedview
     id="namedview1"
     pagecolor="#ffffff"
     bordercolor="#000000"
     borderopacity="0.25"
     inkscape:showpageshadow="2"
     inkscape:pageopacity="0.0"
     inkscape:pagecheckerboard="0"
     inkscape:deskcolor="#d1d1d1"
     inkscape:zoom="1.050338"
     inkscape:cx="319.89703"
     inkscape:cy="258.01218"
     inkscape:window-width="1616"
     inkscape:window-height="877"
     inkscape:window-x="272"
     inkscape:window-y="102"
     inkscape:window-maximized="0"
     inkscape:current-layer="svg1" />
  <!--!Font Awesome Free 6.6.0 by @fontawesome - https://fontawesome.com License - https://fontawesome.com/license/free Copyright 2024 Fonticons, Inc.-->
  <path
     d="m 504.7,500.5 c 6.3,7.1 16.2,9.9 25,6.2 5.3,-2.3 10.5,-4.8 15.5,-7.6 l 5.4,-3.1 c 5,-3 9.9,-6.3 14.6,-9.8 7.6,-5.7 10.1,-15.7 7.1,-24.7 L 563,433.3 c 8.8,-10.7 16,-23 20.9,-36.2 L 613,391 c 9.3,-1.9 16.7,-9.1 17.8,-18.5 0.8,-6.7 1.2,-13.5 1.2,-20.4 0,-6.9 -0.4,-13.7 -1.2,-20.4 -1.1,-9.4 -8.6,-16.6 -17.8,-18.5 L 583.9,307 c -5,-13.3 -12.1,-25.5 -20.9,-36.2 l 9.3,-28.2 c 3,-9 0.5,-19 -7.1,-24.7 -4.7,-3.5 -9.6,-6.8 -14.6,-9.9 l -5.3,-3 c -5,-2.8 -10.2,-5.3 -15.6,-7.6 -8.7,-3.7 -18.6,-0.9 -25,6.2 l -19.8,22.2 c -6.8,-1.1 -13.8,-1.7 -20.9,-1.7 -7.1,0 -14.1,0.6 -20.9,1.7 l -19.8,-22.2 c -6.3,-7.1 -16.2,-9.9 -25,-6.2 -5.3,2.3 -10.5,4.8 -15.6,7.6 l -5.2,3 c -5.1,3 -9.9,6.3 -14.6,9.9 -7.6,5.7 -10.1,15.7 -7.1,24.7 l 9.3,28.2 c -8.8,10.7 -16,23 -20.9,36.2 l -29.1,6 c -9.3,1.9 -16.7,9.1 -17.8,18.5 -0.8,6.7 -1.2,13.5 -1.2,20.4 0,6.9 0.4,13.7 1.2,20.4 1.1,9.4 8.6,16.6 17.8,18.5 l 29.1,6.1 c 5,13.3 12.1,25.5 20.9,36.2 l -9.3,28.2 c -3,9 -0.5,19 7.1,24.7 4.7,3.5 9.5,6.8 14.6,9.8 l 5.4,3.1 c 5,2.8 10.2,5.3 15.5,7.6 8.7,3.7 18.6,0.9 25,-6.2 l 19.8,-22.2 c 6.8,1.1 13.8,1.7 20.9,1.7 7.1,0 14.1,-0.6 20.9,-1.7 l 19.8,22.2 z M 464,304 c 26.50969,0 47.99998,21.49033 47.99998,48 0,26.50967 -21.49029,48 -47.99998,48 -26.50969,0 -47.99998,-21.49033 -47.99998,-48 0,-26.50967 21.49029,-48 47.99998,-48 z"
     id="path1"
     style="display:inline;fill:#069bb4;fill-opacity:1"
     sodipodi:nodetypes="ccccccccccscccccccccccscccccccccccscccccccccccscccsssss" />
  <path
     d="m 308.5,135.3 c 7.1,-6.3 9.9,-16.2 6.2,-25 -2.3,-5.3 -4.8,-10.5 -7.6,-15.5 L 304,89.4 c -3,-5 -6.3,-9.9 -9.8,-14.6 -5.7,-7.6 -15.7,-10.1 -24.7,-7.1 L 241.3,77 C 230.6,68.2 218.3,61 205.1,56.1 L 199,27.1 C 197.1,17.8 189.9,10.4 180.5,9.3 173.9,8.4 167.2,8 160.4,8 h -0.7 C 152.9,8 146.2,8.4 139.6,9.2 130.2,10.3 123,17.8 121.1,27 L 115,56.1 C 101.7,61.1 89.5,68.2 78.8,77 L 50.5,67.8 c -9,-3 -19,-0.5 -24.7,7.1 -3.5,4.7 -6.8,9.6 -9.9,14.6 l -3,5.3 c -2.8,5 -5.3,10.2 -7.6,15.6 -3.7,8.7 -0.9,18.6 6.2,25 l 22.2,19.8 c -1.1,6.7 -1.7,13.7 -1.7,20.8 0,7.1 0.6,14.1 1.7,20.9 l -22.2,19.8 c -7.1,6.3 -9.9,16.2 -6.2,25 2.3,5.3 4.8,10.5 7.6,15.6 l 3,5.2 c 3,5.1 6.3,9.9 9.9,14.6 5.7,7.6 15.7,10.1 24.7,7.1 l 28.2,-9.3 c 10.7,8.8 23,16 36.2,20.9 l 6.1,29.1 c 1.9,9.3 9.1,16.7 18.5,17.8 6.7,0.8 13.5,1.2 20.4,1.2 6.9,0 13.7,-0.4 20.4,-1.2 9.4,-1.1 16.6,-8.6 18.5,-17.8 l 6.1,-29.1 c 13.3,-5 25.5,-12.1 36.2,-20.9 l 28.2,9.3 c 9,3 19,0.5 24.7,-7.1 3.5,-4.7 6.8,-9.5 9.8,-14.6 l 3.1,-5.4 c 2.8,-5 5.3,-10.2 7.6,-15.5 3.7,-8.7 0.9,-18.6 -6.2,-25 l -22.2,-19.8 c 1.1,-6.8 1.7,-13.8 1.7,-20.9 0,-7.1 -0.6,-14.1 -1.7,-20.9 l 22.2,-19.8 z M 112,176 c 0,-26.50969 21.49033,-47.99998 48,-47.99998 26.50967,0 48,21.49029 48,47.99998 0,26.50969 -21.49033,47.99998 -48,47.99998 -26.50967,0 -48,-21.49029 -48,-47.99998 z"
     id="path2"
     sodipodi:nodetypes="ccccccccccsscccccccccccscccccccccccscccccccccccscccsssss"
     style="display:inline;fill:#fafafa;fill-opacity:1" />
</svg>
