<svg xmlns="http://www.w3.org/2000/svg" width="32.197" height="21" viewBox="0 0 32.197 21">
    <path id="Icon_awesome-money-bill-wave" data-name="Icon awesome-money-bill-wave" d="M31.249,3.3A15.857,15.857,0,0,0,25.393,2.25C19.2,2.25,13,5.172,6.8,5.172a16.3,16.3,0,0,1-4.661-.643,1.836,1.836,0,0,0-.521-.076A1.552,1.552,0,0,0,0,5.944V20.816A1.489,1.489,0,0,0,.948,22.2,15.848,15.848,0,0,0,6.8,23.25c6.2,0,12.393-2.923,18.589-2.923a16.3,16.3,0,0,1,4.661.643,1.836,1.836,0,0,0,.521.076A1.552,1.552,0,0,0,32.2,19.555V4.684A1.49,1.49,0,0,0,31.249,3.3ZM2.415,6.948a18.71,18.71,0,0,0,3.155.419A3.174,3.174,0,0,1,2.415,9.782Zm0,13.359v-2.24A3.125,3.125,0,0,1,5.62,20.946,12.923,12.923,0,0,1,2.415,20.307ZM16.1,17.25a4.282,4.282,0,0,1-4.025-4.5A4.282,4.282,0,0,1,16.1,8.25a4.282,4.282,0,0,1,4.025,4.5A4.282,4.282,0,0,1,16.1,17.25Zm13.684,1.3a18.473,18.473,0,0,0-2.733-.4,3.138,3.138,0,0,1,2.733-2.31Zm0-11.068A3.084,3.084,0,0,1,26.974,4.6a12.847,12.847,0,0,1,2.808.593Z" transform="translate(0 -2.25)" fill="#069bb4"/>
  </svg>
  