<svg xmlns="http://www.w3.org/2000/svg" width="36" height="36" viewBox="0 0 36 36">
    <g id="Ellipse_24" data-name="Ellipse 24" fill="none" stroke="#fafafa" stroke-width="4">
      <circle cx="18" cy="18" r="18" stroke="none"/>
      <circle cx="18" cy="18" r="16" fill="none"/>
    </g>
    <path id="Icon_awesome-dollar-sign" data-name="Icon awesome-dollar-sign" d="M9.807,10.941,4.745,9.459A1.383,1.383,0,0,1,5.134,6.75H8.241a2.861,2.861,0,0,1,1.6.492.731.731,0,0,0,.914-.094L12.39,5.555a.76.76,0,0,0-.084-1.148A6.628,6.628,0,0,0,8.251,3V.75A.752.752,0,0,0,7.5,0H6a.752.752,0,0,0-.75.75V3H5.134A5.136,5.136,0,0,0,.024,8.606a5.366,5.366,0,0,0,3.928,4.528l4.8,1.406a1.383,1.383,0,0,1-.389,2.709H5.26a2.861,2.861,0,0,1-1.6-.492.731.731,0,0,0-.914.094L1.112,18.445A.76.76,0,0,0,1.2,19.594,6.628,6.628,0,0,0,5.251,21v2.25A.752.752,0,0,0,6,24H7.5a.752.752,0,0,0,.75-.75V20.991a5.3,5.3,0,0,0,4.955-3.408,5.147,5.147,0,0,0-3.4-6.642Z" transform="translate(11.249 6)" fill="#069bb4"/>
  </svg>
  