<svg xmlns="http://www.w3.org/2000/svg" width="64" height="64" viewBox="0 0 64 64">
    <circle id="Ellipse_25" data-name="Ellipse 25" cx="29" cy="29" r="29" transform="translate(3 3.5)" fill="#069bb4"/>
    <path id="Icon_awesome-user-circle" data-name="Icon awesome-user-circle" d="M32,.562a32,32,0,1,0,32,32A31.994,31.994,0,0,0,32,.562ZM32,12.95A11.355,11.355,0,1,1,20.645,24.3,11.355,11.355,0,0,1,32,12.95Zm0,44.387a24.726,24.726,0,0,1-18.9-8.8,14.386,14.386,0,0,1,12.71-7.716,3.157,3.157,0,0,1,.916.142,17.084,17.084,0,0,0,5.277.89,17.019,17.019,0,0,0,5.277-.89,3.157,3.157,0,0,1,.916-.142A14.386,14.386,0,0,1,50.9,48.537,24.726,24.726,0,0,1,32,57.337Z" transform="translate(0 -0.563)" fill="#fafafa"/>
  </svg>
  