<?xml version="1.0" encoding="UTF-8" standalone="no"?>
<svg
   viewBox="0 0 499.99998 400"
   version="1.1"
   id="svg8"
   sodipodi:docname="temp.svg"
   width="500"
   height="400"
   inkscape:version="1.3.2 (091e20e, 2023-11-25)"
   xmlns:inkscape="http://www.inkscape.org/namespaces/inkscape"
   xmlns:sodipodi="http://sodipodi.sourceforge.net/DTD/sodipodi-0.dtd"
   xmlns="http://www.w3.org/2000/svg"
   xmlns:svg="http://www.w3.org/2000/svg">
  <sodipodi:namedview
     id="namedview8"
     pagecolor="#ffffff"
     bordercolor="#000000"
     borderopacity="0.25"
     inkscape:showpageshadow="2"
     inkscape:pageopacity="0.0"
     inkscape:pagecheckerboard="0"
     inkscape:deskcolor="#d1d1d1"
     inkscape:zoom="0.63234634"
     inkscape:cx="323.39872"
     inkscape:cy="264.09578"
     inkscape:window-width="1360"
     inkscape:window-height="607"
     inkscape:window-x="0"
     inkscape:window-y="92"
     inkscape:window-maximized="0"
     inkscape:current-layer="svg8" />
  <defs
     id="defs1">
    <style
       id="style1">
      .cls-1 {
        fill: #2640b5;
      }

      .cls-1, .cls-2, .cls-3 {
        stroke-width: 0px;
      }

      .cls-2 {
        fill: #069bb4;
      }

      .cls-3 {
        fill: #fafafa;
      }
    </style>
  </defs>
  <g
     id="Layer_40"
     data-name="Layer 40"
     transform="translate(-113.86165,-52.186591)">
    <path
       class="cls-1"
       d="m 326.3,152.97 c 0,-20.49 16.61,-37.09 37.09,-37.09 20.48,0 37.09,16.61 37.09,37.09 1.33,4.84 -73.08,4.95 -74.19,0 z"
       id="path1" />
    <path
       class="cls-1"
       d="m 520.85,376.6 c 9.63,5.2 19.52,10.62 25.12,17.87 5.59,7.25 5.76,16.88 -3.02,22.67 -19.92,13.14 -272.93,8.38 -328.14,6.3 -11.07,-0.42 -23.2,-1.23 -30.95,-6.34 -8.78,-5.79 -8.62,-15.43 -3.02,-22.67 5.59,-7.25 15.49,-12.66 25.12,-17.87"
       id="path2" />
    <g
       id="g4">
      <path
         class="cls-1"
         d="m 150.25,327.91 c 0,-88.67 95.43,-160.55 213.15,-160.55 117.72,0 213.15,71.88 213.15,160.55 0,88.67 -426.3,88.67 -426.3,0 z"
         id="path3" />
      <path
         class="cls-1"
         d="m 363.4,399.41 c -56.28,0 -108.79,-5.97 -147.88,-16.81 -45.97,-12.75 -70.27,-31.66 -70.27,-54.7 0,-44.49 22.88,-86.23 64.42,-117.52 41.12,-30.97 95.71,-48.03 153.73,-48.03 58.02,0 112.61,17.06 153.73,48.03 41.54,31.29 64.42,73.03 64.42,117.52 0,23.03 -24.3,41.95 -70.27,54.7 -39.08,10.84 -91.6,16.81 -147.88,16.81 z m 0,-227.06 c -114.77,0 -208.15,69.78 -208.15,155.55 0,24.02 39.44,38.54 62.95,45.06 38.24,10.6 89.8,16.44 145.2,16.44 55.4,0 106.97,-5.84 145.2,-16.44 23.51,-6.52 62.95,-21.04 62.95,-45.06 0,-85.77 -93.38,-155.55 -208.15,-155.55 z"
         id="path4" />
    </g>
    <path
       class="cls-1"
       d="m 442.54,90.33 c 5.88,-10.88 18.27,-15.59 27.66,-10.51 9.39,5.08 12.23,18.02 6.35,28.9 -5.88,10.88 -38.11,29.85 -38.11,29.85 0,0 -1.78,-37.35 4.1,-48.23 z"
       id="path5" />
    <path
       class="cls-1"
       d="m 491.17,132.3 c 12.27,-1.61 23.34,5.66 24.73,16.24 1.39,10.58 -7.42,20.47 -19.69,22.09 -12.27,1.62 -46.52,-13.37 -46.52,-13.37 0,0 29.21,-23.34 41.48,-24.96 z"
       id="path6" />
    <path
       class="cls-1"
       d="m 279.51,90.33 c -5.88,-10.88 -18.27,-15.59 -27.66,-10.51 -9.39,5.08 -12.23,18.02 -6.35,28.9 5.88,10.88 38.11,29.85 38.11,29.85 0,0 1.78,-37.35 -4.1,-48.23 z"
       id="path7" />
    <path
       class="cls-1"
       d="m 230.87,132.3 c -12.27,-1.61 -23.34,5.66 -24.73,16.24 -1.39,10.58 7.42,20.47 19.69,22.09 12.27,1.61 46.52,-13.37 46.52,-13.37 0,0 -29.21,-23.34 -41.48,-24.96 z"
       id="path8" />
  </g>
</svg>
