<svg xmlns="http://www.w3.org/2000/svg" xmlns:xlink="http://www.w3.org/1999/xlink" width="38.079" height="37.951" viewBox="0 0 38.079 37.951">
    <defs>
      <clipPath id="clip-path">
        <path id="Path_97" data-name="Path 97" d="M48.143,67.371a20.425,20.425,0,0,0,5.57-5.57c.752-1.3,10.7,10.361,10.7,10.361l-6.128,5.775S46.049,68.58,48.143,67.371Z" transform="translate(-0.332 -0.236)" fill="#069bb4"/>
      </clipPath>
    </defs>
    <path id="Icon_awesome-search" data-name="Icon awesome-search" d="M35.508,31.127l-7.01-7.01a1.686,1.686,0,0,0-1.2-.492H26.156a14.618,14.618,0,1,0-2.531,2.531V27.3a1.686,1.686,0,0,0,.492,1.2l7.01,7.01a1.681,1.681,0,0,0,2.384,0l1.99-1.99a1.7,1.7,0,0,0,.007-2.391Zm-20.883-7.5a9,9,0,1,1,9-9A8.995,8.995,0,0,1,14.625,23.625Z" fill="#fafafa"/>
    <g id="Mask_Group_7" data-name="Mask Group 7" transform="translate(-26 -39.749)" clip-path="url(#clip-path)">
      <path id="Icon_awesome-search-2" data-name="Icon awesome-search" d="M35.508,31.127l-7.01-7.01a1.686,1.686,0,0,0-1.2-.492H26.156a14.618,14.618,0,1,0-2.531,2.531V27.3a1.686,1.686,0,0,0,.492,1.2l7.01,7.01a1.681,1.681,0,0,0,2.384,0l1.99-1.99a1.7,1.7,0,0,0,.007-2.391Zm-20.883-7.5a9,9,0,1,1,9-9A8.995,8.995,0,0,1,14.625,23.625Z" transform="translate(26 39.749)" fill="#069bb4"/>
    </g>
  </svg>
  