<?xml version="1.0" encoding="UTF-8" standalone="no"?>
<svg
   id="Layer_27"
   data-name="Layer 27"
   viewBox="0 0 1500 450"
   version="1.1"
   sodipodi:docname="wordlogo.svg"
   inkscape:version="1.3.2 (091e20e, 2023-11-25)"
   width="1500"
   height="450"
   xmlns:inkscape="http://www.inkscape.org/namespaces/inkscape"
   xmlns:sodipodi="http://sodipodi.sourceforge.net/DTD/sodipodi-0.dtd"
   xmlns="http://www.w3.org/2000/svg"
   xmlns:svg="http://www.w3.org/2000/svg">
  <sodipodi:namedview
     id="namedview13"
     pagecolor="#ffffff"
     bordercolor="#000000"
     borderopacity="0.25"
     inkscape:showpageshadow="2"
     inkscape:pageopacity="0.0"
     inkscape:pagecheckerboard="0"
     inkscape:deskcolor="#d1d1d1"
     inkscape:zoom="0.25731319"
     inkscape:cx="843.33026"
     inkscape:cy="1078.4523"
     inkscape:window-width="1264"
     inkscape:window-height="788"
     inkscape:window-x="34"
     inkscape:window-y="26"
     inkscape:window-maximized="0"
     inkscape:current-layer="Layer_27" />
  <defs
     id="defs1">
    <style
       id="style1">
      .cls-1 {
        fill: none;
      }

      .cls-1, .cls-2, .cls-3 {
        stroke-width: 0px;
      }

      .cls-2 {
        fill: #2640b5;
      }

      .cls-3 {
        fill: #069bb4;
      }
    </style>
  </defs>
  <g
     id="g1"
     transform="translate(-116.58944,-1270.8249)">
    <path
       class="cls-2"
       d="M 142.04631,1699.4062 V 1293.3014 H 277.6817 c 119.57688,0 191.1597,76.1494 191.1597,202.4552 0,126.3057 -71.58282,203.6496 -195.31798,203.6496 z m 128.09001,-53.5435 c 92.601,0 138.40253,-53.9365 138.40253,-150.1061 0,-96.1695 -45.80153,-148.9267 -134.63741,-148.9267 h -70.59995 v 299.0328 h 66.81971 z"
       id="path1" />
    <rect
       class="cls-2"
       x="511.43726"
       y="1293.2864"
       width="61.270298"
       height="406.10474"
       id="rect1" />
    <polygon
       class="cls-2"
       points="743.7,1400.56 703.17,1400.56 703.17,1131.98 740.68,1131.98 877.33,1329.22 879.82,1329.22 879.82,1131.98 919.95,1131.98 919.95,1400.56 882.7,1400.56 746.19,1203.59 743.7,1203.59 "
       id="polygon1"
       transform="matrix(1.5121002,0,0,1.5121002,-446.00946,-418.38079)" />
    <path
       class="cls-2"
       d="m 1158.722,1343.6544 c -68.8157,0 -121.3612,54.1332 -121.3612,152.4953 0,98.3621 52.1523,152.8885 123.7352,152.8885 65.0354,0 108.2663,-41.4467 109.6575,-106.8752 h -100.343 v -50.5647 h 159.6324 v 46.2098 c 0,102.5204 -70.3883,167.1627 -168.9469,167.1627 -110.0507,0 -184.61233,-79.9145 -184.61233,-208.4128 0,-128.4982 76.73903,-208.8059 181.84513,-208.8059 87.6413,0 155.2625,54.7229 168.947,133.8511 h -62.858 c -15.2722,-48.1906 -51.7592,-77.9336 -105.6958,-77.9336"
       id="path2" />
    <polygon
       class="cls-3"
       points="1213.02,1228.12 1234.55,1219.87 1234.55,1406.15 1212.84,1406.15 "
       id="polygon2"
       transform="matrix(1.5121002,0,0,1.5121002,-446.00946,-418.38079)" />
    <path
       class="cls-3"
       d="m 1570.7542,1454.5972 h -42.3388 v 179.7132 c 0,35.3982 20.3528,45.8468 42.5505,45.8468 8.6189,0 14.4859,-1.2853 19.0675,-2.5706 l 6.9708,29.5313 c -6.2299,2.3892 -15.4082,4.9446 -28.9718,4.9446 -36.1241,0 -72.4448,-24.0273 -72.4448,-70.0556 v -187.4247 h -41.991 v -28.4276 h 41.991 v -67.485 h 32.8278 v 67.485 h 42.3388 v 28.4276 z"
       id="path3" />
    <path
       class="cls-2"
       d="m 1417.3214,1358.3369 c -4.6422,-8.5887 -14.4104,-12.2933 -21.8196,-8.2863 -7.4094,4.007 -9.6473,14.2137 -5.0052,22.7874 4.6422,8.5886 30.0607,23.5434 30.0607,23.5434 0,0 1.4062,-29.4558 -3.2359,-38.0445 z"
       id="path4" />
    <path
       class="cls-2"
       d="m 1378.9594,1391.4368 c -9.6775,-1.2701 -18.4023,4.4607 -19.5061,12.8075 -1.1038,8.3468 5.8518,16.1492 15.5293,17.4193 9.6774,1.2703 36.6987,-10.5543 36.6987,-10.5543 0,0 -23.0445,-18.4174 -32.7219,-19.6877 z"
       id="path5" />
  </g>
</svg>
