<?xml version="1.0" encoding="UTF-8" standalone="no"?>
<svg
   id="Layer_44"
   data-name="Layer 44"
   viewBox="0 0 250 250"
   version="1.1"
   sodipodi:docname="blue-on-white.svg"
   inkscape:export-filename="blue-on-white-logo.png"
   inkscape:export-xdpi="393.216"
   inkscape:export-ydpi="393.216"
   inkscape:version="1.3.2 (091e20e, 2023-11-25)"
   xmlns:inkscape="http://www.inkscape.org/namespaces/inkscape"
   xmlns:sodipodi="http://sodipodi.sourceforge.net/DTD/sodipodi-0.dtd"
   xmlns="http://www.w3.org/2000/svg"
   xmlns:svg="http://www.w3.org/2000/svg">
  <sodipodi:namedview
     id="namedview8"
     pagecolor="#ffffff"
     bordercolor="#000000"
     borderopacity="0.25"
     inkscape:showpageshadow="2"
     inkscape:pageopacity="0.0"
     inkscape:pagecheckerboard="0"
     inkscape:deskcolor="#d1d1d1"
     inkscape:zoom="0.944"
     inkscape:cx="125"
     inkscape:cy="125"
     inkscape:window-width="1312"
     inkscape:window-height="449"
     inkscape:window-x="1228"
     inkscape:window-y="1244"
     inkscape:window-maximized="0"
     inkscape:current-layer="layer1" />
  <defs
     id="defs1">
    <style
       id="style1">
      .cls-1 {
        fill: none;
      }

      .cls-1, .cls-2 {
        stroke-width: 0px;
      }

      .cls-2 {
        fill: #2640b5;
      }
    </style>
  </defs>
  <g
     inkscape:groupmode="layer"
     id="layer1"
     inkscape:label="bg">
    <rect
       style="fill:#fafafa"
       id="rect8"
       width="257.41525"
       height="257.41525"
       x="-3.1779661"
       y="-3.1779661" />
  </g>
  <path
     class="cls-2"
     d="M111.89,90.99c0-7.04,5.71-12.75,12.75-12.75s12.75,5.71,12.75,12.75c.46,1.66-25.13,1.7-25.51,0Z"
     id="path1" />
  <path
     class="cls-2"
     d="M178.78,167.87s6.71,3.65,8.64,6.14c1.92,2.49,1.98,5.8-1.04,7.8-6.85,4.52-93.84,2.88-112.82,2.17-3.81-.14-7.98-.42-10.64-2.18-3.02-1.99-2.96-5.3-1.04-7.8,1.92-2.49,8.64-6.14,8.64-6.14,0,0,1.56-1.53,1.88-1.92,9.7,2.72,25.9,6.34,52.25,6.34,19.26,0,36.91-1.65,51.98-6.25,1.17.94,2.15,1.85,2.15,1.85Z"
     id="path2" />
  <g
     id="g4">
    <path
       class="cls-1"
       d="M51.37,151.13c0-30.49,32.81-55.2,73.28-55.2s73.28,24.71,73.28,55.2-146.56,30.49-146.56,0Z"
       id="path3" />
    <path
       class="cls-2"
       d="M124.65,175.72c-19.35,0-37.4-2.05-50.84-5.78-15.81-4.38-24.16-10.89-24.16-18.8,0-15.3,7.87-29.65,22.15-40.4,14.14-10.65,32.91-16.51,52.85-16.51s38.71,5.86,52.85,16.51c14.28,10.76,22.15,25.11,22.15,40.4,0,7.92-8.35,14.42-24.16,18.8-13.44,3.73-31.49,5.78-50.84,5.78ZM124.65,97.65c-39.46,0-71.56,23.99-71.56,53.48,0,8.26,13.56,13.25,21.64,15.49,13.15,3.65,30.87,5.65,49.92,5.65s36.78-2.01,49.92-5.65c8.08-2.24,21.64-7.23,21.64-15.49,0-29.49-32.1-53.48-71.56-53.48Z"
       id="path4" />
  </g>
  <path
     class="cls-2"
     d="M151.86,69.45c2.02-3.74,6.28-5.36,9.51-3.61,3.23,1.75,4.21,6.19,2.18,9.94s-13.1,10.26-13.1,10.26c0,0-.61-12.84,1.41-16.58Z"
     id="path5" />
  <path
     class="cls-2"
     d="M168.58,83.88c4.22-.56,8.02,1.94,8.5,5.58.48,3.64-2.55,7.04-6.77,7.59-4.22.56-16-4.6-16-4.6,0,0,10.04-8.03,14.26-8.58Z"
     id="path6" />
  <path
     class="cls-2"
     d="M95.81,69.45c-2.02-3.74-6.28-5.36-9.51-3.61-3.23,1.75-4.21,6.19-2.18,9.94s13.1,10.26,13.1,10.26c0,0,.61-12.84-1.41-16.58Z"
     id="path7" />
  <path
     class="cls-2"
     d="M79.09,83.88c-4.22-.56-8.02,1.94-8.5,5.58-.48,3.64,2.55,7.04,6.77,7.59,4.22.56,16-4.6,16-4.6,0,0-10.04-8.03-14.26-8.58Z"
     id="path8" />
</svg>
