<?xml version="1.0" encoding="UTF-8" standalone="no"?>
<svg
   id="Layer_44"
   data-name="Layer 44"
   viewBox="0 0 250 250"
   version="1.1"
   sodipodi:docname="blue-on-white.svg"
   inkscape:export-filename="blue-on-white-logo.png"
   inkscape:export-xdpi="393.216"
   inkscape:export-ydpi="393.216"
   inkscape:version="1.3.2 (091e20e, 2023-11-25)"
   xmlns:inkscape="http://www.inkscape.org/namespaces/inkscape"
   xmlns:sodipodi="http://sodipodi.sourceforge.net/DTD/sodipodi-0.dtd"
   xmlns="http://www.w3.org/2000/svg"
   xmlns:svg="http://www.w3.org/2000/svg">
  <sodipodi:namedview
     id="namedview8"
     pagecolor="#ffffff"
     bordercolor="#000000"
     borderopacity="0.25"
     inkscape:showpageshadow="2"
     inkscape:pageopacity="0.0"
     inkscape:pagecheckerboard="0"
     inkscape:deskcolor="#d1d1d1"
     inkscape:zoom="0.944"
     inkscape:cx="125"
     inkscape:cy="125"
     inkscape:window-width="1312"
     inkscape:window-height="449"
     inkscape:window-x="200"
     inkscape:window-y="433"
     inkscape:window-maximized="0"
     inkscape:current-layer="Layer_44" />
  <defs
     id="defs1">
    <style
       id="style1">
      .cls-1 {
        fill: none;
      }

      .cls-1, .cls-2 {
        stroke-width: 0px;
      }

      .cls-2 {
        fill: #2640b5;
      }
    </style>
  </defs>
  <g
     inkscape:groupmode="layer"
     id="layer1"
     inkscape:label="bg">
    <rect
       style="fill:#fafafa"
       id="rect8"
       width="257.41525"
       height="257.41525"
       x="-3.1779661"
       y="-3.1779661" />
  </g>
  <path
     class="cls-2"
     d="m 105.79348,74.74149 c 0,-10.403595 8.43815,-18.841739 18.84174,-18.841739 10.4036,0 18.84174,8.438144 18.84174,18.841739 0.67978,2.453121 -37.1367,2.512232 -37.69825,0 z"
     id="path1" />
  <path
     class="cls-2"
     d="m 204.64242,188.35348 c 0,0 9.91593,5.39391 12.76805,9.07359 2.83734,3.67968 2.92601,8.57115 -1.5369,11.52671 -10.12281,6.67958 -138.675197,4.25602 -166.723526,3.20679 -5.630355,-0.20689 -11.792712,-0.62067 -15.723616,-3.22156 -4.462906,-2.94079 -4.374239,-7.83226 -1.536895,-11.52672 2.837344,-3.67968 12.768049,-9.07359 12.768049,-9.07359 0,0 2.305342,-2.261 2.778233,-2.83734 14.334499,4.01957 38.274591,9.36915 77.214185,9.36915 28.46211,0 54.54499,-2.43835 76.81518,-9.23615 1.72901,1.38912 3.17724,2.7339 3.17724,2.7339 z"
     id="path2" />
  <g
     id="g4"
     transform="matrix(1.4777834,0,0,1.4777834,-59.555707,-59.722026)">
    <path
       class="cls-1"
       d="m 51.37,151.13 c 0,-30.49 32.81,-55.2 73.28,-55.2 40.47,0 73.28,24.71 73.28,55.2 0,30.49 -146.56,30.49 -146.56,0 z"
       id="path3" />
    <path
       class="cls-2"
       d="m 124.65,175.72 c -19.35,0 -37.4,-2.05 -50.84,-5.78 -15.81,-4.38 -24.16,-10.89 -24.16,-18.8 0,-15.3 7.87,-29.65 22.15,-40.4 14.14,-10.65 32.91,-16.51 52.85,-16.51 19.94,0 38.71,5.86 52.85,16.51 14.28,10.76 22.15,25.11 22.15,40.4 0,7.92 -8.35,14.42 -24.16,18.8 -13.44,3.73 -31.49,5.78 -50.84,5.78 z m 0,-78.07 c -39.46,0 -71.56,23.99 -71.56,53.48 0,8.26 13.56,13.25 21.64,15.49 13.15,3.65 30.87,5.65 49.92,5.65 19.05,0 36.78,-2.01 49.92,-5.65 8.08,-2.24 21.64,-7.23 21.64,-15.49 0,-29.49 -32.1,-53.48 -71.56,-53.48 z"
       id="path4" />
  </g>
  <path
     class="cls-2"
     d="m 164.86049,42.910035 c 2.98512,-5.52691 9.28048,-7.920919 14.05372,-5.334798 4.77324,2.586121 6.22147,9.147479 3.22157,14.689167 -2.9999,5.541688 -19.35897,15.162058 -19.35897,15.162058 0,0 -0.90144,-18.974739 2.08368,-24.501649 z"
     id="path5" />
  <path
     class="cls-2"
     d="m 189.56903,64.23445 c 6.23624,-0.827559 11.85182,2.8669 12.56116,8.246032 0.70933,5.379131 -3.76835,10.403595 -10.0046,11.216376 -6.23624,0.827559 -23.64453,-6.797804 -23.64453,-6.797804 0,0 14.83694,-11.866601 21.07319,-12.679382 z"
     id="path6" />
  <path
     class="cls-2"
     d="m 82.030725,42.910035 c -2.985122,-5.52691 -9.28048,-7.920919 -14.05372,-5.334798 -4.773241,2.586121 -6.221469,9.147479 -3.221568,14.689167 2.9999,5.541688 19.358963,15.162058 19.358963,15.162058 0,0 0.901448,-18.974739 -2.083675,-24.501649 z"
     id="path7" />
  <path
     class="cls-2"
     d="m 57.322186,64.23445 c -6.236246,-0.827559 -11.851823,2.8669 -12.561159,8.246032 -0.709336,5.379131 3.768348,10.403595 10.004594,11.216376 6.236246,0.827559 23.644535,-6.797804 23.644535,-6.797804 0,0 -14.836946,-11.866601 -21.073192,-12.679382 z"
     id="path8" />
</svg>
