<?xml version="1.0" encoding="UTF-8"?>
<svg xmlns="http://www.w3.org/2000/svg" viewBox="0 0 1742.19 2130">
  <defs>
    <style>
      .cls-1 {
        stroke: #000;
      }

      .cls-1, .cls-2, .cls-3 {
        fill: #fff;
      }

      .cls-1, .cls-4, .cls-5, .cls-6 {
        stroke-miterlimit: 10;
      }

      .cls-1, .cls-4, .cls-5, .cls-3, .cls-7 {
        stroke-width: 10px;
      }

      .cls-2, .cls-4, .cls-5, .cls-8, .cls-9, .cls-10, .cls-3, .cls-7 {
        stroke: #737373;
      }

      .cls-2, .cls-5, .cls-11, .cls-12, .cls-13, .cls-14, .cls-8, .cls-9, .cls-10, .cls-3, .cls-7 {
        stroke-linecap: round;
      }

      .cls-2, .cls-11, .cls-12, .cls-13, .cls-14, .cls-8, .cls-9, .cls-10, .cls-3, .cls-7 {
        stroke-linejoin: round;
      }

      .cls-2, .cls-8 {
        stroke-width: 16px;
      }

      .cls-4, .cls-5, .cls-6, .cls-12, .cls-14, .cls-8, .cls-9, .cls-7 {
        fill: none;
      }

      .cls-6, .cls-11, .cls-12, .cls-13, .cls-14 {
        stroke: #828282;
      }

      .cls-6, .cls-14 {
        stroke-width: 15px;
      }

      .cls-15 {
        fill: #000;
      }

      .cls-15, .cls-16, .cls-17 {
        stroke-width: 0px;
      }

      .cls-11, .cls-13, .cls-16 {
        fill: #828282;
      }

      .cls-11, .cls-9 {
        stroke-width: 9px;
      }

      .cls-12, .cls-13 {
        stroke-width: 8px;
      }

      .cls-10 {
        stroke-width: 3px;
      }

      .cls-10, .cls-17 {
        fill: #737373;
      }
    </style>
  </defs>
  <g id="Layer_15" data-name="Layer 15">
    <path class="cls-4" d="M1387.71,1327.71c0-19.88,16.12-36,36-36s36,16.12,36,36c1.29,4.69-70.93,4.81-72,0Z"/>
    <path class="cls-5" d="M1576.52,1553.13c9.35,5.05,18.95,10.31,24.38,17.34,5.43,7.03,5.59,16.38-2.93,22.01-19.33,12.76-264.89,8.13-318.47,6.11-10.75-.4-22.52-1.2-30.03-6.16-8.52-5.62-8.36-14.97-2.93-22.01,5.43-7.03,15.03-12.29,24.38-17.34"/>
    <path class="cls-4" d="M1216.85,1505.87c0-86.06,92.62-155.82,206.87-155.82s206.87,69.76,206.87,155.82-413.73,86.06-413.73,0Z"/>
    <path class="cls-7" d="M1500.52,1258.78c5.71-10.56,17.73-15.13,26.84-10.2s11.87,17.48,6.16,28.05c-5.71,10.56-36.99,28.97-36.99,28.97,0,0-1.73-36.25,3.98-46.81Z"/>
    <path class="cls-7" d="M1547.72,1299.51c11.9-1.57,22.65,5.49,24,15.76,1.35,10.27-7.2,19.87-19.11,21.44-11.9,1.57-45.15-12.98-45.15-12.98,0,0,28.35-22.65,40.26-24.22Z"/>
    <path class="cls-7" d="M1342.29,1258.78c-5.71-10.56-17.73-15.13-26.84-10.2-9.11,4.93-11.87,17.48-6.16,28.05,5.71,10.56,36.99,28.97,36.99,28.97,0,0,1.73-36.25-3.98-46.81Z"/>
    <path class="cls-7" d="M1295.09,1299.51c-11.9-1.57-22.65,5.49-24,15.76-1.35,10.27,7.2,19.87,19.11,21.44,11.9,1.57,45.15-12.98,45.15-12.98,0,0-28.35-22.65-40.26-24.22Z"/>
  </g>
  <g id="Layer_29" data-name="Layer 29">
    <path class="cls-15" d="M1396.91,1726.67c0-20.49,16.61-37.09,37.09-37.09s37.09,16.61,37.09,37.09c1.33,4.84-73.08,4.95-74.19,0Z"/>
    <path class="cls-15" d="M1591.46,1950.3c9.63,5.2,19.52,10.62,25.12,17.87,5.59,7.25,5.76,16.88-3.02,22.67-19.92,13.14-272.93,8.38-328.14,6.3-11.07-.42-23.2-1.23-30.95-6.34-8.78-5.79-8.62-15.43-3.02-22.67,5.59-7.25,15.49-12.66,25.12-17.87"/>
    <path class="cls-1" d="M1220.86,1901.61c0-88.67,95.43-160.55,213.15-160.55s213.15,71.88,213.15,160.55-426.3,88.67-426.3,0Z"/>
    <path class="cls-15" d="M1513.15,1664.03c5.88-10.88,18.27-15.59,27.66-10.51,9.39,5.08,12.23,18.02,6.35,28.9-5.88,10.88-38.11,29.85-38.11,29.85,0,0-1.78-37.35,4.1-48.23Z"/>
    <path class="cls-15" d="M1561.78,1706c12.27-1.61,23.34,5.66,24.73,16.24s-7.42,20.47-19.69,22.09c-12.27,1.61-46.52-13.37-46.52-13.37,0,0,29.21-23.34,41.48-24.96Z"/>
    <path class="cls-15" d="M1350.11,1664.03c-5.88-10.88-18.27-15.59-27.66-10.51s-12.23,18.02-6.35,28.9c5.88,10.88,38.11,29.85,38.11,29.85,0,0,1.78-37.35-4.1-48.23Z"/>
    <path class="cls-15" d="M1301.48,1706c-12.27-1.61-23.34,5.66-24.73,16.24-1.39,10.58,7.42,20.47,19.69,22.09,12.27,1.61,46.52-13.37,46.52-13.37,0,0-29.21-23.34-41.48-24.96Z"/>
  </g>
  <g id="Layer_18" data-name="Layer 18">
    <path class="cls-4" d="M1387.71,975.52c0-19.88,16.12-36,36-36s36,16.12,36,36c1.29,4.69-70.93,4.81-72,0Z"/>
    <path class="cls-5" d="M1597.28,1169.79c10.61,5.05,37.12,29.39,27.69,32.55-87.1,29.19-318.9,28.07-402.5-.04-9.43-3.17,17.07-27.5,27.69-32.55"/>
    <path class="cls-4" d="M1216.85,1153.68c0-86.06,92.62-155.82,206.87-155.82s206.87,69.76,206.87,155.82c.99,30.52-413.73,30.99-413.73,0Z"/>
    <path class="cls-7" d="M1500.52,906.59c5.71-10.56,17.73-15.13,26.84-10.2,9.11,4.93,11.87,17.48,6.16,28.05-5.71,10.56-36.99,28.97-36.99,28.97,0,0-1.73-36.25,3.98-46.81Z"/>
    <path class="cls-7" d="M1547.72,947.32c11.9-1.57,22.65,5.49,24,15.76,1.35,10.27-7.2,19.87-19.11,21.44-11.9,1.57-45.15-12.98-45.15-12.98,0,0,28.35-22.65,40.26-24.22Z"/>
    <path class="cls-7" d="M1342.29,906.59c-5.71-10.56-17.73-15.13-26.84-10.2-9.11,4.93-11.87,17.48-6.16,28.05,5.71,10.56,36.99,28.97,36.99,28.97,0,0,1.73-36.25-3.98-46.81Z"/>
    <path class="cls-7" d="M1295.09,947.32c-11.9-1.57-22.65,5.49-24,15.76s7.2,19.87,19.11,21.44c11.9,1.57,45.15-12.98,45.15-12.98,0,0-28.35-22.65-40.26-24.22Z"/>
  </g>
  <g id="Layer_19" data-name="Layer 19">
    <path class="cls-4" d="M1387.71,215.83c0-19.88,16.12-36,36-36s36,16.12,36,36c1.29,4.69-70.93,4.81-72,0Z"/>
    <path class="cls-5" d="M1597.28,410.1c10.61,5.05,36.11,27.27,27.69,32.55-9.01,5.66-393.93,6.56-402.5-.04-7.88-6.07,17.07-27.5,27.69-32.55"/>
    <path class="cls-4" d="M1216.85,393.99c0-86.06,92.62-155.82,206.87-155.82s206.87,69.76,206.87,155.82c.99,30.52-413.73,30.99-413.73,0Z"/>
    <path class="cls-4" d="M1500.52,146.9c5.71-10.56,17.73-15.13,26.84-10.2,9.11,4.93,11.87,17.48,6.16,28.05-5.71,10.56-36.99,28.97-36.99,28.97,0,0-1.73-36.25,3.98-46.81Z"/>
    <path class="cls-4" d="M1547.72,187.63c11.9-1.57,22.65,5.49,24,15.76,1.35,10.27-7.2,19.87-19.11,21.44-11.9,1.57-45.15-12.98-45.15-12.98,0,0,28.35-22.65,40.26-24.22Z"/>
    <path class="cls-4" d="M1342.29,146.9c-5.71-10.56-17.73-15.13-26.84-10.2-9.11,4.93-11.87,17.48-6.16,28.05,5.71,10.56,36.99,28.97,36.99,28.97,0,0,1.73-36.25-3.98-46.81Z"/>
    <path class="cls-4" d="M1295.09,187.63c-11.9-1.57-22.65,5.49-24,15.76s7.2,19.87,19.11,21.44c11.9,1.57,45.15-12.98,45.15-12.98,0,0-28.35-22.65-40.26-24.22Z"/>
  </g>
  <g id="Layer_20" data-name="Layer 20">
    <path class="cls-17" d="M1387.71,593.64c0-19.88,16.12-36,36-36s36,16.12,36,36c1.29,4.69-70.93,4.81-72,0Z"/>
    <path class="cls-17" d="M1597.28,787.91h-20.43c-79.64,9.25-228.09,9.32-307.19-.04h-19.5c-10.61,5.05-35.57,26.48-27.69,32.55,8.57,6.6,393.48,5.7,402.5.04,8.43-5.29-17.07-27.5-27.69-32.55Z"/>
    <path class="cls-4" d="M1216.85,771.8c0-86.06,92.62-155.82,206.87-155.82s206.87,69.76,206.87,155.82c.99,30.52-413.73,30.99-413.73,0Z"/>
    <path class="cls-17" d="M1500.52,524.71c5.71-10.56,17.73-15.13,26.84-10.2,9.11,4.93,11.87,17.48,6.16,28.05-5.71,10.56-36.99,28.97-36.99,28.97,0,0-1.73-36.25,3.98-46.81Z"/>
    <path class="cls-17" d="M1547.72,565.44c11.9-1.57,22.65,5.49,24,15.76,1.35,10.27-7.2,19.87-19.11,21.44-11.9,1.57-45.15-12.98-45.15-12.98,0,0,28.35-22.65,40.26-24.22Z"/>
    <path class="cls-17" d="M1342.29,524.71c-5.71-10.56-17.73-15.13-26.84-10.2-9.11,4.93-11.87,17.48-6.16,28.05,5.71,10.56,36.99,28.97,36.99,28.97,0,0,1.73-36.25-3.98-46.81Z"/>
    <path class="cls-17" d="M1295.09,565.44c-11.9-1.57-22.65,5.49-24,15.76s7.2,19.87,19.11,21.44c11.9,1.57,45.15-12.98,45.15-12.98,0,0-28.35-22.65-40.26-24.22Z"/>
  </g>
  <g id="Layer_21" data-name="Layer 21">
    <g>
      <path class="cls-16" d="M460.36,398.64c-4.33-5.34-10.03-9.36-15.03-14.07-25.95-24.48-29.89-63.9-47.05-95.18-18.78-34.24-51.56-62.26-93.71-62.55h0c-.11-.01-.22,0-.33,0-.11,0-.22,0-.33,0h0c-42.15.31-74.93,28.33-93.71,62.57-17.16,31.28-21.1,70.7-47.05,95.18-5,4.72-10.71,8.73-15.03,14.07-4.33,5.34-7.16,12.55-5.13,19.11,52.97,0,105.87.17,156.31.19h0c1.64,0,3.29,0,4.94,0,1.65,0,3.3,0,4.94,0h0c50.44-.02,103.34-.19,156.31-.19,2.03-6.57-.8-13.77-5.13-19.11Z"/>
      <path class="cls-16" d="M323.5,202.66c-4.83-5.64-12.46-11-19.59-11-7.59,0-14.07,5.35-18.9,11-4.83,5.64-7.68,12.42-7.95,19.85.83.41,26.28.07,27.2-.06.86.18,26.4-.04,27.2-.32-.27-7.42-3.12-13.82-7.95-19.47Z"/>
      <rect class="cls-16" x="191.17" y="430.33" width="226.16" height="43.9" rx="8" ry="8"/>
      <g>
        <polygon class="cls-16" points="165.78 359.59 126.71 366.41 129.54 378.54 165.78 359.59"/>
        <polygon class="cls-16" points="164.76 348.54 126.26 337.99 125.32 350.53 164.76 348.54"/>
        <polygon class="cls-16" points="168.81 338.27 137.05 309.89 132.03 320.92 168.81 338.27"/>
      </g>
      <g>
        <polygon class="cls-16" points="442.72 359.59 481.79 366.41 478.96 378.54 442.72 359.59"/>
        <polygon class="cls-16" points="443.74 348.54 482.24 337.99 483.18 350.53 443.74 348.54"/>
        <polygon class="cls-16" points="439.69 338.27 471.45 309.89 476.47 320.92 439.69 338.27"/>
      </g>
      <rect class="cls-16" x="269.66" y="403.13" width="69.18" height="27.2"/>
      <rect class="cls-16" x="290.65" y="201.87" width="27.2" height="27.2"/>
      <path class="cls-16" d="M460.36,775.11c-4.33-5.34-10.03-9.36-15.03-14.07-25.95-24.48-29.89-63.9-47.05-95.18-18.78-34.24-51.56-62.26-93.71-62.55h0c-.11-.01-.22,0-.33,0-.11,0-.22,0-.33,0h0c-42.15.31-74.93,28.33-93.71,62.57-17.16,31.28-21.1,70.7-47.05,95.18-5,4.72-10.7,8.73-15.03,14.07-4.33,5.34-7.16,12.55-5.13,19.11,52.97,0,105.87.17,156.31.19h0c1.64,0,3.29,0,4.94,0,1.65,0,3.3,0,4.94,0h0c50.44-.02,103.34-.19,156.31-.19,2.03-6.57-.8-13.77-5.13-19.11Z"/>
      <path class="cls-11" d="M322.72,571.56c-4.64-5.41-11.96-10.55-18.8-10.55-7.28,0-13.5,5.14-18.14,10.55-4.64,5.41-7.37,11.92-7.63,19.04.8.39,25.22.07,26.1-.06.82.17,25.33-.04,26.1-.31-.26-7.12-3-13.26-7.63-18.68Z"/>
      <rect class="cls-16" x="191.17" y="805.04" width="226.16" height="23.95" rx="8" ry="8"/>
      <g>
        <polygon class="cls-16" points="167.36 729.03 113.78 738.38 117.66 755 167.36 729.03"/>
        <polygon class="cls-16" points="165.96 713.87 113.17 699.4 111.88 716.6 165.96 713.87"/>
        <polygon class="cls-16" points="171.52 699.79 127.96 660.87 121.08 676 171.52 699.79"/>
      </g>
      <g>
        <polygon class="cls-16" points="447.07 729.03 500.64 738.38 496.76 755 447.07 729.03"/>
        <polygon class="cls-16" points="448.47 713.87 501.26 699.4 502.54 716.6 448.47 713.87"/>
        <polygon class="cls-16" points="442.9 699.79 486.46 660.87 493.34 676 442.9 699.79"/>
      </g>
      <rect class="cls-16" x="269.66" y="779.6" width="69.18" height="27.2"/>
      <rect class="cls-16" x="290.65" y="578.33" width="27.2" height="27.2"/>
      <path class="cls-14" d="M293.1,911.11c-9.05-7.46,12.84-17,28.77-17s37.54,9.87,28.91,17"/>
      <path class="cls-14" d="M477.99,1102.07c-4.33-5.34-10.03-9.36-15.03-14.07-25.95-24.48-29.89-63.9-47.05-95.18-18.78-34.24-51.56-62.26-93.71-62.55h0c-.11-.01-.22,0-.33,0-.11,0-.22,0-.33,0h0c-42.15.31-74.93,28.33-93.71,62.57-17.16,31.28-21.1,70.7-47.05,95.18-5,4.72-10.71,8.73-15.03,14.07-4.33,5.34-7.16,12.55-5.13,19.11,52.97,0,105.87.17,156.31.19h0c1.64,0,3.29,0,4.94,0,1.65,0,3.3,0,4.94,0h0c50.44-.02,103.34-.19,156.31-.19,2.03-6.56-.8-13.77-5.13-19.11Z"/>
      <rect class="cls-16" x="208.8" y="1132" width="226.16" height="23.95" rx="8" ry="8"/>
      <g>
        <polygon class="cls-13" points="178.26 1062.71 124.69 1072.06 128.56 1088.68 178.26 1062.71"/>
        <polygon class="cls-13" points="176.86 1047.55 124.07 1033.08 122.78 1050.29 176.86 1047.55"/>
        <polygon class="cls-13" points="182.42 1033.47 138.86 994.55 131.98 1009.68 182.42 1033.47"/>
      </g>
      <g>
        <polygon class="cls-13" points="464.69 1055.99 518.26 1065.34 514.39 1081.96 464.69 1055.99"/>
        <polygon class="cls-13" points="466.09 1040.83 518.88 1026.36 520.17 1043.56 466.09 1040.83"/>
        <polygon class="cls-13" points="460.53 1026.75 504.08 987.83 510.96 1002.96 460.53 1026.75"/>
      </g>
      <rect class="cls-16" x="287.28" y="1118.4" width="69.18" height="27.2"/>
      <path class="cls-14" d="M293.1,1222.01c-9.05-7.46,12.84-17,28.77-17s37.54,9.87,28.91,17"/>
      <path class="cls-14" d="M477.99,1412.96c-4.33-5.34-10.03-9.36-15.03-14.07-25.95-24.48-29.89-63.9-47.05-95.18-18.78-34.24-51.56-62.26-93.71-62.55h0c-.11-.01-.22,0-.33,0-.11,0-.22,0-.33,0h0c-42.15.31-74.93,28.33-93.71,62.57-17.16,31.28-21.1,70.7-47.05,95.18-5,4.72-10.71,8.73-15.03,14.07-4.33,5.34-7.16,12.55-5.13,19.11,52.97,0,105.87.17,156.31.19h0c1.64,0,3.29,0,4.94,0,1.65,0,3.3,0,4.94,0h0c50.44-.02,103.34-.19,156.31-.19,2.03-6.57-.8-13.77-5.13-19.11Z"/>
      <rect class="cls-6" x="208.79" y="1451.4" width="226.16" height="23.95" rx="8" ry="8"/>
      <g>
        <polygon class="cls-12" points="465.59 1356.36 530.79 1369.5 526.07 1392.86 465.59 1356.36"/>
        <polygon class="cls-12" points="467.3 1335.06 531.54 1314.73 533.11 1338.9 467.3 1335.06"/>
        <polygon class="cls-12" points="460.53 1315.28 513.54 1260.59 521.91 1281.85 460.53 1315.28"/>
      </g>
      <g>
        <polygon class="cls-12" points="178.26 1356.36 113.07 1369.5 117.78 1392.86 178.26 1356.36"/>
        <polygon class="cls-12" points="176.56 1335.06 112.32 1314.73 110.75 1338.9 176.56 1335.06"/>
        <polygon class="cls-12" points="183.33 1315.28 130.32 1260.59 121.95 1281.85 183.33 1315.28"/>
      </g>
      <line class="cls-3" x1="693.48" y1="413.54" x2="993.48" y2="413.54"/>
      <line class="cls-3" x1="652.98" y1="439.57" x2="1033.98" y2="439.57"/>
      <path class="cls-7" d="M664.93,404.95c0-80.63,79.94-146,178.56-146s178.56,65.37,178.56,146"/>
      <path class="cls-9" d="M822.8,241.47c0-11.42,9.26-20.68,20.68-20.68s20.68,9.26,20.68,20.68"/>
      <path class="cls-9" d="M768.33,231.12c-7.15-22.45,5.26-46.45,27.71-53.6"/>
      <path class="cls-9" d="M791.06,226.54c-3.32-10.41,2.44-21.54,12.85-24.86"/>
      <path class="cls-9" d="M922.46,231.12c7.15-22.45-5.26-46.45-27.71-53.6"/>
      <path class="cls-9" d="M899.74,226.54c3.32-10.41-2.44-21.54-12.85-24.86"/>
      <line class="cls-2" x1="680.58" y1="1134.85" x2="987.23" y2="1134.85"/>
      <line class="cls-2" x1="641.08" y1="1168.08" x2="1026.72" y2="1168.08"/>
      <path class="cls-8" d="M655.35,1125.09c0-80.63,79.94-146,178.56-146s178.56,65.37,178.56,146"/>
      <path class="cls-8" d="M808.09,959.58c0-14.26,11.56-25.81,25.81-25.81s25.81,11.56,25.81,25.81"/>
      <path class="cls-10" d="M774.3,935.07l-21.28-18.81c-1.89-1.67-4.85-1.19-6.11.99l-7.08,12.24c-1.35,2.33-.06,5.29,2.56,5.9l28.37,6.57c4.04.94,6.66-4.14,3.55-6.89Z"/>
      <path class="cls-10" d="M768.57,950.66l-28.75-4.01c-2.58-.36-4.81,1.8-4.53,4.39l1.5,13.76c.28,2.57,2.89,4.2,5.32,3.33l27.25-9.74c3.94-1.41,3.35-7.15-.79-7.73Z"/>
      <path class="cls-10" d="M893.26,936.45l21.28-18.81c1.89-1.67,4.85-1.19,6.11.99l7.08,12.24c1.35,2.33.06,5.29-2.56,5.9l-28.37,6.57c-4.04.94-6.66-4.14-3.55-6.89Z"/>
      <path class="cls-10" d="M899,952.04l28.75-4.01c2.58-.36,4.81,1.8,4.53,4.39l-1.5,13.76c-.28,2.57-2.89,4.2-5.32,3.33l-27.25-9.74c-3.94-1.41-3.35-7.15.79-7.73Z"/>
      <line class="cls-2" x1="680.58" y1="1451.23" x2="987.23" y2="1451.23"/>
      <line class="cls-2" x1="641.08" y1="1484.46" x2="1026.72" y2="1484.46"/>
      <path class="cls-8" d="M655.35,1441.47c0-80.63,79.94-146,178.56-146s178.56,65.37,178.56,146"/>
      <path class="cls-10" d="M774.94,1253.61l-18.75-21.33c-1.67-1.9-4.66-1.79-6.19.22l-8.56,11.26c-1.63,2.14-.72,5.24,1.8,6.17l27.32,10.08c3.89,1.44,7.13-3.28,4.39-6.39Z"/>
      <path class="cls-10" d="M767.3,1268.36l-28.02-7.59c-2.52-.68-5,1.19-5.04,3.79l-.24,13.83c-.04,2.59,2.34,4.53,4.86,3.98l28.26-6.25c4.08-.9,4.22-6.67.18-7.77Z"/>
      <path class="cls-10" d="M892.69,1255.72l18.24-21.77c1.62-1.94,4.61-1.9,6.19.07l8.83,11.05c1.68,2.1.85,5.23-1.65,6.22l-27.07,10.72c-3.86,1.53-7.2-3.11-4.54-6.29Z"/>
      <path class="cls-10" d="M900.68,1270.28l27.83-8.25c2.5-.74,5.03,1.07,5.13,3.67l.57,13.83c.11,2.58-2.23,4.59-4.77,4.09l-28.4-5.58c-4.1-.81-4.37-6.57-.37-7.76Z"/>
      <path class="cls-14" d="M805.17,1272.51c-9.73-10.46-.5-23.85,30.93-23.85,27.49,0,40.35,13.85,31.08,23.85"/>
      <line class="cls-2" x1="693.48" y1="781.87" x2="993.48" y2="781.87"/>
      <line class="cls-2" x1="652.98" y1="807.9" x2="1033.98" y2="807.9"/>
      <path class="cls-8" d="M664.93,773.29c0-80.63,79.94-146,178.56-146s178.56,65.37,178.56,146"/>
      <path class="cls-8" d="M817.67,607.78c0-14.26,11.56-25.81,25.81-25.81s25.81,11.56,25.81,25.81"/>
      <path class="cls-8" d="M768.33,599.46c-7.15-22.45,5.26-46.45,27.71-53.6"/>
      <path class="cls-8" d="M791.06,594.88c-3.32-10.41,2.44-21.54,12.85-24.86"/>
      <path class="cls-8" d="M922.46,599.46c7.15-22.45-5.26-46.45-27.71-53.6"/>
      <path class="cls-8" d="M899.74,594.88c3.32-10.41-2.44-21.54-12.85-24.86"/>
    </g>
  </g>
</svg>