<?xml version="1.0" encoding="UTF-8"?>
<svg xmlns="http://www.w3.org/2000/svg" xmlns:xlink="http://www.w3.org/1999/xlink" viewBox="0 0 1691.66 1691.66">
  <defs>
    <style>
      .cls-1 {
        clip-path: url(#clippath);
      }

      .cls-2 {
        fill: none;
      }

      .cls-2, .cls-3, .cls-4, .cls-5, .cls-6, .cls-7 {
        stroke-width: 0px;
      }

      .cls-3 {
        fill: #fafafa;
      }

      .cls-4 {
        fill: #2640b5;
      }

      .cls-8 {
        clip-path: url(#clippath-1);
      }

      .cls-9 {
        clip-path: url(#clippath-4);
      }

      .cls-10 {
        clip-path: url(#clippath-3);
      }

      .cls-11 {
        clip-path: url(#clippath-2);
      }

      .cls-12 {
        clip-path: url(#clippath-5);
      }

      .cls-5 {
        fill: #060518;
      }

      .cls-6 {
        fill: #192a73;
      }

      .cls-7 {
        fill: #069bb4;
      }
    </style>
    <clipPath id="clippath">
      <rect class="cls-2" x="184.94" y="187.41" width="686.18" height="202.79"/>
    </clipPath>
    <clipPath id="clippath-1">
      <rect class="cls-2" x="184.94" y="424.1" width="686.18" height="202.79"/>
    </clipPath>
    <clipPath id="clippath-2">
      <rect class="cls-2" x="184.94" y="1395.61" width="1411.31" height="202.79"/>
    </clipPath>
    <clipPath id="clippath-3">
      <rect class="cls-2" x="184.94" y="660.78" width="686.18" height="202.79"/>
    </clipPath>
    <clipPath id="clippath-4">
      <rect class="cls-2" x="184.94" y="897.47" width="686.18" height="202.79"/>
    </clipPath>
    <clipPath id="clippath-5">
      <rect class="cls-2" x="184.94" y="1134.16" width="686.18" height="202.79"/>
    </clipPath>
  </defs>
  <g id="Layer_28" data-name="Layer 28">
    <g class="cls-1">
      <g>
        <g>
          <path class="cls-7" d="M288.68,230.5c0-11.74,9.52-21.25,21.25-21.25s21.25,9.52,21.25,21.25c.76,2.77-41.88,2.84-42.51,0Z"/>
          <path class="cls-7" d="M400.16,358.63c5.52,2.98,11.19,6.08,14.39,10.24,3.21,4.15,3.3,9.67-1.73,12.99-11.41,7.53-156.39,4.8-188.03,3.61-6.34-.24-13.29-.71-17.73-3.63-5.03-3.32-4.94-8.84-1.73-12.99,3.21-4.15,8.87-7.26,14.39-10.24"/>
          <g>
            <path class="cls-7" d="M187.8,330.73c0-50.81,54.68-92,122.14-92s122.14,41.19,122.14,92-244.27,50.81-244.27,0Z"/>
            <path class="cls-7" d="M309.94,371.71c-32.25,0-62.34-3.42-84.73-9.63-26.34-7.31-40.27-18.14-40.27-31.34,0-25.5,13.11-49.41,36.91-67.34,23.56-17.75,54.84-27.52,88.09-27.52s64.52,9.77,88.09,27.52c23.8,17.93,36.91,41.85,36.91,67.34,0,13.2-13.92,24.04-40.27,31.34-22.39,6.21-52.49,9.63-84.73,9.63ZM309.94,241.6c-65.77,0-119.27,39.98-119.27,89.13,0,13.76,22.6,22.08,36.07,25.82,21.91,6.08,51.46,9.42,83.2,9.42s61.29-3.35,83.2-9.42c13.47-3.74,36.07-12.06,36.07-25.82,0-49.15-53.5-89.13-119.27-89.13Z"/>
          </g>
          <path class="cls-7" d="M355.29,194.6c3.37-6.24,10.47-8.93,15.85-6.02,5.38,2.91,7.01,10.32,3.64,16.56-3.37,6.24-21.84,17.1-21.84,17.1,0,0-1.02-21.4,2.35-27.64Z"/>
          <path class="cls-7" d="M383.15,218.65c7.03-.93,13.37,3.24,14.17,9.31s-4.25,11.73-11.28,12.66c-7.03.93-26.66-7.66-26.66-7.66,0,0,16.74-13.38,23.77-14.3Z"/>
          <path class="cls-7" d="M261.87,194.6c-3.37-6.24-10.47-8.93-15.85-6.02-5.38,2.91-7.01,10.32-3.64,16.56,3.37,6.24,21.84,17.1,21.84,17.1,0,0,1.02-21.4-2.35-27.64Z"/>
          <path class="cls-7" d="M234,218.65c-7.03-.93-13.37,3.24-14.17,9.31s4.25,11.73,11.28,12.66c7.03.93,26.66-7.66,26.66-7.66,0,0-16.74-13.38-23.77-14.3Z"/>
        </g>
        <g>
          <path class="cls-7" d="M578.68,230.5c0-11.74,9.52-21.25,21.25-21.25s21.25,9.52,21.25,21.25c.76,2.77-41.88,2.84-42.51,0Z"/>
          <path class="cls-7" d="M690.16,358.63c5.52,2.98,11.19,6.08,14.39,10.24,3.21,4.15,3.3,9.67-1.73,12.99-11.41,7.53-156.39,4.8-188.03,3.61-6.34-.24-13.29-.71-17.73-3.63-5.03-3.32-4.94-8.84-1.73-12.99,3.21-4.15,8.87-7.26,14.39-10.24"/>
          <g>
            <path class="cls-7" d="M477.8,330.73c0-50.81,54.68-92,122.14-92s122.14,41.19,122.14,92-244.27,50.81-244.27,0Z"/>
            <path class="cls-7" d="M599.94,371.71c-32.25,0-62.34-3.42-84.73-9.63-26.34-7.31-40.27-18.14-40.27-31.34,0-25.5,13.11-49.41,36.91-67.34,23.56-17.75,54.84-27.52,88.09-27.52s64.52,9.77,88.09,27.52c23.8,17.93,36.91,41.85,36.91,67.34,0,13.2-13.92,24.04-40.27,31.34-22.39,6.21-52.49,9.63-84.73,9.63ZM599.94,241.6c-65.77,0-119.27,39.98-119.27,89.13,0,13.76,22.6,22.08,36.07,25.82,21.91,6.08,51.46,9.42,83.2,9.42s61.29-3.35,83.2-9.42c13.47-3.74,36.07-12.06,36.07-25.82,0-49.15-53.5-89.13-119.27-89.13Z"/>
          </g>
          <path class="cls-7" d="M645.29,194.6c3.37-6.24,10.47-8.93,15.85-6.02,5.38,2.91,7.01,10.32,3.64,16.56-3.37,6.24-21.84,17.1-21.84,17.1,0,0-1.02-21.4,2.35-27.64Z"/>
          <path class="cls-7" d="M673.15,218.65c7.03-.93,13.37,3.24,14.17,9.31s-4.25,11.73-11.28,12.66c-7.03.93-26.66-7.66-26.66-7.66,0,0,16.74-13.38,23.77-14.3Z"/>
          <path class="cls-7" d="M551.87,194.6c-3.37-6.24-10.47-8.93-15.85-6.02-5.38,2.91-7.01,10.32-3.64,16.56,3.37,6.24,21.84,17.1,21.84,17.1,0,0,1.02-21.4-2.35-27.64Z"/>
          <path class="cls-7" d="M524,218.65c-7.03-.93-13.37,3.24-14.17,9.31s4.25,11.73,11.28,12.66c7.03.93,26.66-7.66,26.66-7.66,0,0-16.74-13.38-23.77-14.3Z"/>
        </g>
        <g>
          <path class="cls-7" d="M868.68,230.5c0-11.74,9.52-21.25,21.25-21.25s21.25,9.52,21.25,21.25c.76,2.77-41.88,2.84-42.51,0Z"/>
          <path class="cls-7" d="M980.16,358.63c5.52,2.98,11.19,6.08,14.39,10.24,3.21,4.15,3.3,9.67-1.73,12.99-11.41,7.53-156.39,4.8-188.03,3.61-6.34-.24-13.29-.71-17.73-3.63-5.03-3.32-4.94-8.84-1.73-12.99,3.21-4.15,8.87-7.26,14.39-10.24"/>
          <g>
            <path class="cls-7" d="M767.8,330.73c0-50.81,54.68-92,122.14-92s122.14,41.19,122.14,92-244.27,50.81-244.27,0Z"/>
            <path class="cls-7" d="M889.94,371.71c-32.25,0-62.34-3.42-84.73-9.63-26.34-7.31-40.27-18.14-40.27-31.34,0-25.5,13.11-49.41,36.91-67.34,23.56-17.75,54.84-27.52,88.09-27.52s64.52,9.77,88.09,27.52c23.8,17.93,36.91,41.85,36.91,67.34,0,13.2-13.92,24.04-40.27,31.34-22.39,6.21-52.49,9.63-84.73,9.63ZM889.94,241.6c-65.77,0-119.27,39.98-119.27,89.13,0,13.76,22.6,22.08,36.07,25.82,21.91,6.08,51.46,9.42,83.2,9.42s61.29-3.35,83.2-9.42c13.47-3.74,36.07-12.06,36.07-25.82,0-49.15-53.5-89.13-119.27-89.13Z"/>
          </g>
          <path class="cls-7" d="M935.29,194.6c3.37-6.24,10.47-8.93,15.85-6.02,5.38,2.91,7.01,10.32,3.64,16.56-3.37,6.24-21.84,17.1-21.84,17.1,0,0-1.02-21.4,2.35-27.64Z"/>
          <path class="cls-7" d="M963.15,218.65c7.03-.93,13.37,3.24,14.17,9.31s-4.25,11.73-11.28,12.66c-7.03.93-26.66-7.66-26.66-7.66,0,0,16.74-13.38,23.77-14.3Z"/>
          <path class="cls-7" d="M841.87,194.6c-3.37-6.24-10.47-8.93-15.85-6.02-5.38,2.91-7.01,10.32-3.64,16.56,3.37,6.24,21.84,17.1,21.84,17.1,0,0,1.02-21.4-2.35-27.64Z"/>
          <path class="cls-7" d="M814,218.65c-7.03-.93-13.37,3.24-14.17,9.31s4.25,11.73,11.28,12.66c7.03.93,26.66-7.66,26.66-7.66,0,0-16.74-13.38-23.77-14.3Z"/>
        </g>
      </g>
    </g>
  </g>
  <g id="Layer_35" data-name="Layer 35">
    <g class="cls-8">
      <g>
        <g>
          <path class="cls-4" d="M288.68,467.18c0-11.74,9.52-21.25,21.25-21.25s21.25,9.52,21.25,21.25c.76,2.77-41.88,2.84-42.51,0Z"/>
          <path class="cls-4" d="M400.16,595.32c5.52,2.98,11.19,6.08,14.39,10.24,3.21,4.15,3.3,9.67-1.73,12.99-11.41,7.53-156.39,4.8-188.03,3.61-6.34-.24-13.29-.71-17.73-3.63-5.03-3.32-4.94-8.84-1.73-12.99,3.21-4.15,8.87-7.26,14.39-10.24"/>
          <g>
            <path class="cls-4" d="M187.8,567.42c0-50.81,54.68-92,122.14-92s122.14,41.19,122.14,92-244.27,50.81-244.27,0Z"/>
            <path class="cls-4" d="M309.94,608.39c-32.25,0-62.34-3.42-84.73-9.63-26.34-7.31-40.27-18.14-40.27-31.34,0-25.5,13.11-49.41,36.91-67.34,23.56-17.75,54.84-27.52,88.09-27.52s64.52,9.77,88.09,27.52c23.8,17.93,36.91,41.85,36.91,67.34,0,13.2-13.92,24.04-40.27,31.34-22.39,6.21-52.49,9.63-84.73,9.63ZM309.94,478.29c-65.77,0-119.27,39.98-119.27,89.13,0,13.76,22.6,22.08,36.07,25.82,21.91,6.08,51.46,9.42,83.2,9.42s61.29-3.35,83.2-9.42c13.47-3.74,36.07-12.06,36.07-25.82,0-49.15-53.5-89.13-119.27-89.13Z"/>
          </g>
          <path class="cls-4" d="M355.29,431.29c3.37-6.24,10.47-8.93,15.85-6.02,5.38,2.91,7.01,10.32,3.64,16.56-3.37,6.24-21.84,17.1-21.84,17.1,0,0-1.02-21.4,2.35-27.64Z"/>
          <path class="cls-4" d="M383.15,455.34c7.03-.93,13.37,3.24,14.17,9.31.8,6.06-4.25,11.73-11.28,12.66-7.03.93-26.66-7.66-26.66-7.66,0,0,16.74-13.38,23.77-14.3Z"/>
          <path class="cls-4" d="M261.87,431.29c-3.37-6.24-10.47-8.93-15.85-6.02-5.38,2.91-7.01,10.32-3.64,16.56,3.37,6.24,21.84,17.1,21.84,17.1,0,0,1.02-21.4-2.35-27.64Z"/>
          <path class="cls-4" d="M234,455.34c-7.03-.93-13.37,3.24-14.17,9.31-.8,6.06,4.25,11.73,11.28,12.66,7.03.93,26.66-7.66,26.66-7.66,0,0-16.74-13.38-23.77-14.3Z"/>
        </g>
        <g>
          <path class="cls-4" d="M578.68,467.18c0-11.74,9.52-21.25,21.25-21.25s21.25,9.52,21.25,21.25c.76,2.77-41.88,2.84-42.51,0Z"/>
          <path class="cls-4" d="M690.16,595.32c5.52,2.98,11.19,6.08,14.39,10.24,3.21,4.15,3.3,9.67-1.73,12.99-11.41,7.53-156.39,4.8-188.03,3.61-6.34-.24-13.29-.71-17.73-3.63-5.03-3.32-4.94-8.84-1.73-12.99,3.21-4.15,8.87-7.26,14.39-10.24"/>
          <g>
            <path class="cls-4" d="M477.8,567.42c0-50.81,54.68-92,122.14-92s122.14,41.19,122.14,92-244.27,50.81-244.27,0Z"/>
            <path class="cls-4" d="M599.94,608.39c-32.25,0-62.34-3.42-84.73-9.63-26.34-7.31-40.27-18.14-40.27-31.34,0-25.5,13.11-49.41,36.91-67.34,23.56-17.75,54.84-27.52,88.09-27.52s64.52,9.77,88.09,27.52c23.8,17.93,36.91,41.85,36.91,67.34,0,13.2-13.92,24.04-40.27,31.34-22.39,6.21-52.49,9.63-84.73,9.63ZM599.94,478.29c-65.77,0-119.27,39.98-119.27,89.13,0,13.76,22.6,22.08,36.07,25.82,21.91,6.08,51.46,9.42,83.2,9.42s61.29-3.35,83.2-9.42c13.47-3.74,36.07-12.06,36.07-25.82,0-49.15-53.5-89.13-119.27-89.13Z"/>
          </g>
          <path class="cls-4" d="M645.29,431.29c3.37-6.24,10.47-8.93,15.85-6.02,5.38,2.91,7.01,10.32,3.64,16.56-3.37,6.24-21.84,17.1-21.84,17.1,0,0-1.02-21.4,2.35-27.64Z"/>
          <path class="cls-4" d="M673.15,455.34c7.03-.93,13.37,3.24,14.17,9.31.8,6.06-4.25,11.73-11.28,12.66-7.03.93-26.66-7.66-26.66-7.66,0,0,16.74-13.38,23.77-14.3Z"/>
          <path class="cls-4" d="M551.87,431.29c-3.37-6.24-10.47-8.93-15.85-6.02-5.38,2.91-7.01,10.32-3.64,16.56,3.37,6.24,21.84,17.1,21.84,17.1,0,0,1.02-21.4-2.35-27.64Z"/>
          <path class="cls-4" d="M524,455.34c-7.03-.93-13.37,3.24-14.17,9.31-.8,6.06,4.25,11.73,11.28,12.66,7.03.93,26.66-7.66,26.66-7.66,0,0-16.74-13.38-23.77-14.3Z"/>
        </g>
        <g>
          <path class="cls-4" d="M868.68,467.18c0-11.74,9.52-21.25,21.25-21.25s21.25,9.52,21.25,21.25c.76,2.77-41.88,2.84-42.51,0Z"/>
          <path class="cls-4" d="M980.16,595.32c5.52,2.98,11.19,6.08,14.39,10.24,3.21,4.15,3.3,9.67-1.73,12.99-11.41,7.53-156.39,4.8-188.03,3.61-6.34-.24-13.29-.71-17.73-3.63-5.03-3.32-4.94-8.84-1.73-12.99,3.21-4.15,8.87-7.26,14.39-10.24"/>
          <g>
            <path class="cls-4" d="M767.8,567.42c0-50.81,54.68-92,122.14-92s122.14,41.19,122.14,92-244.27,50.81-244.27,0Z"/>
            <path class="cls-4" d="M889.94,608.39c-32.25,0-62.34-3.42-84.73-9.63-26.34-7.31-40.27-18.14-40.27-31.34,0-25.5,13.11-49.41,36.91-67.34,23.56-17.75,54.84-27.52,88.09-27.52s64.52,9.77,88.09,27.52c23.8,17.93,36.91,41.85,36.91,67.34,0,13.2-13.92,24.04-40.27,31.34-22.39,6.21-52.49,9.63-84.73,9.63ZM889.94,478.29c-65.77,0-119.27,39.98-119.27,89.13,0,13.76,22.6,22.08,36.07,25.82,21.91,6.08,51.46,9.42,83.2,9.42s61.29-3.35,83.2-9.42c13.47-3.74,36.07-12.06,36.07-25.82,0-49.15-53.5-89.13-119.27-89.13Z"/>
          </g>
          <path class="cls-4" d="M935.29,431.29c3.37-6.24,10.47-8.93,15.85-6.02,5.38,2.91,7.01,10.32,3.64,16.56-3.37,6.24-21.84,17.1-21.84,17.1,0,0-1.02-21.4,2.35-27.64Z"/>
          <path class="cls-4" d="M963.15,455.34c7.03-.93,13.37,3.24,14.17,9.31.8,6.06-4.25,11.73-11.28,12.66-7.03.93-26.66-7.66-26.66-7.66,0,0,16.74-13.38,23.77-14.3Z"/>
          <path class="cls-4" d="M841.87,431.29c-3.37-6.24-10.47-8.93-15.85-6.02-5.38,2.91-7.01,10.32-3.64,16.56,3.37,6.24,21.84,17.1,21.84,17.1,0,0,1.02-21.4-2.35-27.64Z"/>
          <path class="cls-4" d="M814,455.34c-7.03-.93-13.37,3.24-14.17,9.31-.8,6.06,4.25,11.73,11.28,12.66,7.03.93,26.66-7.66,26.66-7.66,0,0-16.74-13.38-23.77-14.3Z"/>
        </g>
      </g>
    </g>
  </g>
  <g id="Layer_47" data-name="Layer 47">
    <g class="cls-11">
      <g>
        <g>
          <path class="cls-4" d="M288.68,1438.7c0-11.74,9.52-21.25,21.25-21.25s21.25,9.52,21.25,21.25c.76,2.77-41.88,2.84-42.51,0Z"/>
          <path class="cls-4" d="M400.16,1566.84c5.52,2.98,11.19,6.08,14.39,10.24,3.21,4.15,3.3,9.67-1.73,12.99-11.41,7.53-156.39,4.8-188.03,3.61-6.34-.24-13.29-.71-17.73-3.63-5.03-3.32-4.94-8.84-1.73-12.99,3.21-4.15,8.87-7.26,14.39-10.24"/>
          <g>
            <path class="cls-4" d="M187.8,1538.94c0-50.81,54.68-92,122.14-92s122.14,41.19,122.14,92-244.27,50.81-244.27,0Z"/>
            <path class="cls-4" d="M309.94,1579.91c-32.25,0-62.34-3.42-84.73-9.63-26.34-7.31-40.27-18.14-40.27-31.34,0-25.5,13.11-49.41,36.91-67.34,23.56-17.75,54.84-27.52,88.09-27.52s64.52,9.77,88.09,27.52c23.8,17.93,36.91,41.85,36.91,67.34,0,13.2-13.92,24.04-40.27,31.34-22.39,6.21-52.49,9.63-84.73,9.63ZM309.94,1449.81c-65.77,0-119.27,39.98-119.27,89.13,0,13.76,22.6,22.08,36.07,25.82,21.91,6.08,51.46,9.42,83.2,9.42s61.29-3.35,83.2-9.42c13.47-3.74,36.07-12.06,36.07-25.82,0-49.15-53.5-89.13-119.27-89.13Z"/>
          </g>
          <path class="cls-4" d="M355.29,1402.81c3.37-6.24,10.47-8.93,15.85-6.02,5.38,2.91,7.01,10.32,3.64,16.56-3.37,6.24-21.84,17.1-21.84,17.1,0,0-1.02-21.4,2.35-27.64Z"/>
          <path class="cls-4" d="M383.15,1426.86c7.03-.93,13.37,3.24,14.17,9.31.8,6.06-4.25,11.73-11.28,12.66-7.03.93-26.66-7.66-26.66-7.66,0,0,16.74-13.38,23.77-14.3Z"/>
          <path class="cls-4" d="M261.87,1402.81c-3.37-6.24-10.47-8.93-15.85-6.02-5.38,2.91-7.01,10.32-3.64,16.56,3.37,6.24,21.84,17.1,21.84,17.1,0,0,1.02-21.4-2.35-27.64Z"/>
          <path class="cls-4" d="M234,1426.86c-7.03-.93-13.37,3.24-14.17,9.31-.8,6.06,4.25,11.73,11.28,12.66,7.03.93,26.66-7.66,26.66-7.66,0,0-16.74-13.38-23.77-14.3Z"/>
        </g>
        <g>
          <path class="cls-4" d="M578.68,1438.7c0-11.74,9.52-21.25,21.25-21.25s21.25,9.52,21.25,21.25c.76,2.77-41.88,2.84-42.51,0Z"/>
          <path class="cls-4" d="M690.16,1566.84c5.52,2.98,11.19,6.08,14.39,10.24,3.21,4.15,3.3,9.67-1.73,12.99-11.41,7.53-156.39,4.8-188.03,3.61-6.34-.24-13.29-.71-17.73-3.63-5.03-3.32-4.94-8.84-1.73-12.99,3.21-4.15,8.87-7.26,14.39-10.24"/>
          <g>
            <path class="cls-4" d="M477.8,1538.94c0-50.81,54.68-92,122.14-92s122.14,41.19,122.14,92-244.27,50.81-244.27,0Z"/>
            <path class="cls-4" d="M599.94,1579.91c-32.25,0-62.34-3.42-84.73-9.63-26.34-7.31-40.27-18.14-40.27-31.34,0-25.5,13.11-49.41,36.91-67.34,23.56-17.75,54.84-27.52,88.09-27.52s64.52,9.77,88.09,27.52c23.8,17.93,36.91,41.85,36.91,67.34,0,13.2-13.92,24.04-40.27,31.34-22.39,6.21-52.49,9.63-84.73,9.63ZM599.94,1449.81c-65.77,0-119.27,39.98-119.27,89.13,0,13.76,22.6,22.08,36.07,25.82,21.91,6.08,51.46,9.42,83.2,9.42s61.29-3.35,83.2-9.42c13.47-3.74,36.07-12.06,36.07-25.82,0-49.15-53.5-89.13-119.27-89.13Z"/>
          </g>
          <path class="cls-4" d="M645.29,1402.81c3.37-6.24,10.47-8.93,15.85-6.02,5.38,2.91,7.01,10.32,3.64,16.56-3.37,6.24-21.84,17.1-21.84,17.1,0,0-1.02-21.4,2.35-27.64Z"/>
          <path class="cls-4" d="M673.15,1426.86c7.03-.93,13.37,3.24,14.17,9.31.8,6.06-4.25,11.73-11.28,12.66-7.03.93-26.66-7.66-26.66-7.66,0,0,16.74-13.38,23.77-14.3Z"/>
          <path class="cls-4" d="M551.87,1402.81c-3.37-6.24-10.47-8.93-15.85-6.02-5.38,2.91-7.01,10.32-3.64,16.56,3.37,6.24,21.84,17.1,21.84,17.1,0,0,1.02-21.4-2.35-27.64Z"/>
          <path class="cls-4" d="M524,1426.86c-7.03-.93-13.37,3.24-14.17,9.31-.8,6.06,4.25,11.73,11.28,12.66,7.03.93,26.66-7.66,26.66-7.66,0,0-16.74-13.38-23.77-14.3Z"/>
        </g>
        <g>
          <path class="cls-4" d="M868.68,1438.7c0-11.74,9.52-21.25,21.25-21.25s21.25,9.52,21.25,21.25c.76,2.77-41.88,2.84-42.51,0Z"/>
          <path class="cls-4" d="M980.16,1566.84c5.52,2.98,11.19,6.08,14.39,10.24,3.21,4.15,3.3,9.67-1.73,12.99-11.41,7.53-156.39,4.8-188.03,3.61-6.34-.24-13.29-.71-17.73-3.63-5.03-3.32-4.94-8.84-1.73-12.99,3.21-4.15,8.87-7.26,14.39-10.24"/>
          <g>
            <path class="cls-4" d="M767.8,1538.94c0-50.81,54.68-92,122.14-92s122.14,41.19,122.14,92-244.27,50.81-244.27,0Z"/>
            <path class="cls-4" d="M889.94,1579.91c-32.25,0-62.34-3.42-84.73-9.63-26.34-7.31-40.27-18.14-40.27-31.34,0-25.5,13.11-49.41,36.91-67.34,23.56-17.75,54.84-27.52,88.09-27.52s64.52,9.77,88.09,27.52c23.8,17.93,36.91,41.85,36.91,67.34,0,13.2-13.92,24.04-40.27,31.34-22.39,6.21-52.49,9.63-84.73,9.63ZM889.94,1449.81c-65.77,0-119.27,39.98-119.27,89.13,0,13.76,22.6,22.08,36.07,25.82,21.91,6.08,51.46,9.42,83.2,9.42s61.29-3.35,83.2-9.42c13.47-3.74,36.07-12.06,36.07-25.82,0-49.15-53.5-89.13-119.27-89.13Z"/>
          </g>
          <path class="cls-4" d="M935.29,1402.81c3.37-6.24,10.47-8.93,15.85-6.02,5.38,2.91,7.01,10.32,3.64,16.56-3.37,6.24-21.84,17.1-21.84,17.1,0,0-1.02-21.4,2.35-27.64Z"/>
          <path class="cls-4" d="M963.15,1426.86c7.03-.93,13.37,3.24,14.17,9.31.8,6.06-4.25,11.73-11.28,12.66-7.03.93-26.66-7.66-26.66-7.66,0,0,16.74-13.38,23.77-14.3Z"/>
          <path class="cls-4" d="M841.87,1402.81c-3.37-6.24-10.47-8.93-15.85-6.02-5.38,2.91-7.01,10.32-3.64,16.56,3.37,6.24,21.84,17.1,21.84,17.1,0,0,1.02-21.4-2.35-27.64Z"/>
          <path class="cls-4" d="M814,1426.86c-7.03-.93-13.37,3.24-14.17,9.31-.8,6.06,4.25,11.73,11.28,12.66,7.03.93,26.66-7.66,26.66-7.66,0,0-16.74-13.38-23.77-14.3Z"/>
        </g>
        <g>
          <path class="cls-4" d="M1158.68,1438.7c0-11.74,9.52-21.25,21.25-21.25s21.25,9.52,21.25,21.25c.76,2.77-41.88,2.84-42.51,0Z"/>
          <path class="cls-4" d="M1270.16,1566.84c5.52,2.98,11.19,6.08,14.39,10.24,3.21,4.15,3.3,9.67-1.73,12.99-11.41,7.53-156.39,4.8-188.03,3.61-6.34-.24-13.29-.71-17.73-3.63-5.03-3.32-4.94-8.84-1.73-12.99,3.21-4.15,8.87-7.26,14.39-10.24"/>
          <g>
            <path class="cls-4" d="M1057.8,1538.94c0-50.81,54.68-92,122.14-92s122.14,41.19,122.14,92-244.27,50.81-244.27,0Z"/>
            <path class="cls-4" d="M1179.94,1579.91c-32.25,0-62.34-3.42-84.73-9.63-26.34-7.31-40.27-18.14-40.27-31.34,0-25.5,13.11-49.41,36.91-67.34,23.56-17.75,54.84-27.52,88.09-27.52s64.52,9.77,88.09,27.52c23.8,17.93,36.91,41.85,36.91,67.34,0,13.2-13.92,24.04-40.27,31.34-22.39,6.21-52.49,9.63-84.73,9.63ZM1179.94,1449.81c-65.77,0-119.27,39.98-119.27,89.13,0,13.76,22.6,22.08,36.07,25.82,21.91,6.08,51.46,9.42,83.2,9.42s61.29-3.35,83.2-9.42c13.47-3.74,36.07-12.06,36.07-25.82,0-49.15-53.5-89.13-119.27-89.13Z"/>
          </g>
          <path class="cls-4" d="M1225.29,1402.81c3.37-6.24,10.47-8.93,15.85-6.02,5.38,2.91,7.01,10.32,3.64,16.56-3.37,6.24-21.84,17.1-21.84,17.1,0,0-1.02-21.4,2.35-27.64Z"/>
          <path class="cls-4" d="M1253.15,1426.86c7.03-.93,13.37,3.24,14.17,9.31.8,6.06-4.25,11.73-11.28,12.66-7.03.93-26.66-7.66-26.66-7.66,0,0,16.74-13.38,23.77-14.3Z"/>
          <path class="cls-4" d="M1131.87,1402.81c-3.37-6.24-10.47-8.93-15.85-6.02-5.38,2.91-7.01,10.32-3.64,16.56,3.37,6.24,21.84,17.1,21.84,17.1,0,0,1.02-21.4-2.35-27.64Z"/>
          <path class="cls-4" d="M1104,1426.86c-7.03-.93-13.37,3.24-14.17,9.31-.8,6.06,4.25,11.73,11.28,12.66,7.03.93,26.66-7.66,26.66-7.66,0,0-16.74-13.38-23.77-14.3Z"/>
        </g>
        <g>
          <path class="cls-4" d="M1448.68,1438.7c0-11.74,9.52-21.25,21.25-21.25s21.25,9.52,21.25,21.25c.76,2.77-41.88,2.84-42.51,0Z"/>
          <path class="cls-4" d="M1560.16,1566.84c5.52,2.98,11.19,6.08,14.39,10.24,3.21,4.15,3.3,9.67-1.73,12.99-11.41,7.53-156.39,4.8-188.03,3.61-6.34-.24-13.29-.71-17.73-3.63-5.03-3.32-4.94-8.84-1.73-12.99,3.21-4.15,8.87-7.26,14.39-10.24"/>
          <g>
            <path class="cls-4" d="M1347.8,1538.94c0-50.81,54.68-92,122.14-92s122.14,41.19,122.14,92-244.27,50.81-244.27,0Z"/>
            <path class="cls-4" d="M1469.94,1579.91c-32.25,0-62.34-3.42-84.73-9.63-26.34-7.31-40.27-18.14-40.27-31.34,0-25.5,13.11-49.41,36.91-67.34,23.56-17.75,54.84-27.52,88.09-27.52s64.52,9.77,88.09,27.52c23.8,17.93,36.91,41.85,36.91,67.34,0,13.2-13.92,24.04-40.27,31.34-22.39,6.21-52.49,9.63-84.73,9.63ZM1469.94,1449.81c-65.77,0-119.27,39.98-119.27,89.13,0,13.76,22.6,22.08,36.07,25.82,21.91,6.08,51.46,9.42,83.2,9.42s61.29-3.35,83.2-9.42c13.47-3.74,36.07-12.06,36.07-25.82,0-49.15-53.5-89.13-119.27-89.13Z"/>
          </g>
          <path class="cls-4" d="M1515.29,1402.81c3.37-6.24,10.47-8.93,15.85-6.02,5.38,2.91,7.01,10.32,3.64,16.56-3.37,6.24-21.84,17.1-21.84,17.1,0,0-1.02-21.4,2.35-27.64Z"/>
          <path class="cls-4" d="M1543.15,1426.86c7.03-.93,13.37,3.24,14.17,9.31.8,6.06-4.25,11.73-11.28,12.66-7.03.93-26.66-7.66-26.66-7.66,0,0,16.74-13.38,23.77-14.3Z"/>
          <path class="cls-4" d="M1421.87,1402.81c-3.37-6.24-10.47-8.93-15.85-6.02-5.38,2.91-7.01,10.32-3.64,16.56,3.37,6.24,21.84,17.1,21.84,17.1,0,0,1.02-21.4-2.35-27.64Z"/>
          <path class="cls-4" d="M1394,1426.86c-7.03-.93-13.37,3.24-14.17,9.31-.8,6.06,4.25,11.73,11.28,12.66,7.03.93,26.66-7.66,26.66-7.66,0,0-16.74-13.38-23.77-14.3Z"/>
        </g>
      </g>
    </g>
  </g>
  <g id="Layer_36" data-name="Layer 36">
    <g class="cls-10">
      <g>
        <g id="_Grid_Repeat_" data-name="&amp;lt;Grid Repeat&amp;gt;">
          <path class="cls-6" d="M288.68,703.87c0-11.74,9.52-21.25,21.25-21.25s21.25,9.52,21.25,21.25c.76,2.77-41.88,2.84-42.51,0Z"/>
          <path class="cls-6" d="M400.16,832.01c5.52,2.98,11.19,6.08,14.39,10.24,3.21,4.15,3.3,9.67-1.73,12.99-11.41,7.53-156.39,4.8-188.03,3.61-6.34-.24-13.29-.71-17.73-3.63-5.03-3.32-4.94-8.84-1.73-12.99s8.87-7.26,14.39-10.24"/>
          <g>
            <path class="cls-6" d="M187.8,804.11c0-50.81,54.68-92,122.14-92s122.14,41.19,122.14,92-244.27,50.81-244.27,0Z"/>
            <path class="cls-6" d="M309.94,845.08c-32.25,0-62.34-3.42-84.73-9.63-26.34-7.31-40.27-18.14-40.27-31.34,0-25.5,13.11-49.41,36.91-67.34,23.56-17.75,54.84-27.52,88.09-27.52s64.52,9.77,88.09,27.52c23.8,17.93,36.91,41.85,36.91,67.34,0,13.2-13.92,24.04-40.27,31.34-22.39,6.21-52.49,9.63-84.73,9.63ZM309.94,714.98c-65.77,0-119.27,39.98-119.27,89.13,0,13.76,22.6,22.08,36.07,25.82,21.91,6.08,51.46,9.42,83.2,9.42s61.29-3.35,83.2-9.42c13.47-3.74,36.07-12.06,36.07-25.82,0-49.15-53.5-89.13-119.27-89.13Z"/>
          </g>
          <path class="cls-6" d="M355.29,667.98c3.37-6.24,10.47-8.93,15.85-6.02,5.38,2.91,7.01,10.32,3.64,16.56-3.37,6.24-21.84,17.1-21.84,17.1,0,0-1.02-21.4,2.35-27.64Z"/>
          <path class="cls-6" d="M383.15,692.03c7.03-.93,13.37,3.24,14.17,9.31.8,6.06-4.25,11.73-11.28,12.66-7.03.93-26.66-7.66-26.66-7.66,0,0,16.74-13.38,23.77-14.3Z"/>
          <path class="cls-6" d="M261.87,667.98c-3.37-6.24-10.47-8.93-15.85-6.02-5.38,2.91-7.01,10.32-3.64,16.56,3.37,6.24,21.84,17.1,21.84,17.1,0,0,1.02-21.4-2.35-27.64Z"/>
          <path class="cls-6" d="M234,692.03c-7.03-.93-13.37,3.24-14.17,9.31-.8,6.06,4.25,11.73,11.28,12.66,7.03.93,26.66-7.66,26.66-7.66,0,0-16.74-13.38-23.77-14.3Z"/>
        </g>
        <g id="_Grid_Repeat_-2" data-name="&amp;lt;Grid Repeat&amp;gt;">
          <path class="cls-6" d="M578.68,703.87c0-11.74,9.52-21.25,21.25-21.25s21.25,9.52,21.25,21.25c.76,2.77-41.88,2.84-42.51,0Z"/>
          <path class="cls-6" d="M690.16,832.01c5.52,2.98,11.19,6.08,14.39,10.24,3.21,4.15,3.3,9.67-1.73,12.99-11.41,7.53-156.39,4.8-188.03,3.61-6.34-.24-13.29-.71-17.73-3.63-5.03-3.32-4.94-8.84-1.73-12.99s8.87-7.26,14.39-10.24"/>
          <g>
            <path class="cls-6" d="M477.8,804.11c0-50.81,54.68-92,122.14-92s122.14,41.19,122.14,92-244.27,50.81-244.27,0Z"/>
            <path class="cls-6" d="M599.94,845.08c-32.25,0-62.34-3.42-84.73-9.63-26.34-7.31-40.27-18.14-40.27-31.34,0-25.5,13.11-49.41,36.91-67.34,23.56-17.75,54.84-27.52,88.09-27.52s64.52,9.77,88.09,27.52c23.8,17.93,36.91,41.85,36.91,67.34,0,13.2-13.92,24.04-40.27,31.34-22.39,6.21-52.49,9.63-84.73,9.63ZM599.94,714.98c-65.77,0-119.27,39.98-119.27,89.13,0,13.76,22.6,22.08,36.07,25.82,21.91,6.08,51.46,9.42,83.2,9.42s61.29-3.35,83.2-9.42c13.47-3.74,36.07-12.06,36.07-25.82,0-49.15-53.5-89.13-119.27-89.13Z"/>
          </g>
          <path class="cls-6" d="M645.29,667.98c3.37-6.24,10.47-8.93,15.85-6.02,5.38,2.91,7.01,10.32,3.64,16.56-3.37,6.24-21.84,17.1-21.84,17.1,0,0-1.02-21.4,2.35-27.64Z"/>
          <path class="cls-6" d="M673.15,692.03c7.03-.93,13.37,3.24,14.17,9.31.8,6.06-4.25,11.73-11.28,12.66-7.03.93-26.66-7.66-26.66-7.66,0,0,16.74-13.38,23.77-14.3Z"/>
          <path class="cls-6" d="M551.87,667.98c-3.37-6.24-10.47-8.93-15.85-6.02-5.38,2.91-7.01,10.32-3.64,16.56,3.37,6.24,21.84,17.1,21.84,17.1,0,0,1.02-21.4-2.35-27.64Z"/>
          <path class="cls-6" d="M524,692.03c-7.03-.93-13.37,3.24-14.17,9.31-.8,6.06,4.25,11.73,11.28,12.66,7.03.93,26.66-7.66,26.66-7.66,0,0-16.74-13.38-23.77-14.3Z"/>
        </g>
        <g id="_Grid_Repeat_-3" data-name="&amp;lt;Grid Repeat&amp;gt;">
          <path class="cls-6" d="M868.68,703.87c0-11.74,9.52-21.25,21.25-21.25s21.25,9.52,21.25,21.25c.76,2.77-41.88,2.84-42.51,0Z"/>
          <path class="cls-6" d="M980.16,832.01c5.52,2.98,11.19,6.08,14.39,10.24,3.21,4.15,3.3,9.67-1.73,12.99-11.41,7.53-156.39,4.8-188.03,3.61-6.34-.24-13.29-.71-17.73-3.63-5.03-3.32-4.94-8.84-1.73-12.99s8.87-7.26,14.39-10.24"/>
          <g>
            <path class="cls-6" d="M767.8,804.11c0-50.81,54.68-92,122.14-92s122.14,41.19,122.14,92-244.27,50.81-244.27,0Z"/>
            <path class="cls-6" d="M889.94,845.08c-32.25,0-62.34-3.42-84.73-9.63-26.34-7.31-40.27-18.14-40.27-31.34,0-25.5,13.11-49.41,36.91-67.34,23.56-17.75,54.84-27.52,88.09-27.52s64.52,9.77,88.09,27.52c23.8,17.93,36.91,41.85,36.91,67.34,0,13.2-13.92,24.04-40.27,31.34-22.39,6.21-52.49,9.63-84.73,9.63ZM889.94,714.98c-65.77,0-119.27,39.98-119.27,89.13,0,13.76,22.6,22.08,36.07,25.82,21.91,6.08,51.46,9.42,83.2,9.42s61.29-3.35,83.2-9.42c13.47-3.74,36.07-12.06,36.07-25.82,0-49.15-53.5-89.13-119.27-89.13Z"/>
          </g>
          <path class="cls-6" d="M935.29,667.98c3.37-6.24,10.47-8.93,15.85-6.02,5.38,2.91,7.01,10.32,3.64,16.56-3.37,6.24-21.84,17.1-21.84,17.1,0,0-1.02-21.4,2.35-27.64Z"/>
          <path class="cls-6" d="M963.15,692.03c7.03-.93,13.37,3.24,14.17,9.31.8,6.06-4.25,11.73-11.28,12.66-7.03.93-26.66-7.66-26.66-7.66,0,0,16.74-13.38,23.77-14.3Z"/>
          <path class="cls-6" d="M841.87,667.98c-3.37-6.24-10.47-8.93-15.85-6.02-5.38,2.91-7.01,10.32-3.64,16.56,3.37,6.24,21.84,17.1,21.84,17.1,0,0,1.02-21.4-2.35-27.64Z"/>
          <path class="cls-6" d="M814,692.03c-7.03-.93-13.37,3.24-14.17,9.31-.8,6.06,4.25,11.73,11.28,12.66,7.03.93,26.66-7.66,26.66-7.66,0,0-16.74-13.38-23.77-14.3Z"/>
        </g>
      </g>
    </g>
  </g>
  <g id="Layer_37" data-name="Layer 37">
    <g class="cls-9">
      <g>
        <g>
          <path class="cls-3" d="M288.68,940.56c0-11.74,9.52-21.25,21.25-21.25s21.25,9.52,21.25,21.25c.76,2.77-41.88,2.84-42.51,0Z"/>
          <path class="cls-3" d="M400.16,1068.7c5.52,2.98,11.19,6.08,14.39,10.24,3.21,4.15,3.3,9.67-1.73,12.99-11.41,7.53-156.39,4.8-188.03,3.61-6.34-.24-13.29-.71-17.73-3.63-5.03-3.32-4.94-8.84-1.73-12.99,3.21-4.15,8.87-7.26,14.39-10.24"/>
          <g>
            <path class="cls-3" d="M187.8,1040.8c0-50.81,54.68-92,122.14-92s122.14,41.19,122.14,92-244.27,50.81-244.27,0Z"/>
            <path class="cls-3" d="M309.94,1081.77c-32.25,0-62.34-3.42-84.73-9.63-26.34-7.31-40.27-18.14-40.27-31.34,0-25.5,13.11-49.41,36.91-67.34,23.56-17.75,54.84-27.52,88.09-27.52s64.52,9.77,88.09,27.52c23.8,17.93,36.91,41.85,36.91,67.34,0,13.2-13.92,24.04-40.27,31.34-22.39,6.21-52.49,9.63-84.73,9.63ZM309.94,951.67c-65.77,0-119.27,39.98-119.27,89.13,0,13.76,22.6,22.08,36.07,25.82,21.91,6.08,51.46,9.42,83.2,9.42s61.29-3.35,83.2-9.42c13.47-3.74,36.07-12.06,36.07-25.82,0-49.15-53.5-89.13-119.27-89.13Z"/>
          </g>
          <path class="cls-3" d="M355.29,904.67c3.37-6.24,10.47-8.93,15.85-6.02,5.38,2.91,7.01,10.32,3.64,16.56-3.37,6.24-21.84,17.1-21.84,17.1,0,0-1.02-21.4,2.35-27.64Z"/>
          <path class="cls-3" d="M383.15,928.71c7.03-.93,13.37,3.24,14.17,9.31.8,6.06-4.25,11.73-11.28,12.66-7.03.93-26.66-7.66-26.66-7.66,0,0,16.74-13.38,23.77-14.3Z"/>
          <path class="cls-3" d="M261.87,904.67c-3.37-6.24-10.47-8.93-15.85-6.02-5.38,2.91-7.01,10.32-3.64,16.56,3.37,6.24,21.84,17.1,21.84,17.1,0,0,1.02-21.4-2.35-27.64Z"/>
          <path class="cls-3" d="M234,928.71c-7.03-.93-13.37,3.24-14.17,9.31-.8,6.06,4.25,11.73,11.28,12.66,7.03.93,26.66-7.66,26.66-7.66,0,0-16.74-13.38-23.77-14.3Z"/>
        </g>
        <g>
          <path class="cls-3" d="M578.68,940.56c0-11.74,9.52-21.25,21.25-21.25s21.25,9.52,21.25,21.25c.76,2.77-41.88,2.84-42.51,0Z"/>
          <path class="cls-3" d="M690.16,1068.7c5.52,2.98,11.19,6.08,14.39,10.24,3.21,4.15,3.3,9.67-1.73,12.99-11.41,7.53-156.39,4.8-188.03,3.61-6.34-.24-13.29-.71-17.73-3.63-5.03-3.32-4.94-8.84-1.73-12.99,3.21-4.15,8.87-7.26,14.39-10.24"/>
          <g>
            <path class="cls-3" d="M477.8,1040.8c0-50.81,54.68-92,122.14-92s122.14,41.19,122.14,92-244.27,50.81-244.27,0Z"/>
            <path class="cls-3" d="M599.94,1081.77c-32.25,0-62.34-3.42-84.73-9.63-26.34-7.31-40.27-18.14-40.27-31.34,0-25.5,13.11-49.41,36.91-67.34,23.56-17.75,54.84-27.52,88.09-27.52s64.52,9.77,88.09,27.52c23.8,17.93,36.91,41.85,36.91,67.34,0,13.2-13.92,24.04-40.27,31.34-22.39,6.21-52.49,9.63-84.73,9.63ZM599.94,951.67c-65.77,0-119.27,39.98-119.27,89.13,0,13.76,22.6,22.08,36.07,25.82,21.91,6.08,51.46,9.42,83.2,9.42s61.29-3.35,83.2-9.42c13.47-3.74,36.07-12.06,36.07-25.82,0-49.15-53.5-89.13-119.27-89.13Z"/>
          </g>
          <path class="cls-3" d="M645.29,904.67c3.37-6.24,10.47-8.93,15.85-6.02,5.38,2.91,7.01,10.32,3.64,16.56-3.37,6.24-21.84,17.1-21.84,17.1,0,0-1.02-21.4,2.35-27.64Z"/>
          <path class="cls-3" d="M673.15,928.71c7.03-.93,13.37,3.24,14.17,9.31.8,6.06-4.25,11.73-11.28,12.66-7.03.93-26.66-7.66-26.66-7.66,0,0,16.74-13.38,23.77-14.3Z"/>
          <path class="cls-3" d="M551.87,904.67c-3.37-6.24-10.47-8.93-15.85-6.02-5.38,2.91-7.01,10.32-3.64,16.56,3.37,6.24,21.84,17.1,21.84,17.1,0,0,1.02-21.4-2.35-27.64Z"/>
          <path class="cls-3" d="M524,928.71c-7.03-.93-13.37,3.24-14.17,9.31-.8,6.06,4.25,11.73,11.28,12.66,7.03.93,26.66-7.66,26.66-7.66,0,0-16.74-13.38-23.77-14.3Z"/>
        </g>
        <g>
          <path class="cls-3" d="M868.68,940.56c0-11.74,9.52-21.25,21.25-21.25s21.25,9.52,21.25,21.25c.76,2.77-41.88,2.84-42.51,0Z"/>
          <path class="cls-3" d="M980.16,1068.7c5.52,2.98,11.19,6.08,14.39,10.24,3.21,4.15,3.3,9.67-1.73,12.99-11.41,7.53-156.39,4.8-188.03,3.61-6.34-.24-13.29-.71-17.73-3.63-5.03-3.32-4.94-8.84-1.73-12.99,3.21-4.15,8.87-7.26,14.39-10.24"/>
          <g>
            <path class="cls-3" d="M767.8,1040.8c0-50.81,54.68-92,122.14-92s122.14,41.19,122.14,92-244.27,50.81-244.27,0Z"/>
            <path class="cls-3" d="M889.94,1081.77c-32.25,0-62.34-3.42-84.73-9.63-26.34-7.31-40.27-18.14-40.27-31.34,0-25.5,13.11-49.41,36.91-67.34,23.56-17.75,54.84-27.52,88.09-27.52s64.52,9.77,88.09,27.52c23.8,17.93,36.91,41.85,36.91,67.34,0,13.2-13.92,24.04-40.27,31.34-22.39,6.21-52.49,9.63-84.73,9.63ZM889.94,951.67c-65.77,0-119.27,39.98-119.27,89.13,0,13.76,22.6,22.08,36.07,25.82,21.91,6.08,51.46,9.42,83.2,9.42s61.29-3.35,83.2-9.42c13.47-3.74,36.07-12.06,36.07-25.82,0-49.15-53.5-89.13-119.27-89.13Z"/>
          </g>
          <path class="cls-3" d="M935.29,904.67c3.37-6.24,10.47-8.93,15.85-6.02,5.38,2.91,7.01,10.32,3.64,16.56-3.37,6.24-21.84,17.1-21.84,17.1,0,0-1.02-21.4,2.35-27.64Z"/>
          <path class="cls-3" d="M963.15,928.71c7.03-.93,13.37,3.24,14.17,9.31.8,6.06-4.25,11.73-11.28,12.66-7.03.93-26.66-7.66-26.66-7.66,0,0,16.74-13.38,23.77-14.3Z"/>
          <path class="cls-3" d="M841.87,904.67c-3.37-6.24-10.47-8.93-15.85-6.02-5.38,2.91-7.01,10.32-3.64,16.56,3.37,6.24,21.84,17.1,21.84,17.1,0,0,1.02-21.4-2.35-27.64Z"/>
          <path class="cls-3" d="M814,928.71c-7.03-.93-13.37,3.24-14.17,9.31-.8,6.06,4.25,11.73,11.28,12.66,7.03.93,26.66-7.66,26.66-7.66,0,0-16.74-13.38-23.77-14.3Z"/>
        </g>
      </g>
    </g>
  </g>
  <g id="Layer_38" data-name="Layer 38">
    <g class="cls-12">
      <g>
        <g>
          <path class="cls-5" d="M288.68,1177.25c0-11.74,9.52-21.25,21.25-21.25s21.25,9.52,21.25,21.25c.76,2.77-41.88,2.84-42.51,0Z"/>
          <path class="cls-5" d="M400.16,1305.39c5.52,2.98,11.19,6.08,14.39,10.24,3.21,4.15,3.3,9.67-1.73,12.99-11.41,7.53-156.39,4.8-188.03,3.61-6.34-.24-13.29-.71-17.73-3.63-5.03-3.32-4.94-8.84-1.73-12.99,3.21-4.15,8.87-7.26,14.39-10.24"/>
          <g>
            <path class="cls-5" d="M187.8,1277.49c0-50.81,54.68-92,122.14-92s122.14,41.19,122.14,92-244.27,50.81-244.27,0Z"/>
            <path class="cls-5" d="M309.94,1318.46c-32.25,0-62.34-3.42-84.73-9.63-26.34-7.31-40.27-18.14-40.27-31.34,0-25.5,13.11-49.41,36.91-67.34,23.56-17.75,54.84-27.52,88.09-27.52s64.52,9.77,88.09,27.52c23.8,17.93,36.91,41.85,36.91,67.34,0,13.2-13.92,24.04-40.27,31.34-22.39,6.21-52.49,9.63-84.73,9.63ZM309.94,1188.35c-65.77,0-119.27,39.98-119.27,89.13,0,13.76,22.6,22.08,36.07,25.82,21.91,6.08,51.46,9.42,83.2,9.42s61.29-3.35,83.2-9.42c13.47-3.74,36.07-12.06,36.07-25.82,0-49.15-53.5-89.13-119.27-89.13Z"/>
          </g>
          <path class="cls-5" d="M355.29,1141.35c3.37-6.24,10.47-8.93,15.85-6.02,5.38,2.91,7.01,10.32,3.64,16.56-3.37,6.24-21.84,17.1-21.84,17.1,0,0-1.02-21.4,2.35-27.64Z"/>
          <path class="cls-5" d="M383.15,1165.4c7.03-.93,13.37,3.24,14.17,9.31.8,6.06-4.25,11.73-11.28,12.66-7.03.93-26.66-7.66-26.66-7.66,0,0,16.74-13.38,23.77-14.3Z"/>
          <path class="cls-5" d="M261.87,1141.35c-3.37-6.24-10.47-8.93-15.85-6.02-5.38,2.91-7.01,10.32-3.64,16.56,3.37,6.24,21.84,17.1,21.84,17.1,0,0,1.02-21.4-2.35-27.64Z"/>
          <path class="cls-5" d="M234,1165.4c-7.03-.93-13.37,3.24-14.17,9.31-.8,6.06,4.25,11.73,11.28,12.66,7.03.93,26.66-7.66,26.66-7.66,0,0-16.74-13.38-23.77-14.3Z"/>
        </g>
        <g>
          <path class="cls-5" d="M578.68,1177.25c0-11.74,9.52-21.25,21.25-21.25s21.25,9.52,21.25,21.25c.76,2.77-41.88,2.84-42.51,0Z"/>
          <path class="cls-5" d="M690.16,1305.39c5.52,2.98,11.19,6.08,14.39,10.24,3.21,4.15,3.3,9.67-1.73,12.99-11.41,7.53-156.39,4.8-188.03,3.61-6.34-.24-13.29-.71-17.73-3.63-5.03-3.32-4.94-8.84-1.73-12.99,3.21-4.15,8.87-7.26,14.39-10.24"/>
          <g>
            <path class="cls-5" d="M477.8,1277.49c0-50.81,54.68-92,122.14-92s122.14,41.19,122.14,92-244.27,50.81-244.27,0Z"/>
            <path class="cls-5" d="M599.94,1318.46c-32.25,0-62.34-3.42-84.73-9.63-26.34-7.31-40.27-18.14-40.27-31.34,0-25.5,13.11-49.41,36.91-67.34,23.56-17.75,54.84-27.52,88.09-27.52s64.52,9.77,88.09,27.52c23.8,17.93,36.91,41.85,36.91,67.34,0,13.2-13.92,24.04-40.27,31.34-22.39,6.21-52.49,9.63-84.73,9.63ZM599.94,1188.35c-65.77,0-119.27,39.98-119.27,89.13,0,13.76,22.6,22.08,36.07,25.82,21.91,6.08,51.46,9.42,83.2,9.42s61.29-3.35,83.2-9.42c13.47-3.74,36.07-12.06,36.07-25.82,0-49.15-53.5-89.13-119.27-89.13Z"/>
          </g>
          <path class="cls-5" d="M645.29,1141.35c3.37-6.24,10.47-8.93,15.85-6.02,5.38,2.91,7.01,10.32,3.64,16.56-3.37,6.24-21.84,17.1-21.84,17.1,0,0-1.02-21.4,2.35-27.64Z"/>
          <path class="cls-5" d="M673.15,1165.4c7.03-.93,13.37,3.24,14.17,9.31.8,6.06-4.25,11.73-11.28,12.66-7.03.93-26.66-7.66-26.66-7.66,0,0,16.74-13.38,23.77-14.3Z"/>
          <path class="cls-5" d="M551.87,1141.35c-3.37-6.24-10.47-8.93-15.85-6.02-5.38,2.91-7.01,10.32-3.64,16.56,3.37,6.24,21.84,17.1,21.84,17.1,0,0,1.02-21.4-2.35-27.64Z"/>
          <path class="cls-5" d="M524,1165.4c-7.03-.93-13.37,3.24-14.17,9.31-.8,6.06,4.25,11.73,11.28,12.66,7.03.93,26.66-7.66,26.66-7.66,0,0-16.74-13.38-23.77-14.3Z"/>
        </g>
        <g>
          <path class="cls-5" d="M868.68,1177.25c0-11.74,9.52-21.25,21.25-21.25s21.25,9.52,21.25,21.25c.76,2.77-41.88,2.84-42.51,0Z"/>
          <path class="cls-5" d="M980.16,1305.39c5.52,2.98,11.19,6.08,14.39,10.24,3.21,4.15,3.3,9.67-1.73,12.99-11.41,7.53-156.39,4.8-188.03,3.61-6.34-.24-13.29-.71-17.73-3.63-5.03-3.32-4.94-8.84-1.73-12.99,3.21-4.15,8.87-7.26,14.39-10.24"/>
          <g>
            <path class="cls-5" d="M767.8,1277.49c0-50.81,54.68-92,122.14-92s122.14,41.19,122.14,92-244.27,50.81-244.27,0Z"/>
            <path class="cls-5" d="M889.94,1318.46c-32.25,0-62.34-3.42-84.73-9.63-26.34-7.31-40.27-18.14-40.27-31.34,0-25.5,13.11-49.41,36.91-67.34,23.56-17.75,54.84-27.52,88.09-27.52s64.52,9.77,88.09,27.52c23.8,17.93,36.91,41.85,36.91,67.34,0,13.2-13.92,24.04-40.27,31.34-22.39,6.21-52.49,9.63-84.73,9.63ZM889.94,1188.35c-65.77,0-119.27,39.98-119.27,89.13,0,13.76,22.6,22.08,36.07,25.82,21.91,6.08,51.46,9.42,83.2,9.42s61.29-3.35,83.2-9.42c13.47-3.74,36.07-12.06,36.07-25.82,0-49.15-53.5-89.13-119.27-89.13Z"/>
          </g>
          <path class="cls-5" d="M935.29,1141.35c3.37-6.24,10.47-8.93,15.85-6.02,5.38,2.91,7.01,10.32,3.64,16.56-3.37,6.24-21.84,17.1-21.84,17.1,0,0-1.02-21.4,2.35-27.64Z"/>
          <path class="cls-5" d="M963.15,1165.4c7.03-.93,13.37,3.24,14.17,9.31.8,6.06-4.25,11.73-11.28,12.66-7.03.93-26.66-7.66-26.66-7.66,0,0,16.74-13.38,23.77-14.3Z"/>
          <path class="cls-5" d="M841.87,1141.35c-3.37-6.24-10.47-8.93-15.85-6.02-5.38,2.91-7.01,10.32-3.64,16.56,3.37,6.24,21.84,17.1,21.84,17.1,0,0,1.02-21.4-2.35-27.64Z"/>
          <path class="cls-5" d="M814,1165.4c-7.03-.93-13.37,3.24-14.17,9.31-.8,6.06,4.25,11.73,11.28,12.66,7.03.93,26.66-7.66,26.66-7.66,0,0-16.74-13.38-23.77-14.3Z"/>
        </g>
      </g>
    </g>
  </g>
</svg>