<?xml version="1.0" encoding="UTF-8"?>
<svg xmlns="http://www.w3.org/2000/svg" xmlns:xlink="http://www.w3.org/1999/xlink" viewBox="0 0 735.08 735.08">
  <defs>
    <style>
      .cls-1, .cls-2, .cls-3, .cls-4 {
        stroke-linejoin: round;
      }

      .cls-1, .cls-2, .cls-3, .cls-4, .cls-5 {
        stroke: #393f59;
      }

      .cls-1, .cls-3, .cls-4 {
        stroke-width: 4px;
      }

      .cls-1, .cls-3, .cls-6 {
        fill: #393f59;
      }

      .cls-7 {
        clip-path: url(#clippath);
      }

      .cls-8, .cls-4, .cls-5 {
        fill: none;
      }

      .cls-8, .cls-6 {
        stroke-width: 0px;
      }

      .cls-2 {
        fill: #fff;
        stroke-width: 2px;
      }

      .cls-3, .cls-4 {
        stroke-linecap: round;
      }

      .cls-5 {
        stroke-miterlimit: 10;
        stroke-width: 8px;
      }
    </style>
    <clipPath id="clippath">
      <rect class="cls-8" x="479.01" y="334.81" width="74.98" height="24.45"/>
    </clipPath>
  </defs>
  <g id="Layer_32" data-name="Layer 32">
    <path class="cls-1" d="M386.23,311.12c6.04,10.46,2.46,23.85-8.01,29.89-10.46,6.04-23.85,2.46-29.89-8.01-6.04-10.46-2.46-23.85,8.01-29.89,10.47-6.04,23.85-2.46,29.89,8.01Z"/>
    <path class="cls-3" d="M389.13,347.04c-2.13,2.1-4.77,3.92-7.9,5.34-12.12,5.49-27.33,3.02-35.79-5.34-13.84,6.02-13.26,19.83-13.26,33.13,0,19.52,10.22,17.62,35.1,17.62s35.62,1.9,35.62-17.62c0-13.3.07-27.1-13.78-33.13"/>
  </g>
  <g id="Layer_33" data-name="Layer 33">
    <path class="cls-1" d="M502.49,302.01c-23.14,5.04-40.19,22.27-40.19,42.75,0,10.28,4.3,19.74,11.5,27.26-1.19,4.98,0,0,0,0l-5.14,21.53,27.65-8.99c35.53,6.69,74.37-6.11,74.37-39.8,0-24.43-24.26-44.24-54.19-44.24-4.84,0-9.54.52-14,1.49Z"/>
    <g class="cls-7">
      <g>
        <circle class="cls-2" cx="490.13" cy="345.94" r="10.12"/>
        <circle class="cls-2" cx="516.38" cy="345.94" r="10.12"/>
        <circle class="cls-2" cx="542.63" cy="345.94" r="10.12"/>
      </g>
    </g>
  </g>
  <g id="Layer_34" data-name="Layer 34">
    <path class="cls-5" d="M286.76,358.93c0,24.24-19.65,43.9-43.9,43.9s-43.9-19.65-43.9-43.9,19.65-43.9,43.9-43.9,43.9,19.65,43.9,43.9Z"/>
    <path class="cls-6" d="M254.65,345.62c-.33.55-1.08.69-1.56.27-.32-.28-.66-.54-1.04-.79-.75-.5-1.58-.93-2.47-1.29-.9-.37-1.88-.66-2.94-.88-1.06-.22-2.18-.33-3.35-.33-3.41,0-5.91.65-7.51,1.95-1.59,1.3-2.39,3.07-2.39,5.31,0,1.54.39,2.75,1.16,3.63.77.88,1.95,1.6,3.55,2.14,1.59.55,3.66,1.12,6.19,1.71,2.75.59,5.14,1.28,7.18,2.09,2.03.81,3.59,1.9,4.67,3.27,1.08,1.38,1.62,3.24,1.62,5.58,0,1.8-.34,3.36-1.02,4.68-.68,1.32-1.65,2.42-2.92,3.3-1.27.88-2.76,1.53-4.48,1.95-1.72.42-3.61.63-5.66.63s-3.9-.21-5.77-.63-3.62-1.05-5.25-1.87c-1.38-.7-2.7-1.55-3.96-2.58-.4-.33-.49-.91-.22-1.35l.78-1.27c.34-.55,1.08-.66,1.57-.24.49.42,1.02.82,1.6,1.21.97.64,2.05,1.22,3.24,1.73,1.19.51,2.47.91,3.85,1.18,1.38.27,2.8.41,4.26.41,3.12,0,5.55-.57,7.29-1.71,1.74-1.14,2.61-2.82,2.61-5.06,0-1.61-.43-2.91-1.29-3.88-.86-.97-2.17-1.77-3.93-2.39-1.76-.62-3.94-1.23-6.55-1.81-2.71-.62-5-1.32-6.85-2.09-1.85-.77-3.25-1.79-4.21-3.05-.95-1.27-1.43-2.94-1.43-5.03,0-2.42.6-4.46,1.79-6.13,1.19-1.67,2.84-2.93,4.95-3.8,2.11-.86,4.5-1.29,7.18-1.29,1.72,0,3.33.18,4.81.52,1.48.35,2.86.85,4.12,1.51,1.01.53,1.97,1.16,2.87,1.89.4.33.48.91.22,1.35l-.71,1.16Z"/>
    <line class="cls-4" x1="246.81" y1="335.87" x2="246.92" y2="382.68"/>
    <line class="cls-4" x1="239.13" y1="335.86" x2="239.24" y2="382.66"/>
  </g>
</svg>