<?xml version="1.0" encoding="UTF-8"?>
<svg id="Layer_27" data-name="Layer 27" xmlns="http://www.w3.org/2000/svg" viewBox="0 0 1740 1760">
  <defs>
    <style>
      .cls-1 {
        fill: none;
      }

      .cls-1, .cls-2, .cls-3 {
        stroke-width: 0px;
      }

      .cls-2 {
        fill: #2640b5;
      }

      .cls-3 {
        fill: #069bb4;
      }
    </style>
  </defs>
  <path class="cls-2" d="M388.9,1400.56v-268.57h89.7c79.08,0,126.42,50.36,126.42,133.89s-47.34,134.68-129.17,134.68h-86.95ZM473.61,1365.15c61.24,0,91.53-35.67,91.53-99.27s-30.29-98.49-89.04-98.49h-46.69v197.76h44.19Z"/>
  <rect class="cls-2" x="633.19" y="1131.98" width="40.52" height="268.57"/>
  <polygon class="cls-2" points="919.95 1400.56 882.7 1400.56 746.19 1203.59 743.7 1203.59 743.7 1400.56 703.17 1400.56 703.17 1131.98 740.68 1131.98 877.33 1329.22 879.82 1329.22 879.82 1131.98 919.95 1131.98 919.95 1400.56"/>
  <path class="cls-2" d="M1061.26,1165.29c-45.51,0-80.26,35.8-80.26,100.85s34.49,101.11,81.83,101.11c43.01,0,71.6-27.41,72.52-70.68h-66.36v-33.44h105.57v30.56c0,67.8-46.55,110.55-111.73,110.55-72.78,0-122.09-52.85-122.09-137.83s50.75-138.09,120.26-138.09c57.96,0,102.68,36.19,111.73,88.52h-41.57c-10.1-31.87-34.23-51.54-69.9-51.54"/>
  <polygon class="cls-3" points="1213.02 1228.12 1234.55 1219.87 1234.55 1406.15 1212.84 1406.15 1213.02 1228.12"/>
  <path class="cls-3" d="M1333.75,1238.66h-28v118.85c0,23.41,13.46,30.32,28.14,30.32,5.7,0,9.58-.85,12.61-1.7l4.61,19.53c-4.12,1.58-10.19,3.27-19.16,3.27-23.89,0-47.91-15.89-47.91-46.33v-123.95h-27.77v-18.8h27.77v-44.63h21.71v44.63h28v18.8Z"/>
  <path class="cls-2" d="M1232.28,1175c-3.07-5.68-9.53-8.13-14.43-5.48-4.9,2.65-6.38,9.4-3.31,15.07,3.07,5.68,19.88,15.57,19.88,15.57,0,0,.93-19.48-2.14-25.16Z"/>
  <path class="cls-2" d="M1206.91,1196.89c-6.4-.84-12.17,2.95-12.9,8.47-.73,5.52,3.87,10.68,10.27,11.52,6.4.84,24.27-6.98,24.27-6.98,0,0-15.24-12.18-21.64-13.02Z"/>
  <g>
    <path class="cls-2" d="M797.51,470.63c0-40.03,32.45-72.47,72.47-72.47s72.47,32.45,72.47,72.47c2.59,9.45-142.79,9.68-144.95,0Z"/>
    <path class="cls-2" d="M1177.62,907.55s38.14,20.75,49.07,34.91c10.93,14.16,11.25,32.98-5.9,44.3-38.92,25.68-533.25,16.37-641.12,12.31-21.63-.81-45.33-2.41-60.46-12.39-17.15-11.32-16.83-30.14-5.9-44.3,10.93-14.16,49.07-34.91,49.07-34.91,0,0,8.86-8.7,10.67-10.89,55.1,15.44,147.21,36,296.95,36,109.48,0,209.77-9.4,295.38-35.52,6.67,5.32,12.24,10.49,12.24,10.49Z"/>
    <g>
      <path class="cls-1" d="M453.55,812.42c0-173.24,186.45-313.69,416.45-313.69s416.45,140.44,416.45,313.69-832.89,173.24-832.89,0Z"/>
      <path class="cls-2" d="M870,952.12c-109.96,0-212.56-11.66-288.92-32.84-89.82-24.91-137.3-61.86-137.3-106.86,0-86.93,44.7-168.48,125.87-229.61,80.34-60.52,187.01-93.84,300.35-93.84s220.01,33.33,300.35,93.84c81.17,61.14,125.87,142.69,125.87,229.61,0,45-47.48,81.95-137.3,106.86-76.36,21.18-178.96,32.84-288.92,32.84ZM870,508.5c-224.24,0-406.68,136.34-406.68,303.92,0,46.92,77.05,75.3,122.98,88.04,74.7,20.72,175.46,32.13,283.7,32.13s208.99-11.41,283.7-32.13c45.93-12.74,122.98-41.11,122.98-88.04,0-167.58-182.43-303.92-406.68-303.92Z"/>
    </g>
    <path class="cls-2" d="M1024.62,348.24c11.5-21.26,35.69-30.46,54.04-20.54,18.35,9.92,23.9,35.2,12.41,56.46-11.5,21.26-74.46,58.31-74.46,58.31,0,0-3.48-72.98,8.02-94.24Z"/>
    <path class="cls-2" d="M1119.64,430.24c23.96-3.15,45.6,11.05,48.32,31.73,2.72,20.68-14.5,40-38.46,43.16-23.96,3.15-90.9-26.13-90.9-26.13,0,0,57.08-45.61,81.04-48.76Z"/>
    <path class="cls-2" d="M706.09,348.24c-11.5-21.26-35.69-30.46-54.04-20.54-18.35,9.92-23.9,35.2-12.41,56.46,11.5,21.26,74.46,58.31,74.46,58.31,0,0,3.48-72.98-8.02-94.24Z"/>
    <path class="cls-2" d="M611.07,430.24c-23.96-3.15-45.6,11.05-48.32,31.73-2.72,20.68,14.5,40,38.46,43.16,23.96,3.15,90.9-26.13,90.9-26.13,0,0-57.08-45.61-81.04-48.76Z"/>
  </g>
</svg>