<?xml version="1.0" encoding="UTF-8"?>
<svg xmlns="http://www.w3.org/2000/svg" viewBox="0 0 3532.57 1890.44">
  <defs>
    <style>
      .cls-1 {
        fill: #2640b5;
      }

      .cls-1, .cls-2, .cls-3 {
        stroke-width: 0px;
      }

      .cls-2 {
        fill: #069bb4;
      }

      .cls-3 {
        fill: #fafafa;
      }
    </style>
  </defs>
  <g id="Layer_40" data-name="Layer 40">
    <path class="cls-1" d="M326.3,152.97c0-20.49,16.61-37.09,37.09-37.09s37.09,16.61,37.09,37.09c1.33,4.84-73.08,4.95-74.19,0Z"/>
    <path class="cls-1" d="M520.85,376.6c9.63,5.2,19.52,10.62,25.12,17.87,5.59,7.25,5.76,16.88-3.02,22.67-19.92,13.14-272.93,8.38-328.14,6.3-11.07-.42-23.2-1.23-30.95-6.34-8.78-5.79-8.62-15.43-3.02-22.67,5.59-7.25,15.49-12.66,25.12-17.87"/>
    <g>
      <path class="cls-1" d="M150.25,327.91c0-88.67,95.43-160.55,213.15-160.55s213.15,71.88,213.15,160.55-426.3,88.67-426.3,0Z"/>
      <path class="cls-1" d="M363.4,399.41c-56.28,0-108.79-5.97-147.88-16.81-45.97-12.75-70.27-31.66-70.27-54.7,0-44.49,22.88-86.23,64.42-117.52,41.12-30.97,95.71-48.03,153.73-48.03s112.61,17.06,153.73,48.03c41.54,31.29,64.42,73.03,64.42,117.52,0,23.03-24.3,41.95-70.27,54.7-39.08,10.84-91.6,16.81-147.88,16.81ZM363.4,172.35c-114.77,0-208.15,69.78-208.15,155.55,0,24.02,39.44,38.54,62.95,45.06,38.24,10.6,89.8,16.44,145.2,16.44s106.97-5.84,145.2-16.44c23.51-6.52,62.95-21.04,62.95-45.06,0-85.77-93.38-155.55-208.15-155.55Z"/>
    </g>
    <path class="cls-1" d="M442.54,90.33c5.88-10.88,18.27-15.59,27.66-10.51,9.39,5.08,12.23,18.02,6.35,28.9-5.88,10.88-38.11,29.85-38.11,29.85,0,0-1.78-37.35,4.1-48.23Z"/>
    <path class="cls-1" d="M491.17,132.3c12.27-1.61,23.34,5.66,24.73,16.24,1.39,10.58-7.42,20.47-19.69,22.09s-46.52-13.37-46.52-13.37c0,0,29.21-23.34,41.48-24.96Z"/>
    <path class="cls-1" d="M279.51,90.33c-5.88-10.88-18.27-15.59-27.66-10.51-9.39,5.08-12.23,18.02-6.35,28.9,5.88,10.88,38.11,29.85,38.11,29.85,0,0,1.78-37.35-4.1-48.23Z"/>
    <path class="cls-1" d="M230.87,132.3c-12.27-1.61-23.34,5.66-24.73,16.24-1.39,10.58,7.42,20.47,19.69,22.09,12.27,1.61,46.52-13.37,46.52-13.37,0,0-29.21-23.34-41.48-24.96Z"/>
  </g>
  <g id="Layer_41" data-name="Layer 41">
    <path class="cls-3" d="M795.85,157.83c0-20.49,16.61-37.09,37.09-37.09s37.09,16.61,37.09,37.09c1.33,4.84-73.08,4.95-74.19,0Z"/>
    <path class="cls-3" d="M990.4,381.46c9.63,5.2,19.52,10.62,25.12,17.87,5.59,7.25,5.76,16.88-3.02,22.67-19.92,13.14-272.93,8.38-328.14,6.3-11.07-.42-23.2-1.23-30.95-6.34-8.78-5.79-8.62-15.43-3.02-22.67,5.59-7.25,15.49-12.66,25.12-17.87"/>
    <g>
      <path class="cls-3" d="M619.8,332.76c0-88.67,95.43-160.55,213.15-160.55s213.15,71.88,213.15,160.55-426.3,88.67-426.3,0Z"/>
      <path class="cls-3" d="M832.95,404.27c-56.28,0-108.79-5.97-147.88-16.81-45.97-12.75-70.27-31.66-70.27-54.7,0-44.49,22.88-86.23,64.42-117.52,41.12-30.97,95.71-48.03,153.73-48.03s112.61,17.06,153.73,48.03c41.54,31.29,64.42,73.03,64.42,117.52,0,23.03-24.3,41.95-70.27,54.7-39.08,10.84-91.6,16.81-147.88,16.81ZM832.95,177.21c-114.77,0-208.15,69.78-208.15,155.55,0,24.02,39.44,38.54,62.95,45.06,38.24,10.6,89.8,16.44,145.2,16.44s106.97-5.84,145.2-16.44c23.51-6.52,62.95-21.04,62.95-45.06,0-85.77-93.38-155.55-208.15-155.55Z"/>
    </g>
    <path class="cls-3" d="M912.09,95.19c5.88-10.88,18.27-15.59,27.66-10.51,9.39,5.08,12.23,18.02,6.35,28.9-5.88,10.88-38.11,29.85-38.11,29.85,0,0-1.78-37.35,4.1-48.23Z"/>
    <path class="cls-3" d="M960.72,137.15c12.27-1.61,23.34,5.66,24.73,16.24,1.39,10.58-7.42,20.47-19.69,22.09s-46.52-13.37-46.52-13.37c0,0,29.21-23.34,41.48-24.96Z"/>
    <path class="cls-3" d="M749.05,95.19c-5.88-10.88-18.27-15.59-27.66-10.51-9.39,5.08-12.23,18.02-6.35,28.9,5.88,10.88,38.11,29.85,38.11,29.85,0,0,1.78-37.35-4.1-48.23Z"/>
    <path class="cls-3" d="M700.42,137.15c-12.27-1.61-23.34,5.66-24.73,16.24-1.39,10.58,7.42,20.47,19.69,22.09,12.27,1.61,46.52-13.37,46.52-13.37,0,0-29.21-23.34-41.48-24.96Z"/>
  </g>
  <g id="Layer_42" data-name="Layer 42">
    <path class="cls-2" d="M1265.4,157.45c0-20.49,16.61-37.09,37.09-37.09s37.09,16.61,37.09,37.09c1.33,4.84-73.08,4.95-74.19,0Z"/>
    <path class="cls-2" d="M1459.95,381.08c9.63,5.2,19.52,10.62,25.12,17.87,5.59,7.25,5.76,16.88-3.02,22.67-19.92,13.14-272.93,8.38-328.14,6.3-11.07-.42-23.2-1.23-30.95-6.34-8.78-5.79-8.62-15.43-3.02-22.67,5.59-7.25,15.49-12.66,25.12-17.87"/>
    <g>
      <path class="cls-2" d="M1089.35,332.39c0-88.67,95.43-160.55,213.15-160.55s213.15,71.88,213.15,160.55-426.3,88.67-426.3,0Z"/>
      <path class="cls-2" d="M1302.5,403.89c-56.28,0-108.79-5.97-147.88-16.81-45.97-12.75-70.27-31.66-70.27-54.7,0-44.49,22.88-86.23,64.42-117.52,41.12-30.97,95.71-48.03,153.73-48.03s112.61,17.06,153.73,48.03c41.54,31.29,64.42,73.03,64.42,117.52,0,23.03-24.3,41.95-70.27,54.7-39.08,10.84-91.6,16.81-147.88,16.81ZM1302.5,176.83c-114.77,0-208.15,69.78-208.15,155.55,0,24.02,39.44,38.54,62.95,45.06,38.24,10.6,89.8,16.44,145.2,16.44s106.97-5.84,145.2-16.44c23.51-6.52,62.95-21.04,62.95-45.06,0-85.77-93.38-155.55-208.15-155.55Z"/>
    </g>
    <path class="cls-2" d="M1381.64,94.81c5.88-10.88,18.27-15.59,27.66-10.51,9.39,5.08,12.23,18.02,6.35,28.9-5.88,10.88-38.11,29.85-38.11,29.85,0,0-1.78-37.35,4.1-48.23Z"/>
    <path class="cls-2" d="M1430.27,136.78c12.27-1.61,23.34,5.66,24.73,16.24,1.39,10.58-7.42,20.47-19.69,22.09s-46.52-13.37-46.52-13.37c0,0,29.21-23.34,41.48-24.96Z"/>
    <path class="cls-2" d="M1218.6,94.81c-5.88-10.88-18.27-15.59-27.66-10.51-9.39,5.08-12.23,18.02-6.35,28.9,5.88,10.88,38.11,29.85,38.11,29.85,0,0,1.78-37.35-4.1-48.23Z"/>
    <path class="cls-2" d="M1169.97,136.78c-12.27-1.61-23.34,5.66-24.73,16.24-1.39,10.58,7.42,20.47,19.69,22.09,12.27,1.61,46.52-13.37,46.52-13.37,0,0-29.21-23.34-41.48-24.96Z"/>
  </g>
</svg>