<?xml version="1.0" encoding="UTF-8"?>
<svg id="Layer_45" data-name="Layer 45" xmlns="http://www.w3.org/2000/svg" viewBox="0 0 858.79 686.85">
  <defs>
    <style>
      .cls-1 {
        fill: none;
      }

      .cls-1, .cls-2 {
        stroke-width: 0px;
      }

      .cls-2 {
        fill: #069bb4;
      }
    </style>
  </defs>
  <path class="cls-2" d="M356.9,148.94c0-40.03,32.45-72.47,72.47-72.47s72.47,32.45,72.47,72.47c2.59,9.45-142.79,9.68-144.95,0Z"/>
  <path class="cls-2" d="M737.01,585.86s38.14,20.75,49.07,34.91c10.93,14.16,11.25,32.98-5.9,44.3-38.92,25.68-533.25,16.37-641.12,12.31-21.63-.81-45.33-2.41-60.46-12.39-17.15-11.32-16.83-30.14-5.9-44.3,10.93-14.16,49.07-34.91,49.07-34.91,0,0,8.86-8.7,10.67-10.89,55.1,15.44,147.21,36,296.95,36,109.48,0,209.77-9.4,295.38-35.52,6.67,5.32,12.24,10.49,12.24,10.49Z"/>
  <g>
    <path class="cls-1" d="M12.94,490.73c0-173.24,186.45-313.69,416.45-313.69s416.45,140.44,416.45,313.69S12.94,663.97,12.94,490.73Z"/>
    <path class="cls-2" d="M429.39,630.43c-109.96,0-212.56-11.66-288.92-32.84C50.65,572.68,3.18,535.73,3.18,490.73c0-86.93,44.7-168.48,125.87-229.61,80.34-60.52,187.01-93.84,300.35-93.84s220.01,33.33,300.35,93.84c81.17,61.14,125.87,142.69,125.87,229.61,0,45-47.48,81.95-137.3,106.86-76.36,21.18-178.96,32.84-288.92,32.84ZM429.39,186.81c-224.24,0-406.68,136.34-406.68,303.92,0,46.92,77.05,75.3,122.98,88.04,74.7,20.72,175.46,32.13,283.7,32.13s208.99-11.41,283.7-32.13c45.93-12.74,122.98-41.11,122.98-88.04,0-167.58-182.43-303.92-406.68-303.92Z"/>
  </g>
  <path class="cls-2" d="M584.01,26.56c11.5-21.26,35.69-30.46,54.04-20.54,18.35,9.92,23.9,35.2,12.41,56.46-11.5,21.26-74.46,58.31-74.46,58.31,0,0-3.48-72.98,8.02-94.24Z"/>
  <path class="cls-2" d="M679.03,108.55c23.96-3.15,45.6,11.05,48.32,31.73,2.72,20.68-14.5,40-38.46,43.16-23.96,3.15-90.9-26.13-90.9-26.13,0,0,57.08-45.61,81.04-48.76Z"/>
  <path class="cls-2" d="M265.48,26.56c-11.5-21.26-35.69-30.46-54.04-20.54-18.35,9.92-23.9,35.2-12.41,56.46,11.5,21.26,74.46,58.31,74.46,58.31,0,0,3.48-72.98-8.02-94.24Z"/>
  <path class="cls-2" d="M170.46,108.55c-23.96-3.15-45.6,11.05-48.32,31.73-2.72,20.68,14.5,40,38.46,43.16,23.96,3.15,90.9-26.13,90.9-26.13,0,0-57.08-45.61-81.04-48.76Z"/>
</svg>