<?xml version="1.0" encoding="UTF-8"?>
<svg id="Layer_52" data-name="Layer 52" xmlns="http://www.w3.org/2000/svg" viewBox="0 0 250 250">
  <defs>
    <style>
      .cls-1 {
        fill: #069bb4;
      }

      .cls-1, .cls-2 {
        stroke-width: 0px;
      }

      .cls-2 {
        fill: #fafafa;
      }
    </style>
  </defs>
  <rect class="cls-1" x="-5.75" y="-5.75" width="263.25" height="263.25"/>
  <path class="cls-2" d="M109.69,84.19c0-8.45,6.85-15.3,15.3-15.3s15.3,6.85,15.3,15.3c.55,2-30.15,2.04-30.61,0Z"/>
  <path class="cls-2" d="M189.96,176.45c3.97,2.15,8.05,4.38,10.36,7.37,2.31,2.99,2.38,6.96-1.25,9.35-8.22,5.42-112.6,3.46-135.38,2.6-4.57-.17-9.57-.51-12.77-2.62-3.62-2.39-3.55-6.36-1.25-9.35,2.31-2.99,6.39-5.22,10.36-7.37"/>
  <g>
    <path class="cls-2" d="M37.06,156.36c0-36.58,39.37-66.24,87.94-66.24s87.94,29.66,87.94,66.24-175.87,36.58-175.87,0Z"/>
    <path class="cls-2" d="M125,185.86c-23.22,0-44.88-2.46-61.01-6.93-18.97-5.26-28.99-13.06-28.99-22.57,0-18.36,9.44-35.58,26.58-48.49,16.96-12.78,39.49-19.82,63.42-19.82s46.46,7.04,63.42,19.82c17.14,12.91,26.58,30.13,26.58,48.49,0,9.5-10.03,17.31-28.99,22.57-16.12,4.47-37.79,6.93-61.01,6.93ZM125,92.18c-47.35,0-85.87,28.79-85.87,64.18,0,9.91,16.27,15.9,25.97,18.59,15.77,4.38,37.05,6.78,59.91,6.78s44.13-2.41,59.91-6.78c9.7-2.69,25.97-8.68,25.97-18.59,0-35.39-38.52-64.18-85.87-64.18Z"/>
  </g>
  <path class="cls-2" d="M157.65,58.34c2.43-4.49,7.54-6.43,11.41-4.34,3.87,2.09,5.05,7.43,2.62,11.92s-15.72,12.31-15.72,12.31c0,0-.73-15.41,1.69-19.9Z"/>
  <path class="cls-2" d="M177.71,75.66c5.06-.67,9.63,2.33,10.2,6.7.57,4.37-3.06,8.45-8.12,9.11-5.06.67-19.19-5.52-19.19-5.52,0,0,12.05-9.63,17.11-10.3Z"/>
  <path class="cls-2" d="M90.39,58.34c-2.43-4.49-7.54-6.43-11.41-4.34-3.87,2.09-5.05,7.43-2.62,11.92s15.72,12.31,15.72,12.31c0,0,.73-15.41-1.69-19.9Z"/>
  <path class="cls-2" d="M70.32,75.66c-5.06-.67-9.63,2.33-10.2,6.7-.57,4.37,3.06,8.45,8.12,9.11,5.06.67,19.19-5.52,19.19-5.52,0,0-12.05-9.63-17.11-10.3Z"/>
</svg>