<?xml version="1.0" encoding="UTF-8"?>
<svg xmlns="http://www.w3.org/2000/svg" viewBox="0 0 2689.2 1492.46">
  <defs>
    <style>
      .cls-1 {
        fill: none;
      }

      .cls-1, .cls-2, .cls-3, .cls-4, .cls-5, .cls-6, .cls-7 {
        stroke-width: 0px;
      }

      .cls-2 {
        fill: #6fbfbe;
      }

      .cls-3 {
        fill: #000326;
      }

      .cls-4 {
        fill: #000;
      }

      .cls-5 {
        fill: #eff2f1;
      }

      .cls-8 {
        font-family: Skia-Regular, Skia;
        font-size: 96px;
        font-variation-settings: 'wght' 1, 'wdth' 1;
      }

      .cls-8, .cls-7 {
        fill: #fff;
      }

      .cls-6 {
        fill: #393f59;
      }
    </style>
  </defs>
  <g id="Layer_12" data-name="Layer 12">
    <g id="Layer_26" data-name="Layer 26">
      <rect class="cls-7" x="-2.39" y="-26.17" width="2680" height="1717.83"/>
      <rect class="cls-4" x="1879.2" y="-11.32" width="810" height="2131.58"/>
    </g>
  </g>
  <g id="Bell_-_B_W" data-name="Bell - B&amp;amp;W">
    <path class="cls-4" d="M246.91,606.5c0-20.49,16.61-37.09,37.09-37.09s37.09,16.61,37.09,37.09c1.33,4.84-73.08,4.95-74.19,0Z"/>
    <path class="cls-4" d="M441.46,830.13c9.63,5.2,19.52,10.62,25.12,17.87,5.59,7.25,5.76,16.88-3.02,22.67-19.92,13.14-272.93,8.38-328.14,6.3-11.07-.42-23.2-1.23-30.95-6.34-8.78-5.79-8.62-15.43-3.02-22.67,5.59-7.25,15.49-12.66,25.12-17.87"/>
    <g>
      <path class="cls-7" d="M70.86,781.44c0-88.67,95.43-160.55,213.15-160.55s213.15,71.88,213.15,160.55-426.3,88.67-426.3,0Z"/>
      <path class="cls-4" d="M284.01,852.94c-56.28,0-108.79-5.97-147.88-16.81-45.97-12.75-70.27-31.66-70.27-54.7,0-44.49,22.88-86.23,64.42-117.52,41.12-30.97,95.71-48.03,153.73-48.03s112.61,17.06,153.73,48.03c41.54,31.29,64.42,73.03,64.42,117.52,0,23.03-24.3,41.95-70.27,54.7-39.08,10.84-91.6,16.81-147.88,16.81ZM284.01,625.89c-114.77,0-208.15,69.78-208.15,155.55,0,24.02,39.44,38.54,62.95,45.06,38.24,10.6,89.8,16.44,145.2,16.44s106.97-5.84,145.2-16.44c23.51-6.52,62.95-21.04,62.95-45.06,0-85.77-93.38-155.55-208.15-155.55Z"/>
    </g>
    <path class="cls-4" d="M363.15,543.86c5.88-10.88,18.27-15.59,27.66-10.51,9.39,5.08,12.23,18.02,6.35,28.9-5.88,10.88-38.11,29.85-38.11,29.85,0,0-1.78-37.35,4.1-48.23Z"/>
    <path class="cls-4" d="M411.78,585.83c12.27-1.61,23.34,5.66,24.73,16.24,1.39,10.58-7.42,20.47-19.69,22.09-12.27,1.61-46.52-13.37-46.52-13.37,0,0,29.21-23.34,41.48-24.96Z"/>
    <path class="cls-4" d="M200.11,543.86c-5.88-10.88-18.27-15.59-27.66-10.51-9.39,5.08-12.23,18.02-6.35,28.9,5.88,10.88,38.11,29.85,38.11,29.85,0,0,1.78-37.35-4.1-48.23Z"/>
    <path class="cls-4" d="M151.48,585.83c-12.27-1.61-23.34,5.66-24.73,16.24-1.39,10.58,7.42,20.47,19.69,22.09,12.27,1.61,46.52-13.37,46.52-13.37,0,0-29.21-23.34-41.48-24.96Z"/>
  </g>
  <g id="Layer_25" data-name="Layer 25">
    <g>
      <path class="cls-4" d="M839.16,606.5c0-20.49,16.61-37.09,37.09-37.09s37.09,16.61,37.09,37.09c1.33,4.84-73.08,4.95-74.19,0Z"/>
      <path class="cls-4" d="M1033.71,830.13c9.63,5.2,19.52,10.62,25.12,17.87,5.59,7.25,5.76,16.88-3.02,22.67-19.92,13.14-272.93,8.38-328.14,6.3-11.07-.42-23.2-1.23-30.95-6.34-8.78-5.79-8.62-15.43-3.02-22.67,5.59-7.25,15.49-12.66,25.12-17.87"/>
      <g>
        <path class="cls-4" d="M663.11,781.44c0-88.67,95.43-160.55,213.15-160.55s213.15,71.88,213.15,160.55-426.3,88.67-426.3,0Z"/>
        <path class="cls-4" d="M876.26,852.94c-56.28,0-108.79-5.97-147.88-16.81-45.97-12.75-70.27-31.66-70.27-54.7,0-44.49,22.88-86.23,64.42-117.52,41.12-30.97,95.71-48.03,153.73-48.03s112.61,17.06,153.73,48.03c41.54,31.29,64.42,73.03,64.42,117.52,0,23.03-24.3,41.95-70.27,54.7-39.08,10.84-91.6,16.81-147.88,16.81ZM876.26,625.89c-114.77,0-208.15,69.78-208.15,155.55,0,24.02,39.44,38.54,62.95,45.06,38.24,10.6,89.8,16.44,145.2,16.44s106.97-5.84,145.2-16.44c23.51-6.52,62.95-21.04,62.95-45.06,0-85.77-93.38-155.55-208.15-155.55Z"/>
      </g>
      <path class="cls-4" d="M955.4,543.86c5.88-10.88,18.27-15.59,27.66-10.51,9.39,5.08,12.23,18.02,6.35,28.9-5.88,10.88-38.11,29.85-38.11,29.85,0,0-1.78-37.35,4.1-48.23Z"/>
      <path class="cls-4" d="M1004.03,585.83c12.27-1.61,23.34,5.66,24.73,16.24,1.39,10.58-7.42,20.47-19.69,22.09-12.27,1.61-46.52-13.37-46.52-13.37,0,0,29.21-23.34,41.48-24.96Z"/>
      <path class="cls-4" d="M792.37,543.86c-5.88-10.88-18.27-15.59-27.66-10.51-9.39,5.08-12.23,18.02-6.35,28.9,5.88,10.88,38.11,29.85,38.11,29.85,0,0,1.78-37.35-4.1-48.23Z"/>
      <path class="cls-4" d="M743.73,585.83c-12.27-1.61-23.34,5.66-24.73,16.24-1.39,10.58,7.42,20.47,19.69,22.09,12.27,1.61,46.52-13.37,46.52-13.37,0,0-29.21-23.34-41.48-24.96Z"/>
    </g>
    <text class="cls-8" transform="translate(1994.76 775.33)"><tspan x="0" y="0">(on dark colors)</tspan></text>
  </g>
  <g id="Layer_13" data-name="Layer 13">
    <path class="cls-2" d="M857.84,139.25c0-20.49,16.61-37.09,37.09-37.09s37.09,16.61,37.09,37.09c1.33,4.84-73.08,4.95-74.19,0Z"/>
    <path class="cls-2" d="M1052.39,362.87c9.63,5.2,19.52,10.62,25.12,17.87,5.59,7.25,5.76,16.88-3.02,22.67-19.92,13.14-272.93,8.38-328.14,6.3-11.07-.42-23.2-1.23-30.95-6.34-8.78-5.79-8.62-15.43-3.02-22.67,5.59-7.25,15.49-12.66,25.12-17.87"/>
    <path class="cls-2" d="M974.08,76.61c5.88-10.88,18.27-15.59,27.66-10.51,9.39,5.08,12.23,18.02,6.35,28.9-5.88,10.88-38.11,29.85-38.11,29.85,0,0-1.78-37.35,4.1-48.23Z"/>
    <path class="cls-2" d="M1022.71,118.57c12.27-1.61,23.34,5.66,24.73,16.24,1.39,10.58-7.42,20.47-19.69,22.09-12.27,1.61-46.52-13.37-46.52-13.37,0,0,29.21-23.34,41.48-24.96Z"/>
    <path class="cls-2" d="M811.04,76.61c-5.88-10.88-18.27-15.59-27.66-10.51-9.39,5.08-12.23,18.02-6.35,28.9,5.88,10.88,38.11,29.85,38.11,29.85,0,0,1.78-37.35-4.1-48.23Z"/>
    <path class="cls-2" d="M762.41,118.57c-12.27-1.61-23.34,5.66-24.73,16.24-1.39,10.58,7.42,20.47,19.69,22.09,12.27,1.61,46.52-13.37,46.52-13.37,0,0-29.21-23.34-41.48-24.96Z"/>
    <g>
      <path class="cls-7" d="M681.79,314.18c0-88.67,95.43-160.55,213.15-160.55s213.15,71.88,213.15,160.55-426.3,88.67-426.3,0Z"/>
      <path class="cls-2" d="M894.94,385.69c-56.28,0-108.79-5.97-147.88-16.81-45.97-12.75-70.27-31.66-70.27-54.7,0-44.49,22.88-86.23,64.42-117.52,41.12-30.97,95.71-48.03,153.73-48.03s112.61,17.06,153.73,48.03c41.54,31.29,64.42,73.03,64.42,117.52,0,23.03-24.3,41.95-70.27,54.7-39.08,10.84-91.6,16.81-147.88,16.81ZM894.94,158.63c-114.77,0-208.15,69.78-208.15,155.55,0,24.02,39.44,38.54,62.95,45.06,38.24,10.6,89.8,16.44,145.2,16.44s106.97-5.84,145.2-16.44c23.51-6.52,62.95-21.04,62.95-45.06,0-85.77-93.38-155.55-208.15-155.55Z"/>
    </g>
  </g>
  <g id="Layer_23" data-name="Layer 23">
    <path class="cls-3" d="M1487,139.25c0-20.49,16.61-37.09,37.09-37.09s37.09,16.61,37.09,37.09c1.33,4.84-73.08,4.95-74.19,0Z"/>
    <path class="cls-3" d="M1681.55,362.87c9.63,5.2,19.52,10.62,25.12,17.87,5.59,7.25,5.76,16.88-3.02,22.67-19.92,13.14-272.93,8.38-328.14,6.3-11.07-.42-23.2-1.23-30.95-6.34-8.78-5.79-8.62-15.43-3.02-22.67,5.59-7.25,15.49-12.66,25.12-17.87"/>
    <path class="cls-3" d="M1603.24,76.61c5.88-10.88,18.27-15.59,27.66-10.51,9.39,5.08,12.23,18.02,6.35,28.9-5.88,10.88-38.11,29.85-38.11,29.85,0,0-1.78-37.35,4.1-48.23Z"/>
    <path class="cls-3" d="M1651.88,118.57c12.27-1.61,23.34,5.66,24.73,16.24,1.39,10.58-7.42,20.47-19.69,22.09-12.27,1.61-46.52-13.37-46.52-13.37,0,0,29.21-23.34,41.48-24.96Z"/>
    <path class="cls-3" d="M1440.21,76.61c-5.88-10.88-18.27-15.59-27.66-10.51-9.39,5.08-12.23,18.02-6.35,28.9,5.88,10.88,38.11,29.85,38.11,29.85,0,0,1.78-37.35-4.1-48.23Z"/>
    <path class="cls-3" d="M1391.58,118.57c-12.27-1.61-23.34,5.66-24.73,16.24-1.39,10.58,7.42,20.47,19.69,22.09,12.27,1.61,46.52-13.37,46.52-13.37,0,0-29.21-23.34-41.48-24.96Z"/>
    <g>
      <path class="cls-7" d="M1310.96,314.18c0-88.67,95.43-160.55,213.15-160.55s213.15,71.88,213.15,160.55-426.3,88.67-426.3,0Z"/>
      <path class="cls-3" d="M1524.1,385.69c-56.28,0-108.79-5.97-147.88-16.81-45.97-12.75-70.27-31.66-70.27-54.7,0-44.49,22.88-86.23,64.42-117.52,41.12-30.97,95.71-48.03,153.73-48.03s112.61,17.06,153.73,48.03c41.54,31.29,64.42,73.03,64.42,117.52,0,23.03-24.3,41.95-70.27,54.7-39.08,10.84-91.6,16.81-147.88,16.81ZM1524.1,158.63c-114.77,0-208.15,69.78-208.15,155.55,0,24.02,39.44,38.54,62.95,45.06,38.24,10.6,89.8,16.44,145.2,16.44s106.97-5.84,145.2-16.44c23.51-6.52,62.95-21.04,62.95-45.06,0-85.77-93.38-155.55-208.15-155.55Z"/>
    </g>
  </g>
  <g id="Layer_24" data-name="Layer 24">
    <path class="cls-3" d="M1476.93,1129.67c0-20.49,16.61-37.09,37.09-37.09s37.09,16.61,37.09,37.09c1.33,4.84-73.08,4.95-74.19,0Z"/>
    <path class="cls-3" d="M1671.48,1353.3c9.63,5.2,19.52,10.62,25.12,17.87,5.59,7.25,5.76,16.88-3.02,22.67-19.92,13.14-272.93,8.38-328.14,6.3-11.07-.42-23.2-1.23-30.95-6.34-8.78-5.79-8.62-15.43-3.02-22.67,5.59-7.25,15.49-12.66,25.12-17.87"/>
    <path class="cls-3" d="M1593.17,1067.03c5.88-10.88,18.27-15.59,27.66-10.51,9.39,5.08,12.23,18.02,6.35,28.9-5.88,10.88-38.11,29.85-38.11,29.85,0,0-1.78-37.35,4.1-48.23Z"/>
    <path class="cls-3" d="M1641.81,1108.99c12.27-1.61,23.34,5.66,24.73,16.24,1.39,10.58-7.42,20.47-19.69,22.09-12.27,1.61-46.52-13.37-46.52-13.37,0,0,29.21-23.34,41.48-24.96Z"/>
    <path class="cls-3" d="M1430.14,1067.03c-5.88-10.88-18.27-15.59-27.66-10.51s-12.23,18.02-6.35,28.9c5.88,10.88,38.11,29.85,38.11,29.85,0,0,1.78-37.35-4.1-48.23Z"/>
    <path class="cls-3" d="M1381.51,1108.99c-12.27-1.61-23.34,5.66-24.73,16.24-1.39,10.58,7.42,20.47,19.69,22.09,12.27,1.61,46.52-13.37,46.52-13.37,0,0-29.21-23.34-41.48-24.96Z"/>
    <g>
      <path class="cls-3" d="M1300.88,1304.6c0-88.67,95.43-160.55,213.15-160.55s213.15,71.88,213.15,160.55-426.3,88.67-426.3,0Z"/>
      <path class="cls-3" d="M1514.03,1376.11c-56.28,0-108.79-5.97-147.88-16.81-45.97-12.75-70.27-31.66-70.27-54.7,0-44.49,22.88-86.23,64.42-117.52,41.12-30.97,95.71-48.03,153.73-48.03s112.61,17.06,153.73,48.03c41.54,31.29,64.42,73.03,64.42,117.52,0,23.03-24.3,41.95-70.27,54.7-39.08,10.84-91.6,16.81-147.88,16.81ZM1514.03,1149.05c-114.77,0-208.15,69.78-208.15,155.55,0,24.02,39.44,38.54,62.95,45.06,38.24,10.6,89.8,16.44,145.2,16.44s106.97-5.84,145.2-16.44c23.51-6.52,62.95-21.04,62.95-45.06,0-85.77-93.38-155.55-208.15-155.55Z"/>
    </g>
  </g>
  <g id="Layer_17" data-name="Layer 17">
    <path class="cls-2" d="M857.84,1131.74c0-20.49,16.61-37.09,37.09-37.09s37.09,16.61,37.09,37.09c1.33,4.84-73.08,4.95-74.19,0Z"/>
    <path class="cls-2" d="M1052.39,1355.37c9.63,5.2,19.52,10.62,25.12,17.87,5.59,7.25,5.76,16.88-3.02,22.67-19.92,13.14-272.93,8.38-328.14,6.3-11.07-.42-23.2-1.23-30.95-6.34-8.78-5.79-8.62-15.43-3.02-22.67,5.59-7.25,15.49-12.66,25.12-17.87"/>
    <path class="cls-2" d="M974.08,1069.1c5.88-10.88,18.27-15.59,27.66-10.51,9.39,5.08,12.23,18.02,6.35,28.9-5.88,10.88-38.11,29.85-38.11,29.85,0,0-1.78-37.35,4.1-48.23Z"/>
    <path class="cls-2" d="M1022.71,1111.06c12.27-1.61,23.34,5.66,24.73,16.24,1.39,10.58-7.42,20.47-19.69,22.09-12.27,1.61-46.52-13.37-46.52-13.37,0,0,29.21-23.34,41.48-24.96Z"/>
    <path class="cls-2" d="M811.04,1069.1c-5.88-10.88-18.27-15.59-27.66-10.51-9.39,5.08-12.23,18.02-6.35,28.9,5.88,10.88,38.11,29.85,38.11,29.85,0,0,1.78-37.35-4.1-48.23Z"/>
    <path class="cls-2" d="M762.41,1111.06c-12.27-1.61-23.34,5.66-24.73,16.24-1.39,10.58,7.42,20.47,19.69,22.09,12.27,1.61,46.52-13.37,46.52-13.37,0,0-29.21-23.34-41.48-24.96Z"/>
    <g>
      <path class="cls-2" d="M681.79,1306.67c0-88.67,95.43-160.55,213.15-160.55s213.15,71.88,213.15,160.55-426.3,88.67-426.3,0Z"/>
      <path class="cls-2" d="M894.94,1378.18c-56.28,0-108.79-5.97-147.88-16.81-45.97-12.75-70.27-31.66-70.27-54.7,0-44.49,22.88-86.23,64.42-117.52,41.12-30.97,95.71-48.03,153.73-48.03s112.61,17.06,153.73,48.03c41.54,31.29,64.42,73.03,64.42,117.52,0,23.03-24.3,41.95-70.27,54.7-39.08,10.84-91.6,16.81-147.88,16.81ZM894.94,1151.12c-114.77,0-208.15,69.78-208.15,155.55,0,24.02,39.44,38.54,62.95,45.06,38.24,10.6,89.8,16.44,145.2,16.44s106.97-5.84,145.2-16.44c23.51-6.52,62.95-21.04,62.95-45.06,0-85.77-93.38-155.55-208.15-155.55Z"/>
    </g>
  </g>
  <g id="Layer_16" data-name="Layer 16">
    <path class="cls-5" d="M2263.37,127.93c0-20.49,16.61-37.09,37.09-37.09s37.09,16.61,37.09,37.09c1.33,4.84-73.08,4.95-74.19,0Z"/>
    <path class="cls-5" d="M2457.92,351.55c9.63,5.2,19.52,10.62,25.12,17.87,5.59,7.25,5.76,16.88-3.02,22.67-19.92,13.14-272.93,8.38-328.14,6.3-11.07-.42-23.2-1.23-30.95-6.34-8.78-5.79-8.62-15.43-3.02-22.67,5.59-7.25,15.49-12.66,25.12-17.87"/>
    <path class="cls-5" d="M2379.61,65.29c5.88-10.88,18.27-15.59,27.66-10.51,9.39,5.08,12.23,18.02,6.35,28.9-5.88,10.88-38.11,29.85-38.11,29.85,0,0-1.78-37.35,4.1-48.23Z"/>
    <path class="cls-5" d="M2428.24,107.25c12.27-1.61,23.34,5.66,24.73,16.24,1.39,10.58-7.42,20.47-19.69,22.09-12.27,1.61-46.52-13.37-46.52-13.37,0,0,29.21-23.34,41.48-24.96Z"/>
    <path class="cls-5" d="M2216.57,65.29c-5.88-10.88-18.27-15.59-27.66-10.51-9.39,5.08-12.23,18.02-6.35,28.9,5.88,10.88,38.11,29.85,38.11,29.85,0,0,1.78-37.35-4.1-48.23Z"/>
    <path class="cls-5" d="M2167.94,107.25c-12.27-1.61-23.34,5.66-24.73,16.24-1.39,10.58,7.42,20.47,19.69,22.09,12.27,1.61,46.52-13.37,46.52-13.37,0,0-29.21-23.34-41.48-24.96Z"/>
    <g>
      <path class="cls-1" d="M2087.32,302.86c0-88.67,95.43-160.55,213.15-160.55s213.15,71.88,213.15,160.55-426.3,88.67-426.3,0Z"/>
      <path class="cls-5" d="M2300.47,374.37c-56.28,0-108.79-5.97-147.88-16.81-45.97-12.75-70.27-31.66-70.27-54.7,0-44.49,22.88-86.23,64.42-117.52,41.12-30.97,95.71-48.03,153.73-48.03s112.61,17.06,153.73,48.03c41.54,31.29,64.42,73.03,64.42,117.52,0,23.03-24.3,41.95-70.27,54.7-39.08,10.84-91.6,16.81-147.88,16.81ZM2300.47,147.31c-114.77,0-208.15,69.78-208.15,155.55,0,24.02,39.44,38.54,62.95,45.06,38.24,10.6,89.8,16.44,145.2,16.44s106.97-5.84,145.2-16.44c23.51-6.52,62.95-21.04,62.95-45.06,0-85.77-93.38-155.55-208.15-155.55Z"/>
    </g>
  </g>
  <g id="Layer_22" data-name="Layer 22">
    <path class="cls-5" d="M2263.37,1113.57c0-20.49,16.61-37.09,37.09-37.09s37.09,16.61,37.09,37.09c1.33,4.84-73.08,4.95-74.19,0Z"/>
    <path class="cls-5" d="M2457.92,1337.2c9.63,5.2,19.52,10.62,25.12,17.87,5.59,7.25,5.76,16.88-3.02,22.67-19.92,13.14-272.93,8.38-328.14,6.3-11.07-.42-23.2-1.23-30.95-6.34-8.78-5.79-8.62-15.43-3.02-22.67,5.59-7.25,15.49-12.66,25.12-17.87"/>
    <path class="cls-5" d="M2379.61,1050.93c5.88-10.88,18.27-15.59,27.66-10.51,9.39,5.08,12.23,18.02,6.35,28.9-5.88,10.88-38.11,29.85-38.11,29.85,0,0-1.78-37.35,4.1-48.23Z"/>
    <path class="cls-5" d="M2428.24,1092.89c12.27-1.61,23.34,5.66,24.73,16.24,1.39,10.58-7.42,20.47-19.69,22.09-12.27,1.61-46.52-13.37-46.52-13.37,0,0,29.21-23.34,41.48-24.96Z"/>
    <path class="cls-5" d="M2216.57,1050.93c-5.88-10.88-18.27-15.59-27.66-10.51-9.39,5.08-12.23,18.02-6.35,28.9,5.88,10.88,38.11,29.85,38.11,29.85,0,0,1.78-37.35-4.1-48.23Z"/>
    <path class="cls-5" d="M2167.94,1092.89c-12.27-1.61-23.34,5.66-24.73,16.24-1.39,10.58,7.42,20.47,19.69,22.09,12.27,1.61,46.52-13.37,46.52-13.37,0,0-29.21-23.34-41.48-24.96Z"/>
    <g>
      <path class="cls-5" d="M2087.32,1288.5c0-88.67,95.43-160.55,213.15-160.55s213.15,71.88,213.15,160.55-426.3,88.67-426.3,0Z"/>
      <path class="cls-5" d="M2300.47,1360.01c-56.28,0-108.79-5.97-147.88-16.81-45.97-12.75-70.27-31.66-70.27-54.7,0-44.49,22.88-86.23,64.42-117.52,41.12-30.97,95.71-48.03,153.73-48.03s112.61,17.06,153.73,48.03c41.54,31.29,64.42,73.03,64.42,117.52,0,23.03-24.3,41.95-70.27,54.7-39.08,10.84-91.6,16.81-147.88,16.81ZM2300.47,1132.95c-114.77,0-208.15,69.78-208.15,155.55,0,24.02,39.44,38.54,62.95,45.06,38.24,10.6,89.8,16.44,145.2,16.44s106.97-5.84,145.2-16.44c23.51-6.52,62.95-21.04,62.95-45.06,0-85.77-93.38-155.55-208.15-155.55Z"/>
    </g>
  </g>
  <g id="Bell_-_Main" data-name="Bell - Main">
    <path class="cls-6" d="M246.91,139.25c0-20.49,16.61-37.09,37.09-37.09s37.09,16.61,37.09,37.09c1.33,4.84-73.08,4.95-74.19,0Z"/>
    <path class="cls-6" d="M441.46,362.87c9.63,5.2,19.52,10.62,25.12,17.87,5.59,7.25,5.76,16.88-3.02,22.67-19.92,13.14-272.93,8.38-328.14,6.3-11.07-.42-23.2-1.23-30.95-6.34-8.78-5.79-8.62-15.43-3.02-22.67,5.59-7.25,15.49-12.66,25.12-17.87"/>
    <g>
      <path class="cls-7" d="M70.86,314.18c0-88.67,95.43-160.55,213.15-160.55s213.15,71.88,213.15,160.55-426.3,88.67-426.3,0Z"/>
      <path class="cls-6" d="M284.01,385.69c-56.28,0-108.79-5.97-147.88-16.81-45.97-12.75-70.27-31.66-70.27-54.7,0-44.49,22.88-86.23,64.42-117.52,41.12-30.97,95.71-48.03,153.73-48.03s112.61,17.06,153.73,48.03c41.54,31.29,64.42,73.03,64.42,117.52,0,23.03-24.3,41.95-70.27,54.7-39.08,10.84-91.6,16.81-147.88,16.81ZM284.01,158.63c-114.77,0-208.15,69.78-208.15,155.55,0,24.02,39.44,38.54,62.95,45.06,38.24,10.6,89.8,16.44,145.2,16.44s106.97-5.84,145.2-16.44c23.51-6.52,62.95-21.04,62.95-45.06,0-85.77-93.38-155.55-208.15-155.55Z"/>
    </g>
    <path class="cls-6" d="M363.15,76.61c5.88-10.88,18.27-15.59,27.66-10.51,9.39,5.08,12.23,18.02,6.35,28.9-5.88,10.88-38.11,29.85-38.11,29.85,0,0-1.78-37.35,4.1-48.23Z"/>
    <path class="cls-6" d="M411.78,118.57c12.27-1.61,23.34,5.66,24.73,16.24s-7.42,20.47-19.69,22.09c-12.27,1.61-46.52-13.37-46.52-13.37,0,0,29.21-23.34,41.48-24.96Z"/>
    <path class="cls-6" d="M200.11,76.61c-5.88-10.88-18.27-15.59-27.66-10.51-9.39,5.08-12.23,18.02-6.35,28.9,5.88,10.88,38.11,29.85,38.11,29.85,0,0,1.78-37.35-4.1-48.23Z"/>
    <path class="cls-6" d="M151.48,118.57c-12.27-1.61-23.34,5.66-24.73,16.24-1.39,10.58,7.42,20.47,19.69,22.09,12.27,1.61,46.52-13.37,46.52-13.37,0,0-29.21-23.34-41.48-24.96Z"/>
  </g>
  <g id="Layer_14" data-name="Layer 14">
    <path class="cls-6" d="M246.91,1131.74c0-20.49,16.61-37.09,37.09-37.09s37.09,16.61,37.09,37.09c1.33,4.84-73.08,4.95-74.19,0Z"/>
    <path class="cls-6" d="M441.46,1355.37c9.63,5.2,19.52,10.62,25.12,17.87,5.59,7.25,5.76,16.88-3.02,22.67-19.92,13.14-272.93,8.38-328.14,6.3-11.07-.42-23.2-1.23-30.95-6.34-8.78-5.79-8.62-15.43-3.02-22.67,5.59-7.25,15.49-12.66,25.12-17.87"/>
    <g>
      <path class="cls-6" d="M70.86,1306.67c0-88.67,95.43-160.55,213.15-160.55s213.15,71.88,213.15,160.55-426.3,88.67-426.3,0Z"/>
      <path class="cls-6" d="M284.01,1378.18c-56.28,0-108.79-5.97-147.88-16.81-45.97-12.75-70.27-31.66-70.27-54.7,0-44.49,22.88-86.23,64.42-117.52,41.12-30.97,95.71-48.03,153.73-48.03s112.61,17.06,153.73,48.03c41.54,31.29,64.42,73.03,64.42,117.52,0,23.03-24.3,41.95-70.27,54.7-39.08,10.84-91.6,16.81-147.88,16.81ZM284.01,1151.12c-114.77,0-208.15,69.78-208.15,155.55,0,24.02,39.44,38.54,62.95,45.06,38.24,10.6,89.8,16.44,145.2,16.44s106.97-5.84,145.2-16.44c23.51-6.52,62.95-21.04,62.95-45.06,0-85.77-93.38-155.55-208.15-155.55Z"/>
    </g>
    <path class="cls-6" d="M363.15,1069.1c5.88-10.88,18.27-15.59,27.66-10.51,9.39,5.08,12.23,18.02,6.35,28.9-5.88,10.88-38.11,29.85-38.11,29.85,0,0-1.78-37.35,4.1-48.23Z"/>
    <path class="cls-6" d="M411.78,1111.06c12.27-1.61,23.34,5.66,24.73,16.24,1.39,10.58-7.42,20.47-19.69,22.09-12.27,1.61-46.52-13.37-46.52-13.37,0,0,29.21-23.34,41.48-24.96Z"/>
    <path class="cls-6" d="M200.11,1069.1c-5.88-10.88-18.27-15.59-27.66-10.51-9.39,5.08-12.23,18.02-6.35,28.9,5.88,10.88,38.11,29.85,38.11,29.85,0,0,1.78-37.35-4.1-48.23Z"/>
    <path class="cls-6" d="M151.48,1111.06c-12.27-1.61-23.34,5.66-24.73,16.24-1.39,10.58,7.42,20.47,19.69,22.09,12.27,1.61,46.52-13.37,46.52-13.37,0,0-29.21-23.34-41.48-24.96Z"/>
  </g>
</svg>