<?xml version="1.0" encoding="UTF-8"?>
<svg id="Layer_30_copy_2" data-name="Layer 30 copy 2" xmlns="http://www.w3.org/2000/svg" viewBox="0 0 250 250">
  <defs>
    <style>
      .cls-1 {
        fill: #6fbfbe;
        stroke-width: 0px;
      }

      .cls-2 {
        fill: #393f59;
        stroke: #393f59;
        stroke-linecap: round;
        stroke-linejoin: round;
        stroke-width: 31px;
      }
    </style>
  </defs>
  <path class="cls-2" d="M192.67,92.04c0,37.86-67.67,134.46-67.67,134.46,0,0-67.67-96.6-67.67-134.46S87.63,23.5,125,23.5s67.67,30.69,67.67,68.54Z"/>
  <g id="Layer_31_copy_2" data-name="Layer 31 copy 2">
    <path class="cls-1" d="M116.16,59.92c0-4.88,3.96-8.84,8.84-8.84s8.84,3.96,8.84,8.84c.32,1.15-17.42,1.18-17.68,0Z"/>
    <path class="cls-1" d="M162.53,113.22c2.29,1.24,4.65,2.53,5.99,4.26,1.33,1.73,1.37,4.02-.72,5.4-4.75,3.13-65.05,2-78.21,1.5-2.64-.1-5.53-.29-7.38-1.51-2.09-1.38-2.05-3.68-.72-5.4s3.69-3.02,5.99-4.26"/>
    <path class="cls-1" d="M143.86,44.99c1.4-2.59,4.35-3.72,6.59-2.51s2.92,4.29,1.51,6.89-9.08,7.11-9.08,7.11c0,0-.42-8.9.98-11.5Z"/>
    <path class="cls-1" d="M155.45,55c2.92-.38,5.56,1.35,5.89,3.87.33,2.52-1.77,4.88-4.69,5.26-2.92.38-11.09-3.19-11.09-3.19,0,0,6.96-5.56,9.89-5.95Z"/>
    <path class="cls-1" d="M105,44.99c-1.4-2.59-4.35-3.72-6.59-2.51-2.24,1.21-2.92,4.29-1.51,6.89,1.4,2.59,9.08,7.11,9.08,7.11,0,0,.42-8.9-.98-11.5Z"/>
    <path class="cls-1" d="M93.41,55c-2.92-.38-5.56,1.35-5.89,3.87-.33,2.52,1.77,4.88,4.69,5.26,2.92.38,11.09-3.19,11.09-3.19,0,0-6.96-5.56-9.89-5.95Z"/>
    <g>
      <path class="cls-1" d="M74.2,101.62c0-21.13,22.75-38.27,50.8-38.27s50.8,17.13,50.8,38.27-101.6,21.13-101.6,0Z"/>
      <path class="cls-1" d="M125,118.66c-13.41,0-25.93-1.42-35.25-4.01-10.96-3.04-16.75-7.55-16.75-13.04,0-10.6,5.45-20.55,15.35-28.01,9.8-7.38,22.81-11.45,36.64-11.45s26.84,4.07,36.64,11.45c9.9,7.46,15.35,17.41,15.35,28.01,0,5.49-5.79,10-16.75,13.04-9.31,2.58-21.83,4.01-35.25,4.01ZM125,64.54c-27.36,0-49.61,16.63-49.61,37.08,0,5.72,9.4,9.19,15,10.74,9.11,2.53,21.4,3.92,34.61,3.92s25.5-1.39,34.61-3.92c5.6-1.55,15-5.02,15-10.74,0-20.44-22.26-37.08-49.61-37.08Z"/>
    </g>
  </g>
</svg>