<?xml version="1.0" encoding="UTF-8"?>
<svg id="Layer_12" data-name="Layer 12" xmlns="http://www.w3.org/2000/svg" xmlns:xlink="http://www.w3.org/1999/xlink" viewBox="0 0 2601.84 1369.75">
  <defs>
    <style>
      .cls-1 {
        fill: #333;
      }

      .cls-1, .cls-2, .cls-3, .cls-4, .cls-5, .cls-6, .cls-7, .cls-8, .cls-9, .cls-10, .cls-11, .cls-12, .cls-13, .cls-14, .cls-15, .cls-16, .cls-17, .cls-18, .cls-19, .cls-20, .cls-21, .cls-22, .cls-23 {
        stroke-width: 0px;
      }

      .cls-2 {
        fill: #282828;
      }

      .cls-24, .cls-4, .cls-25, .cls-26, .cls-27, .cls-28, .cls-29, .cls-30, .cls-31, .cls-32, .cls-33, .cls-34, .cls-35, .cls-36, .cls-37, .cls-38, .cls-39, .cls-40 {
        fill: none;
      }

      .cls-24, .cls-25, .cls-27, .cls-28, .cls-31, .cls-32, .cls-33, .cls-35, .cls-36, .cls-37 {
        stroke-miterlimit: 10;
      }

      .cls-24, .cls-31, .cls-37 {
        stroke-width: 5px;
      }

      .cls-24, .cls-36 {
        stroke: #6fbfbe;
      }

      .cls-3 {
        fill: #1e1e1e;
      }

      .cls-41 {
        clip-path: url(#clippath);
      }

      .cls-5 {
        fill: #eaeaea;
      }

      .cls-6 {
        fill: #262626;
      }

      .cls-7 {
        fill: #cecece;
      }

      .cls-25, .cls-30, .cls-33, .cls-36 {
        stroke-width: 2px;
      }

      .cls-25, .cls-31 {
        stroke: #82d9da;
      }

      .cls-26 {
        stroke-width: 6.06px;
      }

      .cls-26, .cls-27, .cls-28, .cls-29, .cls-30, .cls-32, .cls-34, .cls-35, .cls-38, .cls-39, .cls-40 {
        stroke: #393f59;
      }

      .cls-26, .cls-29, .cls-30, .cls-34, .cls-38, .cls-39, .cls-40 {
        stroke-linejoin: round;
      }

      .cls-26, .cls-34 {
        stroke-linecap: round;
      }

      .cls-8 {
        fill: url(#linear-gradient);
      }

      .cls-27 {
        stroke-width: 3.57px;
      }

      .cls-9 {
        fill: #6fbfbe;
      }

      .cls-10 {
        fill: #191919;
      }

      .cls-29, .cls-34 {
        stroke-width: 4px;
      }

      .cls-42 {
        clip-path: url(#clippath-1);
      }

      .cls-43 {
        clip-path: url(#clippath-4);
      }

      .cls-44 {
        clip-path: url(#clippath-3);
      }

      .cls-45 {
        clip-path: url(#clippath-2);
      }

      .cls-46 {
        font-family: SourceSansPro-Regular, 'Source Sans Pro';
        font-size: 28px;
      }

      .cls-46, .cls-12, .cls-47 {
        fill: #000;
      }

      .cls-11 {
        fill: #000326;
      }

      .cls-32 {
        stroke-width: 3px;
      }

      .cls-13 {
        fill: #111;
      }

      .cls-14 {
        fill: #82d9da;
      }

      .cls-33, .cls-37 {
        stroke: #000326;
      }

      .cls-15 {
        fill: #eff2f1;
      }

      .cls-16 {
        fill: #bcbcbc;
      }

      .cls-17 {
        fill: #e2e2e2;
      }

      .cls-18 {
        fill: #393f59;
      }

      .cls-19 {
        fill: #212121;
      }

      .cls-20 {
        fill: #2b2b2b;
      }

      .cls-35 {
        stroke-width: .5px;
      }

      .cls-21 {
        fill: #494949;
      }

      .cls-38 {
        stroke-width: 3.39px;
      }

      .cls-39 {
        stroke-width: 3.09px;
      }

      .cls-22 {
        fill: #f7f7f7;
      }

      .cls-23 {
        fill: #0c0c0c;
      }

      .cls-40 {
        stroke-width: 3.64px;
      }

      .cls-47 {
        font-family: FjallaOne-Regular, 'FjallaOne Regular';
        font-size: 49px;
        font-variation-settings: ';
      }
    </style>
    <clipPath id="clippath">
      <rect class="cls-4" x="91.04" y="-10.47" width="2364.59" height="1390.7"/>
    </clipPath>
    <clipPath id="clippath-1">
      <rect class="cls-4" x="388.02" y="169.17" width="180" height="180" rx="12" ry="12"/>
    </clipPath>
    <linearGradient id="linear-gradient" x1="-913.82" y1="1934.22" x2="-912.82" y2="1934.22" gradientTransform="translate(-347680.95 164656.9) rotate(90) scale(180 -180)" gradientUnits="userSpaceOnUse">
      <stop offset="0" stop-color="#82d9da"/>
      <stop offset=".25" stop-color="#6fbfbe"/>
      <stop offset=".58" stop-color="#5d939c"/>
      <stop offset="1" stop-color="#393f59"/>
    </linearGradient>
    <clipPath id="clippath-2">
      <rect class="cls-4" x="91.04" y="-10.47" width="2364.59" height="1390.7"/>
    </clipPath>
    <clipPath id="clippath-3">
      <rect class="cls-4" x="91.04" y="-10.47" width="2364.59" height="1390.7"/>
    </clipPath>
    <clipPath id="clippath-4">
      <rect class="cls-4" x="91.04" y="-10.47" width="2364.59" height="1390.7"/>
    </clipPath>
  </defs>
  <text class="cls-47" transform="translate(1701.51 611.48)"><tspan x="0" y="0">Color Palette</tspan></text>
  <g class="cls-41">
    <path class="cls-18" d="M1354.37,374.35V105.78h89.7c79.08,0,126.42,50.36,126.42,133.89s-47.34,134.68-129.17,134.68h-86.95ZM1439.09,338.94c61.24,0,91.53-35.67,91.53-99.27s-30.29-98.49-89.04-98.49h-46.69v197.76h44.19Z"/>
    <rect class="cls-18" x="1598.66" y="105.78" width="40.52" height="268.57"/>
    <polygon class="cls-18" points="1885.42 374.35 1848.18 374.35 1711.66 177.38 1709.17 177.38 1709.17 374.35 1668.65 374.35 1668.65 105.78 1706.15 105.78 1842.8 303.01 1845.29 303.01 1845.29 105.78 1885.42 105.78 1885.42 374.35"/>
    <path class="cls-18" d="M2026.73,139.09c-45.51,0-80.26,35.8-80.26,100.85s34.49,101.11,81.83,101.11c43.01,0,71.6-27.41,72.52-70.68h-66.36v-33.44h105.57v30.56c0,67.8-46.55,110.55-111.73,110.55-72.78,0-122.09-52.85-122.09-137.83s50.75-138.09,120.26-138.09c57.96,0,102.68,36.19,111.73,88.52h-41.57c-10.1-31.87-34.23-51.54-69.9-51.54"/>
    <rect class="cls-9" x="2178.31" y="193.66" width="21.71" height="186.28"/>
    <path class="cls-9" d="M2299.22,212.46h-28v118.85c0,23.41,13.46,30.32,28.14,30.32,5.7,0,9.58-.85,12.61-1.7l4.61,19.53c-4.12,1.58-10.19,3.27-19.16,3.27-23.89,0-47.91-15.89-47.91-46.33v-123.95h-27.77v-18.8h27.77v-44.63h21.71v44.63h28v18.8Z"/>
    <path class="cls-18" d="M2197.93,157.64c0,4.76-8.61,16.1-8.61,16.1,0,0-8.61-11.34-8.61-16.1s3.85-8.61,8.61-8.61,8.61,3.86,8.61,8.61"/>
    <path class="cls-18" d="M2175.16,163.65c3.5,3.22,6.03,17.23,6.03,17.23,0,0-14.18-1.33-17.68-4.54-3.5-3.22-3.74-8.66-.52-12.17,3.22-3.5,8.66-3.74,12.17-.52"/>
    <path class="cls-18" d="M2203.17,163.65c-3.5,3.22-6.03,17.23-6.03,17.23,0,0,14.18-1.33,17.68-4.54,3.5-3.22,3.74-8.66.52-12.17-3.22-3.5-8.66-3.74-12.17-.52"/>
  </g>
  <text class="cls-47" transform="translate(1772.89 88.99)"><tspan x="0" y="0">Logo</tspan></text>
  <text class="cls-47" transform="translate(311.51 111.29)"><tspan x="0" y="0">App Icon 180x180</tspan></text>
  <g class="cls-42">
    <rect class="cls-8" x="388.02" y="169.17" width="180" height="180"/>
  </g>
  <g class="cls-45">
    <rect class="cls-13" x="466.13" y="293.66" width="25.12" height="8.77"/>
    <rect class="cls-13" x="472.98" y="214.32" width="9.7" height="6.02"/>
    <path class="cls-20" d="M488.7,231.23h-21.84c-.88,0-1.59-.71-1.59-1.59v-7.71c0-.88.71-1.59,1.59-1.59h21.84c.88,0,1.59.71,1.59,1.59v7.71c0,.88-.71,1.59-1.59,1.59"/>
    <rect class="cls-1" x="468.25" y="220.34" width="10.65" height="9.16"/>
    <rect class="cls-21" x="469.77" y="220.34" width="5.08" height="9.16"/>
    <rect class="cls-10" x="470.18" y="293.66" width="8.61" height="8.72"/>
    <rect class="cls-6" x="470.99" y="293.71" width="4.37" height="8.72"/>
    <path class="cls-20" d="M548.74,309.34h-138.04c-.27,0-.49-.22-.49-.49l2.4-5.84c.19-.48.26-.59.53-.59h133.28c.27,0,.33.06.53.58l2.29,5.85c0,.27-.22.49-.49.49"/>
    <polygon class="cls-10" points="549.23 308.85 410.21 308.85 410.88 307.28 548.59 307.21 549.23 308.85"/>
    <rect class="cls-1" x="421.39" y="302.43" width="40.4" height="4.79"/>
    <path class="cls-17" d="M477.83,227.82c-54.81,0-54.81,55.44-54.81,55.44h110.88s-1.26-55.44-56.07-55.44"/>
    <path class="cls-20" d="M553.7,317.9h-148.39c-.27,0-.49-.22-.49-.49l3.05-8.01c.21-.52.24-.55.51-.55h142.39c.27,0,.31.05.53.6l2.89,7.95c0,.27-.22.49-.49.49"/>
    <path class="cls-5" d="M431.31,283.26h38.38c.74-45.39,10.54-55.4,10.54-55.4,0,0-4.07-.16-8.71.22-4.65.37-7.25,1.02-7.25,1.02,0,0-30.04,14.02-32.96,54.16"/>
    <path class="cls-22" d="M440.44,283.26h16.53c.73-45.39,19.68-55.43,19.68-55.43-2.45.05-4.08.12-7.79.51-.67.07-19.8,10.61-28.42,54.92"/>
    <path class="cls-7" d="M534.2,283.25h-24.37c-.74-45.38-24.93-55.14-24.93-55.14,0,0-2.45-.19,2.2.18,4.65.37,8.9,1.81,8.9,1.81,0,0,34.63,7.37,38.2,53.15"/>
    <path class="cls-17" d="M534.23,293.66h-110.86c-2.86,0-5.2-2.34-5.2-5.2s2.34-5.2,5.2-5.2h110.86c2.86,0,5.2,2.34,5.2,5.2s-2.34,5.2-5.2,5.2"/>
    <path class="cls-5" d="M429.42,283.26c-4.06,5.2-1.18,10.4-1.18,10.4h35.77s-3.87-4.69.74-10.4h-35.33Z"/>
    <path class="cls-22" d="M437.42,283.26c-3.18,5.2-.85,10.4-.85,10.4h19.15s-3.11-4.45.07-10.4h-18.37Z"/>
    <path class="cls-16" d="M534.91,283.25h-6.61c-.2-45.38-38.09-54.58-38.09-54.58,0,0,2.22.39,3.46.76.82.24,1.29.38,1.71.5.2.06.68.17.88.22,3.34.96,33.36,8.17,38.65,53.09"/>
    <path class="cls-7" d="M539.43,288.46c0-5.2-4.52-5.2-4.52-5.2h-23.22c4.25,4.53.88,10.4.88,10.4h21.66s5.2,0,5.2-5.2"/>
    <rect class="cls-10" x="473.85" y="214.74" width="5.6" height="5.6"/>
    <path class="cls-16" d="M539.43,288.46c0-5.2-4.52-5.2-4.52-5.2h-3.55c6.07,4.64,1.26,10.4,1.26,10.4h2.29s4.52,0,4.52-5.2"/>
    <path class="cls-17" d="M477.61,200.44c-14.17,0-14.17,14.33-14.17,14.33h28.67s-.32-14.33-14.5-14.33"/>
    <path class="cls-5" d="M463.44,214.77h9.19c.19-11.73,4.99-14.33,4.99-14.33,0,0-.43-.03-1.63.07l-1.2.1s-10.47.73-11.34,14.17"/>
    <path class="cls-22" d="M464.76,214.77h4.27c.19-11.73,5.75-14.17,5.75-14.17-.63.01-1.8.37-2.81.67-.17.05-4.98,2.05-7.21,13.5"/>
    <path class="cls-7" d="M492.11,214.77h-6.49c-.19-11.73-8.01-14.33-8.01-14.33,0,0,.43-.03,1.63.07l1.2.1s10.67,1.13,11.66,14.17"/>
    <path class="cls-16" d="M492.11,214.74h-2.43c-.07-11.73-10.19-14.21-10.19-14.21,0,0,.32.02.79.06.26.02.33.03.33.03,0,0,10.3.98,11.5,14.12"/>
    <rect class="cls-6" x="474.38" y="214.77" width="2.84" height="5.6"/>
    <rect class="cls-19" x="421.39" y="307.21" width="40.4" height="1.63"/>
    <rect class="cls-21" x="430.48" y="302.43" width="14.19" height="4.79"/>
    <rect class="cls-2" x="430.48" y="307.21" width="14.19" height="1.63"/>
    <path class="cls-3" d="M548.59,307.21h-31.87v-4.79h29.71c.17,0,.32.1.39.26l1.77,4.53Z"/>
    <polygon class="cls-23" points="549.23 308.85 516.73 308.85 516.73 307.21 548.59 307.21 549.23 308.85"/>
    <rect class="cls-1" x="415.8" y="308.85" width="40.4" height="9.05"/>
    <rect class="cls-21" x="424.89" y="308.85" width="14.19" height="9.05"/>
    <path class="cls-3" d="M553.71,317.9h-24.58v-9.05h21.46c.29,0,.56.18.66.46l2.93,7.99c.07.31-.17.6-.48.6"/>
    <path class="cls-15" d="M546.21,238.03c-3.09,1.77-12.82,1.86-12.82,1.86,0,0,5.01-8.34,8.1-10.1,3.09-1.77,6.65-1.35,7.95.92,1.3,2.28-.15,5.56-3.24,7.32"/>
    <path class="cls-15" d="M553.52,247.45c-4.12-.71-14.91,3.06-14.91,3.06,0,0,8.88,7.19,13,7.91,4.12.71,7.89-1.16,8.42-4.19.52-3.03-2.39-6.07-6.51-6.78"/>
    <path class="cls-15" d="M526.94,217.11c-1.39,3.95.46,15.17.46,15.17,0,0,8.45-7.61,9.84-11.56,1.39-3.95.2-7.96-2.64-8.96-2.84-1-6.27,1.39-7.66,5.34"/>
    <path class="cls-15" d="M409.83,237.26c3.09,1.77,12.82,1.86,12.82,1.86,0,0-5.01-8.34-8.1-10.1-3.09-1.77-6.65-1.35-7.95.92-1.3,2.28.15,5.56,3.24,7.32"/>
    <path class="cls-15" d="M402.52,246.68c4.12-.71,14.91,3.06,14.91,3.06,0,0-8.88,7.19-13,7.91-4.12.71-7.89-1.16-8.42-4.19-.52-3.03,2.39-6.07,6.51-6.78"/>
    <path class="cls-15" d="M429.1,216.34c1.39,3.95-.46,15.17-.46,15.17,0,0-8.45-7.61-9.84-11.56-1.39-3.95-.2-7.96,2.64-8.96,2.84-1,6.27,1.39,7.66,5.34"/>
    <path class="cls-12" d="M887.37,159.52h10.49v-10.49h-10.49v10.49ZM876.88,159.52v-10.49h-10.49v20.98h10.49v10.43h10.49v-20.93h-10.49ZM855.89,190.94h10.49v-10.49h-10.49v10.49ZM1023.71,201.43h31.48v-31.42h-31.48v31.42ZM1023.71,201.43h31.48v-31.42h-31.48v31.42ZM1023.71,201.43h31.48v-31.42h-31.48v31.42ZM1023.71,201.43h31.48v-31.42h-31.48v31.42ZM1023.71,201.43h31.48v-31.42h-31.48v31.42ZM1023.71,201.43h31.48v-31.42h-31.48v31.42ZM1023.71,201.43h31.48v-31.42h-31.48v31.42ZM1023.71,201.43h31.48v-31.42h-31.48v31.42ZM1023.71,201.43h31.48v-31.42h-31.48v31.42ZM1023.71,201.43h31.48v-31.42h-31.48v31.42ZM1023.71,201.43h31.48v-31.42h-31.48v31.42ZM1023.71,201.43h31.48v-31.42h-31.48v31.42ZM1023.71,201.43h31.48v-31.42h-31.48v31.42ZM1023.71,201.43h31.48v-31.42h-31.48v31.42ZM1023.71,201.43h31.48v-31.42h-31.48v31.42ZM1023.71,201.43h31.48v-31.42h-31.48v31.42ZM1023.71,201.43h31.48v-31.42h-31.48v31.42ZM1023.71,201.43h31.48v-31.42h-31.48v31.42ZM1023.71,201.43h31.48v-31.42h-31.48v31.42ZM1023.71,201.43h31.48v-31.42h-31.48v31.42ZM1023.71,201.43h31.48v-31.42h-31.48v31.42ZM1023.71,201.43h31.48v-31.42h-31.48v31.42ZM1023.71,201.43h31.48v-31.42h-31.48v31.42ZM1023.71,201.43h31.48v-31.42h-31.48v31.42ZM1002.73,222.42h73.39v-73.39h-73.39v73.39ZM1065.68,211.93h-52.46v-52.41h52.46v52.41ZM1055.19,170.01h-31.48v31.42h31.48v-31.42ZM1023.71,201.43h31.48v-31.42h-31.48v31.42ZM1023.71,201.43h31.48v-31.42h-31.48v31.42ZM1023.71,201.43h31.48v-31.42h-31.48v31.42ZM1023.71,201.43h31.48v-31.42h-31.48v31.42ZM1023.71,201.43h31.48v-31.42h-31.48v31.42ZM1023.71,201.43h31.48v-31.42h-31.48v31.42ZM1023.71,201.43h31.48v-31.42h-31.48v31.42ZM1023.71,201.43h31.48v-31.42h-31.48v31.42ZM1023.71,201.43h31.48v-31.42h-31.48v31.42ZM1023.71,201.43h31.48v-31.42h-31.48v31.42ZM1023.71,201.43h31.48v-31.42h-31.48v31.42ZM1023.71,201.43h31.48v-31.42h-31.48v31.42ZM1023.71,201.43h31.48v-31.42h-31.48v31.42ZM1023.71,201.43h31.48v-31.42h-31.48v31.42ZM1023.71,201.43h31.48v-31.42h-31.48v31.42ZM1023.71,201.43h31.48v-31.42h-31.48v31.42ZM1023.71,201.43h31.48v-31.42h-31.48v31.42ZM1023.71,201.43h31.48v-31.42h-31.48v31.42ZM1023.71,201.43h31.48v-31.42h-31.48v31.42ZM1023.71,201.43h31.48v-31.42h-31.48v31.42ZM1023.71,201.43h31.48v-31.42h-31.48v31.42ZM1023.71,201.43h31.48v-31.42h-31.48v31.42ZM792.94,201.43h31.48v-31.42h-31.48v31.42ZM792.94,201.43h31.48v-31.42h-31.48v31.42ZM792.94,201.43h31.48v-31.42h-31.48v31.42ZM792.94,201.43h31.48v-31.42h-31.48v31.42ZM792.94,201.43h31.48v-31.42h-31.48v31.42ZM792.94,201.43h31.48v-31.42h-31.48v31.42ZM792.94,201.43h31.48v-31.42h-31.48v31.42ZM792.94,201.43h31.48v-31.42h-31.48v31.42ZM792.94,201.43h31.48v-31.42h-31.48v31.42ZM792.94,201.43h31.48v-31.42h-31.48v31.42ZM792.94,201.43h31.48v-31.42h-31.48v31.42ZM792.94,201.43h31.48v-31.42h-31.48v31.42ZM792.94,201.43h31.48v-31.42h-31.48v31.42ZM792.94,201.43h31.48v-31.42h-31.48v31.42ZM792.94,201.43h31.48v-31.42h-31.48v31.42ZM792.94,201.43h31.48v-31.42h-31.48v31.42ZM792.94,201.43h31.48v-31.42h-31.48v31.42ZM792.94,201.43h31.48v-31.42h-31.48v31.42ZM792.94,201.43h31.48v-31.42h-31.48v31.42ZM792.94,201.43h31.48v-31.42h-31.48v31.42ZM792.94,201.43h31.48v-31.42h-31.48v31.42ZM792.94,201.43h31.48v-31.42h-31.48v31.42ZM792.94,201.43h31.48v-31.42h-31.48v31.42ZM792.94,201.43h31.48v-31.42h-31.48v31.42ZM772.01,222.42h73.39v-73.39h-73.39v73.39ZM834.91,211.93h-52.46v-52.41h52.46v52.41ZM824.42,170.01h-31.48v31.42h31.48v-31.42ZM792.94,201.43h31.48v-31.42h-31.48v31.42ZM792.94,201.43h31.48v-31.42h-31.48v31.42ZM792.94,201.43h31.48v-31.42h-31.48v31.42ZM792.94,201.43h31.48v-31.42h-31.48v31.42ZM792.94,201.43h31.48v-31.42h-31.48v31.42ZM792.94,201.43h31.48v-31.42h-31.48v31.42ZM792.94,201.43h31.48v-31.42h-31.48v31.42ZM792.94,201.43h31.48v-31.42h-31.48v31.42ZM792.94,201.43h31.48v-31.42h-31.48v31.42ZM792.94,201.43h31.48v-31.42h-31.48v31.42ZM792.94,201.43h31.48v-31.42h-31.48v31.42ZM792.94,201.43h31.48v-31.42h-31.48v31.42ZM792.94,201.43h31.48v-31.42h-31.48v31.42ZM792.94,201.43h31.48v-31.42h-31.48v31.42ZM792.94,201.43h31.48v-31.42h-31.48v31.42ZM792.94,201.43h31.48v-31.42h-31.48v31.42ZM792.94,201.43h31.48v-31.42h-31.48v31.42ZM792.94,201.43h31.48v-31.42h-31.48v31.42ZM792.94,201.43h31.48v-31.42h-31.48v31.42ZM792.94,201.43h31.48v-31.42h-31.48v31.42ZM792.94,201.43h31.48v-31.42h-31.48v31.42ZM792.94,201.43h31.48v-31.42h-31.48v31.42ZM1065.68,306.36h10.43v-20.98h-10.43v20.98ZM1055.19,285.37h10.49v-10.49h-10.49v10.49ZM1065.68,453.2h10.43v-10.49h-10.43v10.49ZM1013.22,306.36h10.49v-10.49h-10.49v10.49ZM1013.22,306.36h10.49v-10.49h-10.49v10.49ZM950.27,222.42v10.49h-10.49v3.57c7.55,1.44,14.58,4.21,20.98,7.96v-22.02h-10.49ZM1002.73,390.24h10.49v-10.49h-10.49v10.49ZM1002.73,390.24h10.49v-10.49h-10.49v10.49ZM1065.68,421.72v-31.48h-10.49v20.98h-10.49v20.98h31.42v-10.49h-10.43ZM1065.68,369.26v-20.99h-10.49v31.48h10.49v10.49h10.43v-20.98h-10.43ZM1055.19,316.79v10.49h10.49v20.98h10.43v-31.48h-20.93ZM1055.19,243.4v10.49h10.49v10.49h10.43v-20.98h-20.93ZM950.27,222.42v10.49h-10.49v3.57c7.55,1.44,14.58,4.21,20.98,7.96v-22.02h-10.49ZM1044.7,295.87v-31.48h-20.99v-31.48h-20.98v20.98h10.49v10.49h-20.99v-52.46h-10.49v10.49h-10.49v10.49h10.49v31.25c4.32,6.34,7.55,13.55,9.46,21.22h11.53v10.49h10.49v-10.49h10.49v-10.49h10.49v31.48h-10.49v10.44h20.99v-10.44h10.49v-10.49h-10.49ZM1044.7,264.39h10.49v-10.49h-10.49v10.49ZM1034.21,432.21v10.49h-20.98v10.49h31.48v-20.99h-10.49ZM1034.21,253.9h10.49v-20.98h-10.49v20.98ZM1013.22,306.36h10.49v-10.49h-10.49v10.49ZM1013.22,306.36h10.49v-10.49h-10.49v10.49ZM1013.22,306.36h10.49v-10.49h-10.49v10.49ZM1013.22,306.36h10.49v-10.49h-10.49v10.49ZM1013.22,306.36h10.49v-10.49h-10.49v10.49ZM881.66,348.27h-4.79v-5.13c-1.44-1.73-2.77-3.52-4.03-5.36h-16.95v10.49h10.49v10.49h10.49v10.49h10.49v-10.49h8.48c-5.19-2.82-9.97-6.34-14.18-10.49M897.86,359.8v9.46h20.98v-3c-7.44-.92-14.53-3.17-20.98-6.46M950.27,369.26v-6.52c-3.34,1.27-6.86,2.25-10.49,2.94v3.58h-20.93v10.49h-41.97v10.49h-10.49v31.48h10.49v-10.49h20.99v-10.49h-10.49v-10.49h20.99v31.48h-10.49v20.98h-20.99v-10.49h-10.49v-10.49h-10.49v20.98h10.49v10.49h41.97v-20.99h10.49v10.49h10.43v-10.49h10.49v-10.49h-10.49v-20.98h-10.43v-10.49h10.43v10.49h10.49v-20.98h20.98v-10.49h-10.49ZM1013.22,316.79v-10.44h-20.35c-.58,7.38-2.36,14.47-5.25,20.93h4.61v-10.49h10.49v10.49h-10.49v10.49h20.99v-10.49h10.49v-10.49h-10.49ZM1013.22,306.36h10.49v-10.49h-10.49v10.49ZM1013.22,306.36h10.49v-10.49h-10.49v10.49ZM1013.22,306.36h10.49v-10.49h-10.49v10.49ZM1013.22,306.36h10.49v-10.49h-10.49v10.49ZM1013.22,306.36h10.49v-10.49h-10.49v10.49ZM1013.22,306.36h10.49v-10.49h-10.49v10.49ZM1002.73,390.24h10.49v-10.49h-10.49v10.49ZM971.25,149.03v10.49h10.49v10.49h-10.49v10.43h20.98v-31.42h-20.98ZM1002.73,390.24h10.49v-10.49h-10.49v10.49ZM1002.73,390.24h10.49v-10.49h-10.49v10.49ZM1002.73,390.24h10.49v-10.49h-10.49v10.49ZM1002.73,390.24h10.49v-10.49h-10.49v10.49ZM1002.73,390.24h10.49v-10.49h-10.49v10.49ZM1002.73,390.24h10.49v-10.49h-10.49v10.49ZM1002.73,390.24h10.49v-10.49h-10.49v10.49ZM1002.73,390.24h10.49v-10.49h-10.49v10.49ZM1002.73,390.24h10.49v-10.49h-10.49v10.49ZM1002.73,390.24h10.49v-10.49h-10.49v10.49ZM1002.73,390.24h10.49v-10.49h-10.49v10.49ZM1002.73,390.24h10.49v-10.49h-10.49v10.49ZM1002.73,390.24h10.49v-10.49h-10.49v10.49ZM1002.73,390.24h10.49v-10.49h-10.49v10.49ZM1002.73,390.24h10.49v-10.49h-10.49v10.49ZM1002.73,390.24h10.49v-10.49h-10.49v10.49ZM1002.73,390.24h10.49v-10.49h-10.49v10.49ZM1002.73,390.24h10.49v-10.49h-10.49v10.49ZM1002.73,390.24h10.49v-10.49h-10.49v10.49ZM1002.73,390.24h10.49v-10.49h-10.49v10.49ZM1002.73,390.24h10.49v-10.49h-10.49v10.49ZM1002.73,390.24h10.49v-10.49h-10.49v10.49ZM1055.19,348.27v-10.49h-10.49v-10.49h-10.49v10.49h-10.49v10.49h10.49v10.49h-20.98v-10.49h-31.48v-10.26c-5.42,8.01-12.62,14.76-20.98,19.72v1.04h10.49v10.49h10.49v20.98h-10.49v31.48h10.49v-10.49h10.49v10.49h-10.49v31.48h20.99v-10.49h-10.49v-10.49h10.49v-20.98h10.49v20.98h20.98v-31.48h10.49v-10.49h10.49v-10.49h-10.49v-31.48h10.49ZM1023.71,400.73h-31.48v-31.48h31.48v31.48ZM1013.22,379.75h-10.49v10.49h10.49v-10.49ZM1002.73,390.24h10.49v-10.49h-10.49v10.49ZM1002.73,390.24h10.49v-10.49h-10.49v10.49ZM1002.73,390.24h10.49v-10.49h-10.49v10.49ZM1002.73,390.24h10.49v-10.49h-10.49v10.49ZM1002.73,390.24h10.49v-10.49h-10.49v10.49ZM1002.73,390.24h10.49v-10.49h-10.49v10.49ZM1002.73,390.24h10.49v-10.49h-10.49v10.49ZM1002.73,390.24h10.49v-10.49h-10.49v10.49ZM1002.73,390.24h10.49v-10.49h-10.49v10.49ZM1002.73,390.24h10.49v-10.49h-10.49v10.49ZM1002.73,390.24h10.49v-10.49h-10.49v10.49ZM1002.73,390.24h10.49v-10.49h-10.49v10.49ZM1002.73,390.24h10.49v-10.49h-10.49v10.49ZM1002.73,390.24h10.49v-10.49h-10.49v10.49ZM1002.73,390.24h10.49v-10.49h-10.49v10.49ZM1002.73,390.24h10.49v-10.49h-10.49v10.49ZM1002.73,390.24h10.49v-10.49h-10.49v10.49ZM1002.73,390.24h10.49v-10.49h-10.49v10.49ZM1002.73,390.24h10.49v-10.49h-10.49v10.49ZM1002.73,390.24h10.49v-10.49h-10.49v10.49ZM1002.73,390.24h10.49v-10.49h-10.49v10.49ZM960.76,421.72v-31.48h-10.49v41.97h10.49v10.49h10.49v-20.98h-10.49ZM960.76,190.94v10.49h-10.49v-10.49h-10.49v31.48h10.49v-10.49h10.49v10.49h10.49v-31.48h-10.49ZM960.76,170.01h10.49v-10.49h-10.49v10.49ZM950.27,222.42v10.49h-10.49v3.57c7.55,1.44,14.58,4.21,20.98,7.96v-22.02h-10.49ZM939.78,170.01v10.43h10.49v10.49h10.49v-20.93h-20.98ZM929.28,453.2h20.98v-10.49h-20.98v10.49ZM929.28,149.03v20.98h10.49v-10.49h10.49v-10.49h-20.98ZM939.78,190.94v-10.49h-20.93v-20.93h-10.49v41.91h10.49v20.98h-10.49v-20.98h-10.49v31.48h10.49v5.25c6-1.85,12.39-2.83,19.02-2.83.63,0,1.27,0,1.9.06v-2.48h10.49v-10.49h-10.49v-31.48h10.49ZM887.37,201.43h10.49v-10.49h-10.49v10.49ZM876.88,232.91v-10.49h-10.49v-10.49h10.49v-10.49h-20.98v31.48h10.49v10.49h-10.49v20.98h-10.49v10.49h10.49v10.49h7.67c.86-3.63,2.08-7.15,3.58-10.49h-.75v-10.49h6.46c3.98-5.88,8.88-11.13,14.53-15.45v-16.03h-10.49ZM876.88,222.42h10.49v-10.49h-10.49v10.49ZM866.39,369.26v-10.49h-10.49v-10.49h-10.49v10.49h-10.49v-10.49h10.49v-10.49h-20.98v-10.49h-10.49v10.49h-10.49v-10.49h-10.49v20.98h-20.93v10.49h20.93v10.49h10.49v-20.99h20.99v10.49h-10.49v10.49h41.97v10.49h20.98v-10.49h-10.49ZM861.89,306.36h-5.99v10.44h7.67c-.86-3.4-1.44-6.86-1.67-10.44M866.39,325.56v1.73h.75c-.29-.52-.52-1.15-.75-1.73M845.4,337.78h10.49v-10.49h-10.49v10.49ZM845.4,295.87h10.49v-10.49h-10.49v10.49ZM834.91,327.29h10.49v-10.49h-10.49v10.49ZM834.91,306.36h10.49v-10.49h-10.49v10.49ZM782.45,274.88v-10.49h-10.43v31.48h20.93v-10.49h10.49v10.49h31.48v-10.49h10.49v-10.49h-62.96ZM834.91,264.39h10.49v-10.49h-10.49v10.49ZM834.91,243.4h10.49v-10.49h-10.49v10.49ZM803.43,316.79h31.48v-10.44h-31.48v10.44ZM813.92,253.9h20.98v-10.49h-20.98v10.49ZM803.43,264.39h10.49v-10.49h-10.49v10.49ZM782.45,253.9h20.98v-20.98h-20.98v20.98ZM772.01,316.79v20.98h10.43v-10.49h10.49v-10.49h-20.93ZM792.94,432.21h31.48v-31.48h-31.48v31.48ZM792.94,432.21h31.48v-31.48h-31.48v31.48ZM792.94,432.21h31.48v-31.48h-31.48v31.48ZM792.94,432.21h31.48v-31.48h-31.48v31.48ZM792.94,432.21h31.48v-31.48h-31.48v31.48ZM792.94,432.21h31.48v-31.48h-31.48v31.48ZM792.94,432.21h31.48v-31.48h-31.48v31.48ZM792.94,432.21h31.48v-31.48h-31.48v31.48ZM792.94,432.21h31.48v-31.48h-31.48v31.48ZM792.94,432.21h31.48v-31.48h-31.48v31.48ZM792.94,432.21h31.48v-31.48h-31.48v31.48ZM792.94,432.21h31.48v-31.48h-31.48v31.48ZM792.94,432.21h31.48v-31.48h-31.48v31.48ZM792.94,432.21h31.48v-31.48h-31.48v31.48ZM792.94,432.21h31.48v-31.48h-31.48v31.48ZM792.94,432.21h31.48v-31.48h-31.48v31.48ZM792.94,432.21h31.48v-31.48h-31.48v31.48ZM792.94,432.21h31.48v-31.48h-31.48v31.48ZM792.94,432.21h31.48v-31.48h-31.48v31.48ZM792.94,432.21h31.48v-31.48h-31.48v31.48ZM792.94,432.21h31.48v-31.48h-31.48v31.48ZM792.94,432.21h31.48v-31.48h-31.48v31.48ZM792.94,432.21h31.48v-31.48h-31.48v31.48ZM792.94,432.21h31.48v-31.48h-31.48v31.48ZM772.01,453.2h73.39v-73.45h-73.39v73.45ZM834.91,442.7h-52.46v-52.46h52.46v52.46ZM824.42,400.73h-31.48v31.48h31.48v-31.48ZM792.94,432.21h31.48v-31.48h-31.48v31.48ZM792.94,432.21h31.48v-31.48h-31.48v31.48ZM792.94,432.21h31.48v-31.48h-31.48v31.48ZM792.94,432.21h31.48v-31.48h-31.48v31.48ZM792.94,432.21h31.48v-31.48h-31.48v31.48ZM792.94,432.21h31.48v-31.48h-31.48v31.48ZM792.94,432.21h31.48v-31.48h-31.48v31.48ZM792.94,432.21h31.48v-31.48h-31.48v31.48ZM792.94,432.21h31.48v-31.48h-31.48v31.48ZM792.94,432.21h31.48v-31.48h-31.48v31.48ZM792.94,432.21h31.48v-31.48h-31.48v31.48ZM792.94,432.21h31.48v-31.48h-31.48v31.48ZM792.94,432.21h31.48v-31.48h-31.48v31.48ZM792.94,432.21h31.48v-31.48h-31.48v31.48ZM792.94,432.21h31.48v-31.48h-31.48v31.48ZM792.94,432.21h31.48v-31.48h-31.48v31.48ZM792.94,432.21h31.48v-31.48h-31.48v31.48ZM792.94,432.21h31.48v-31.48h-31.48v31.48ZM792.94,432.21h31.48v-31.48h-31.48v31.48ZM792.94,432.21h31.48v-31.48h-31.48v31.48ZM792.94,432.21h31.48v-31.48h-31.48v31.48ZM792.94,432.21h31.48v-31.48h-31.48v31.48Z"/>
    <rect class="cls-12" x="919.02" y="310.84" width="17.04" height="5.95"/>
    <rect class="cls-12" x="923.67" y="257.02" width="6.58" height="4.08"/>
    <path class="cls-12" d="M932.01,268.49h-10.18c-1.88,0-3.4-1.52-3.4-3.4v-.59c0-1.88,1.52-3.4,3.4-3.4h10.18c1.88,0,3.4,1.52,3.4,3.4v.59c0,1.88-1.52,3.4-3.4,3.4"/>
    <path class="cls-12" d="M975.07,321.48h-93.65c-.18,0-.33-.15-.33-.33l1.62-3.96c.13-.33.18-.4.36-.4h90.42c.18,0,.22.04.36.39l1.55,3.97c0,.18-.15.33-.34.33"/>
    <path class="cls-12" d="M926.95,266.17c-37.19,0-37.19,37.61-37.19,37.61h75.22s-.85-37.61-38.04-37.61"/>
    <path class="cls-12" d="M978.43,327.29h-100.67c-.18,0-.33-.15-.33-.33l2.07-5.43c.15-.35.16-.37.35-.37h96.6c.18,0,.21.03.36.41l1.96,5.4c0,.18-.15.33-.34.33"/>
    <path class="cls-12" d="M965.22,310.84h-75.21c-1.94,0-3.53-1.59-3.53-3.53s1.59-3.53,3.53-3.53h75.21c1.94,0,3.53,1.59,3.53,3.53s-1.59,3.53-3.53,3.53"/>
    <path class="cls-12" d="M926.81,247.6c-7.83,0-9.28,6.44-9.55,8.84-.05.47.32.89.8.89h17.71c.49,0,.86-.43.79-.91-.34-2.42-1.96-8.81-9.75-8.81"/>
  </g>
  <text class="cls-47" transform="translate(769.32 107.41)"><tspan x="0" y="0">QR code mockup</tspan></text>
  <g class="cls-44">
    <rect class="cls-24" x="666.64" y="909.34" width="50.8" height="17.73"/>
    <rect class="cls-24" x="680.48" y="749.84" width="19.6" height="11.25"/>
    <path class="cls-24" d="M664.89,778.41v-15.73c0-.88.71-1.59,1.59-1.59h47.41c.88,0,1.59.71,1.59,1.59v15.68"/>
    <path class="cls-24" d="M833.67,940.06h-279.1c-.55,0-1-.42-1-.93l4.84-10.96c.38-.9.52-1.1,1.07-1.1h269.49c.55,0,.67.11,1.06,1.08l4.63,10.98c0,.51-.45.93-1,.93Z"/>
    <path class="cls-24" d="M690.28,776.22c-110.83,0-110.83,112.09-110.83,112.09h224.19s-2.54-112.09-113.36-112.09Z"/>
    <path class="cls-24" d="M843.71,958.35h-300.04c-.55,0-1-.45-1-1l6.16-16.19c.43-1.05.49-1.1,1.04-1.1h287.9c.55,0,.63.1,1.08,1.22l5.85,16.08c0,.55-.45,1-1,1Z"/>
    <path class="cls-24" d="M804.32,909.34h-224.16c-5.78,0-10.51-4.73-10.51-10.52s4.73-10.51,10.51-10.51h224.16c5.78,0,10.52,4.73,10.52,10.51s-4.73,10.52-10.52,10.52Z"/>
    <path class="cls-24" d="M689.86,720.86c-24.02,0-27.91,20.37-28.53,26.96-.1,1.09.76,2.03,1.85,2.03h53.97c1.11,0,1.98-.96,1.85-2.07-.79-6.63-5.17-26.91-29.14-26.91Z"/>
    <path class="cls-36" d="M691.39,728.7c.73-.59.22-1.62-.72-1.59-4.82.14-8.6,1.04-14.45,3.64-6.08,2.7-7.34,9.02-4.48,11.23,1.72,1.33,4.55,2.41,9.39-3.29,2.32-2.73,2.52-2.92,5.06-5.48,1.45-1.46,3.34-3.02,5.2-4.51Z"/>
    <path class="cls-24" d="M657.94,796.24c1.41-2.55-1.29-4.92-3.95-3.74-13.74,6.09-23.54,13.15-37.34,27.53-14.34,14.95-10.52,34.64.33,37.65,6.54,1.81,15.95,1.57,23.18-20.56,3.46-10.61,3.83-11.4,8.12-21.75,2.45-5.92,6.07-12.65,9.66-19.14Z"/>
    <rect class="cls-31" x="297.44" y="906.78" width="50.8" height="17.73"/>
    <rect class="cls-31" x="311.28" y="747.28" width="19.6" height="11.25"/>
    <path class="cls-31" d="M295.68,775.85v-15.73c0-.88.71-1.59,1.59-1.59h47.41c.88,0,1.59.71,1.59,1.59v15.68"/>
    <path class="cls-31" d="M464.47,937.49H185.36c-.55,0-1-.42-1-.93l4.84-10.96c.38-.9.52-1.1,1.07-1.1h269.49c.55,0,.67.11,1.06,1.08l4.63,10.98c0,.51-.45.93-1,.93Z"/>
    <path class="cls-31" d="M321.08,773.65c-110.82,0-110.82,112.09-110.82,112.09h224.19s-2.54-112.09-113.36-112.09Z"/>
    <path class="cls-31" d="M474.5,955.79H174.47c-.55,0-1-.45-1-1l6.16-16.19c.43-1.05.49-1.1,1.04-1.1h287.9c.55,0,.63.1,1.08,1.22l5.85,16.08c0,.55-.45,1-1,1Z"/>
    <path class="cls-31" d="M435.12,906.78h-224.16c-5.78,0-10.51-4.73-10.51-10.52s4.73-10.51,10.51-10.51h224.16c5.78,0,10.52,4.73,10.52,10.51s-4.73,10.52-10.52,10.52Z"/>
    <path class="cls-31" d="M320.65,718.29c-24.02,0-27.91,20.37-28.53,26.96-.1,1.09.76,2.02,1.85,2.02h53.97c1.11,0,1.98-.96,1.85-2.07-.79-6.63-5.17-26.91-29.14-26.91Z"/>
    <path class="cls-25" d="M322.18,726.13c.73-.59.22-1.62-.72-1.59-4.82.14-8.6,1.04-14.44,3.64-6.08,2.7-7.34,9.02-4.48,11.23,1.72,1.33,4.55,2.41,9.39-3.29,2.32-2.73,2.52-2.92,5.06-5.48,1.45-1.46,3.34-3.02,5.2-4.51Z"/>
    <path class="cls-31" d="M288.73,793.68c1.41-2.55-1.29-4.92-3.95-3.74-13.74,6.09-23.54,13.15-37.34,27.53-14.34,14.95-10.52,34.64.33,37.65,6.54,1.81,15.95,1.57,23.18-20.56,3.46-10.61,3.83-11.4,8.12-21.75,2.45-5.92,6.07-12.65,9.66-19.14Z"/>
    <rect class="cls-18" x="297.87" y="1165.21" width="50.8" height="17.73"/>
    <rect class="cls-18" x="311.71" y="1005.71" width="19.6" height="11.25"/>
    <path class="cls-18" d="M296.11,1034.29v-15.73c0-.88.71-1.59,1.59-1.59h47.41c.88,0,1.59.71,1.59,1.59v15.68"/>
    <path class="cls-18" d="M464.9,1195.93H185.79c-.55,0-1-.41-1-.93l4.84-10.96c.38-.9.52-1.1,1.07-1.1h269.49c.55,0,.67.11,1.06,1.08l4.63,10.98c0,.51-.45.93-1,.93"/>
    <path class="cls-18" d="M321.51,1032.09c-110.82,0-110.82,112.09-110.82,112.09h224.19s-2.54-112.09-113.36-112.09"/>
    <path class="cls-18" d="M474.93,1214.23H174.9c-.55,0-1-.45-1-1l6.16-16.2c.43-1.05.49-1.1,1.04-1.1h287.9c.55,0,.63.1,1.08,1.22l5.85,16.08c0,.55-.45,1-1,1"/>
    <path class="cls-18" d="M435.55,1165.21h-224.16c-5.78,0-10.51-4.73-10.51-10.51s4.73-10.51,10.51-10.51h224.16c5.78,0,10.52,4.73,10.52,10.51s-4.73,10.51-10.52,10.51"/>
    <path class="cls-18" d="M321.08,976.73c-24.02,0-27.91,20.37-28.53,26.96-.1,1.09.76,2.02,1.85,2.02h53.97c1.11,0,1.98-.96,1.85-2.07-.79-6.63-5.17-26.91-29.14-26.91"/>
    <path class="cls-18" d="M322.61,984.57c.73-.58.22-1.62-.72-1.59-4.82.14-8.6,1.05-14.44,3.64-6.08,2.7-7.34,9.01-4.48,11.23,1.72,1.33,4.55,2.41,9.39-3.29,2.32-2.73,2.52-2.92,5.06-5.48,1.45-1.46,3.34-3.02,5.2-4.51"/>
    <path class="cls-18" d="M289.16,1052.12c1.41-2.55-1.29-4.92-3.95-3.74-13.74,6.09-23.54,13.15-37.34,27.53-14.34,14.95-10.52,34.64.33,37.65,6.54,1.81,15.95,1.57,23.18-20.56,3.46-10.61,3.83-11.4,8.12-21.75,2.45-5.92,6.07-12.65,9.66-19.14"/>
    <rect class="cls-37" x="668.29" y="1166.35" width="50.8" height="17.73"/>
    <rect class="cls-37" x="682.13" y="1006.85" width="19.6" height="11.25"/>
    <path class="cls-37" d="M666.53,1035.43v-15.73c0-.88.71-1.59,1.59-1.59h47.41c.88,0,1.59.71,1.59,1.59v15.68"/>
    <path class="cls-37" d="M835.32,1197.07h-279.1c-.55,0-1-.41-1-.93l4.84-10.96c.38-.9.52-1.1,1.07-1.1h269.49c.55,0,.67.11,1.06,1.08l4.63,10.98c0,.51-.45.93-1,.93Z"/>
    <path class="cls-37" d="M691.93,1033.23c-110.83,0-110.83,112.09-110.83,112.09h224.19s-2.54-112.09-113.36-112.09Z"/>
    <path class="cls-37" d="M845.35,1215.37h-300.04c-.55,0-1-.45-1-1l6.16-16.2c.43-1.05.49-1.1,1.04-1.1h287.9c.55,0,.63.1,1.08,1.22l5.85,16.08c0,.55-.45,1-1,1Z"/>
    <path class="cls-37" d="M805.97,1166.35h-224.16c-5.78,0-10.51-4.73-10.51-10.51s4.73-10.51,10.51-10.51h224.16c5.78,0,10.52,4.73,10.52,10.51s-4.73,10.51-10.52,10.51Z"/>
    <path class="cls-37" d="M691.5,977.87c-24.02,0-27.91,20.37-28.53,26.96-.1,1.09.76,2.02,1.85,2.02h53.97c1.11,0,1.98-.96,1.85-2.07-.79-6.63-5.17-26.91-29.14-26.91Z"/>
    <path class="cls-33" d="M693.03,985.71c.73-.58.22-1.62-.72-1.59-4.82.14-8.6,1.05-14.45,3.64-6.08,2.7-7.34,9.01-4.48,11.23,1.72,1.33,4.55,2.41,9.39-3.29,2.32-2.73,2.52-2.92,5.06-5.48,1.45-1.46,3.34-3.02,5.2-4.51Z"/>
    <path class="cls-37" d="M659.58,1053.26c1.41-2.55-1.29-4.92-3.95-3.74-13.74,6.09-23.54,13.15-37.34,27.53-14.34,14.95-10.52,34.64.33,37.65,6.54,1.81,15.95,1.57,23.18-20.56,3.46-10.61,3.83-11.4,8.12-21.75,2.45-5.92,6.07-12.65,9.66-19.14Z"/>
    <rect class="cls-13" x="1037.14" y="913.03" width="50.8" height="17.73"/>
    <rect class="cls-13" x="1050.98" y="752.62" width="19.6" height="12.17"/>
    <path class="cls-20" d="M1084.39,786.81h-47.41c-.88,0-1.59-.71-1.59-1.59v-18.84c0-.88.71-1.59,1.59-1.59h47.41c.88,0,1.59.71,1.59,1.59v18.84c0,.88-.71,1.59-1.59,1.59"/>
    <rect class="cls-1" x="1041.43" y="764.78" width="21.54" height="18.52"/>
    <rect class="cls-21" x="1044.49" y="764.78" width="10.27" height="18.52"/>
    <rect class="cls-10" x="1045.32" y="913.03" width="17.42" height="17.63"/>
    <rect class="cls-6" x="1046.96" y="913.13" width="8.83" height="17.63"/>
    <path class="cls-20" d="M1204.17,944.75h-279.1c-.55,0-1-.45-1-1l4.84-11.8c.38-.97.52-1.18,1.07-1.18h269.49c.55,0,.67.12,1.06,1.17l4.63,11.82c0,.55-.45,1-1,1"/>
    <polygon class="cls-10" points="1205.16 943.75 924.07 943.75 925.42 940.57 1203.87 940.44 1205.16 943.75"/>
    <rect class="cls-1" x="946.66" y="930.76" width="81.68" height="9.68"/>
    <path class="cls-17" d="M1060.78,779.91c-110.83,0-110.83,112.09-110.83,112.09h224.19s-2.54-112.09-113.36-112.09"/>
    <path class="cls-20" d="M1214.2,962.04h-300.04c-.55,0-1-.45-1-1l6.16-16.19c.43-1.05.49-1.1,1.04-1.1h287.9c.55,0,.63.1,1.08,1.22l5.85,16.08c0,.55-.45,1-1,1"/>
    <path class="cls-5" d="M966.74,892h77.59c1.49-91.77,21.31-112.02,21.31-112.02,0,0-8.22-.31-17.62.44-9.4.75-14.65,2.07-14.65,2.07,0,0-60.74,28.34-66.64,109.51"/>
    <path class="cls-22" d="M985.19,892h33.41c1.48-91.77,39.79-112.08,39.79-112.08-4.95.1-8.24.25-15.75,1.03-1.35.14-40.03,21.46-57.46,111.05"/>
    <path class="cls-7" d="M1174.77,892h-49.27c-1.49-91.76-50.42-111.49-50.42-111.49,0,0-4.96-.38,4.44.37,9.4.75,18,3.66,18,3.66,0,0,70.02,14.9,77.24,107.46"/>
    <path class="cls-17" d="M1174.82,913.03h-224.16c-5.78,0-10.52-4.73-10.52-10.52s4.73-10.51,10.52-10.51h224.16c5.78,0,10.52,4.73,10.52,10.51s-4.73,10.52-10.52,10.52"/>
    <path class="cls-5" d="M962.91,892c-8.21,10.52-2.39,21.03-2.39,21.03h72.33s-7.82-9.48,1.5-21.03h-71.44Z"/>
    <path class="cls-22" d="M979.09,892c-6.42,10.52-1.72,21.03-1.72,21.03h38.71s-6.29-9,.15-21.03h-37.14Z"/>
    <path class="cls-16" d="M1176.2,892h-13.36c-.4-91.76-77.01-110.35-77.01-110.35,0,0,4.48.79,6.99,1.54,1.66.49,2.62.77,3.46,1.01.4.11,1.37.34,1.77.45,6.76,1.94,67.46,16.52,78.14,107.35"/>
    <path class="cls-7" d="M1185.34,902.52c0-10.52-9.13-10.52-9.13-10.52h-46.96c8.6,9.17,1.77,21.04,1.77,21.04h43.8s10.52,0,10.52-10.52"/>
    <rect class="cls-10" x="1052.74" y="753.47" width="11.32" height="11.32"/>
    <path class="cls-16" d="M1185.34,902.52c0-10.52-9.13-10.52-9.13-10.52h-7.18c12.27,9.38,2.55,21.04,2.55,21.04h4.63s9.13,0,9.13-10.52"/>
    <path class="cls-17" d="M1060.35,724.55c-28.65,0-28.65,28.98-28.65,28.98h57.96s-.66-28.98-29.31-28.98"/>
    <path class="cls-5" d="M1031.7,753.53h18.57c.39-23.73,10.08-28.98,10.08-28.98,0,0-.87-.06-3.3.13l-2.43.19s-21.17,1.47-22.92,28.66"/>
    <path class="cls-22" d="M1034.36,753.53h8.64c.38-23.73,11.63-28.65,11.63-28.65-1.28.03-3.65.74-5.68,1.35-.34.1-10.08,4.14-14.59,27.3"/>
    <path class="cls-7" d="M1089.66,753.53h-13.12c-.38-23.72-16.19-28.98-16.19-28.98,0,0,.87-.06,3.3.13l2.43.19s21.58,2.28,23.58,28.65"/>
    <path class="cls-16" d="M1089.66,753.47h-4.92c-.14-23.72-20.6-28.74-20.6-28.74,0,0,.65.03,1.59.13.51.05.67.07.67.07,0,0,20.82,1.99,23.26,28.55"/>
    <rect class="cls-6" x="1053.8" y="753.54" width="5.74" height="11.32"/>
    <rect class="cls-19" x="946.66" y="940.44" width="81.68" height="3.3"/>
    <rect class="cls-21" x="965.05" y="930.76" width="28.69" height="9.68"/>
    <rect class="cls-2" x="965.05" y="940.44" width="28.69" height="3.3"/>
    <path class="cls-3" d="M1203.87,940.44h-64.43v-9.68h60.08c.34,0,.65.21.78.52l3.57,9.16Z"/>
    <polygon class="cls-23" points="1205.16 943.75 1139.44 943.75 1139.44 940.44 1203.87 940.44 1205.16 943.75"/>
    <rect class="cls-1" x="935.36" y="943.75" width="81.68" height="18.3"/>
    <rect class="cls-21" x="953.75" y="943.75" width="28.69" height="18.3"/>
    <path class="cls-3" d="M1214.2,962.04h-49.7v-18.3h43.4c.59,0,1.12.37,1.34.92l5.93,16.16c.14.62-.33,1.21-.97,1.21"/>
    <path class="cls-3" d="M1199.05,800.56c-6.25,3.57-25.92,3.76-25.92,3.76,0,0,10.14-16.86,16.38-20.43,6.25-3.57,13.45-2.74,16.08,1.87,2.63,4.6-.3,11.23-6.55,14.8"/>
    <path class="cls-3" d="M1213.83,819.61c-8.33-1.45-30.14,6.19-30.14,6.19,0,0,17.95,14.54,26.29,15.99,8.34,1.45,15.95-2.35,17.02-8.47,1.06-6.12-4.83-12.26-13.17-13.71"/>
    <path class="cls-3" d="M1160.09,758.25c-2.8,7.98.93,30.67.93,30.67,0,0,17.09-15.38,19.9-23.36,2.8-7.98.41-16.09-5.34-18.11-5.75-2.02-12.68,2.82-15.49,10.8"/>
    <path class="cls-3" d="M923.29,799.01c6.25,3.57,25.91,3.76,25.91,3.76,0,0-10.13-16.86-16.38-20.43-6.25-3.57-13.45-2.74-16.08,1.87-2.63,4.6.3,11.23,6.55,14.8"/>
    <path class="cls-3" d="M908.51,818.06c8.34-1.45,30.14,6.19,30.14,6.19,0,0-17.95,14.54-26.29,15.99-8.34,1.45-15.95-2.35-17.02-8.47-1.06-6.12,4.83-12.26,13.17-13.71"/>
    <path class="cls-3" d="M962.25,756.7c2.8,7.98-.93,30.67-.93,30.67,0,0-17.1-15.38-19.9-23.36-2.8-7.98-.41-16.09,5.34-18.11,5.75-2.02,12.68,2.82,15.49,10.8"/>
    <rect class="cls-13" x="1038.93" y="1179.65" width="50.8" height="17.73"/>
    <rect class="cls-13" x="1052.77" y="1019.24" width="19.6" height="12.17"/>
    <path class="cls-20" d="M1086.18,1053.43h-47.41c-.88,0-1.59-.71-1.59-1.59v-18.84c0-.88.71-1.59,1.59-1.59h47.41c.88,0,1.59.71,1.59,1.59v18.84c0,.88-.71,1.59-1.59,1.59"/>
    <rect class="cls-1" x="1043.22" y="1031.4" width="21.54" height="18.52"/>
    <rect class="cls-21" x="1046.28" y="1031.4" width="10.27" height="18.52"/>
    <rect class="cls-10" x="1047.11" y="1179.65" width="17.42" height="17.63"/>
    <rect class="cls-6" x="1048.75" y="1179.75" width="8.83" height="17.63"/>
    <path class="cls-20" d="M1205.96,1211.36h-279.1c-.55,0-1-.45-1-1l4.84-11.8c.38-.97.52-1.18,1.07-1.18h269.49c.55,0,.67.12,1.06,1.17l4.63,11.82c0,.55-.45,1-1,1"/>
    <polygon class="cls-10" points="1206.96 1210.37 925.86 1210.37 927.21 1207.19 1205.66 1207.06 1206.96 1210.37"/>
    <rect class="cls-1" x="948.46" y="1197.38" width="81.68" height="9.68"/>
    <path class="cls-17" d="M1062.57,1046.53c-110.83,0-110.83,112.09-110.83,112.09h224.19s-2.54-112.09-113.36-112.09"/>
    <path class="cls-20" d="M1215.99,1228.66h-300.04c-.55,0-1-.45-1-1l6.16-16.2c.43-1.05.49-1.1,1.04-1.1h287.9c.55,0,.63.1,1.08,1.22l5.85,16.08c0,.55-.45,1-1,1"/>
    <path class="cls-5" d="M968.53,1158.62h77.59c1.49-91.77,21.31-112.02,21.31-112.02,0,0-8.22-.31-17.62.44-9.4.75-14.65,2.07-14.65,2.07,0,0-60.74,28.34-66.64,109.51"/>
    <path class="cls-22" d="M986.98,1158.62h33.41c1.48-91.77,39.79-112.08,39.79-112.08-4.95.1-8.24.25-15.75,1.03-1.35.14-40.03,21.46-57.46,111.05"/>
    <path class="cls-7" d="M1176.56,1158.61h-49.27c-1.49-91.76-50.42-111.49-50.42-111.49,0,0-4.96-.38,4.44.37,9.4.75,18,3.66,18,3.66,0,0,70.02,14.9,77.24,107.46"/>
    <path class="cls-17" d="M1176.61,1179.65h-224.16c-5.78,0-10.52-4.73-10.52-10.51s4.73-10.51,10.52-10.51h224.16c5.78,0,10.52,4.73,10.52,10.51s-4.73,10.51-10.52,10.51"/>
    <path class="cls-5" d="M964.71,1158.62c-8.21,10.51-2.39,21.03-2.39,21.03h72.33s-7.82-9.48,1.5-21.03h-71.44Z"/>
    <path class="cls-22" d="M980.88,1158.62c-6.42,10.51-1.72,21.03-1.72,21.03h38.71s-6.29-9,.15-21.03h-37.14Z"/>
    <path class="cls-16" d="M1178,1158.61h-13.36c-.4-91.76-77.01-110.35-77.01-110.35,0,0,4.48.79,6.99,1.54,1.66.49,2.62.77,3.46,1.01.4.11,1.37.34,1.77.45,6.76,1.94,67.46,16.52,78.14,107.35"/>
    <path class="cls-7" d="M1187.13,1169.13c0-10.52-9.13-10.52-9.13-10.52h-46.96c8.6,9.17,1.77,21.04,1.77,21.04h43.8s10.52,0,10.52-10.51"/>
    <rect class="cls-10" x="1054.53" y="1020.09" width="11.32" height="11.32"/>
    <path class="cls-16" d="M1187.13,1169.14c0-10.52-9.13-10.52-9.13-10.52h-7.18c12.27,9.38,2.55,21.04,2.55,21.04h4.63s9.13,0,9.13-10.51"/>
    <path class="cls-17" d="M1062.14,991.17c-28.65,0-28.65,28.98-28.65,28.98h57.96s-.66-28.98-29.31-28.98"/>
    <path class="cls-5" d="M1033.49,1020.15h18.57c.39-23.73,10.08-28.98,10.08-28.98,0,0-.87-.06-3.3.13l-2.43.19s-21.17,1.47-22.92,28.66"/>
    <path class="cls-22" d="M1036.15,1020.15h8.64c.38-23.73,11.63-28.65,11.63-28.65-1.28.03-3.65.74-5.68,1.35-.34.1-10.08,4.14-14.59,27.3"/>
    <path class="cls-7" d="M1091.45,1020.15h-13.12c-.38-23.72-16.19-28.98-16.19-28.98,0,0,.87-.06,3.3.13l2.43.19s21.58,2.28,23.58,28.65"/>
    <path class="cls-16" d="M1091.45,1020.08h-4.92c-.14-23.72-20.6-28.74-20.6-28.74,0,0,.65.04,1.59.13.52.05.67.07.67.07,0,0,20.82,1.99,23.26,28.55"/>
    <rect class="cls-6" x="1055.6" y="1020.15" width="5.74" height="11.32"/>
    <rect class="cls-19" x="948.46" y="1207.06" width="81.68" height="3.3"/>
    <rect class="cls-21" x="966.85" y="1197.38" width="28.69" height="9.68"/>
    <rect class="cls-2" x="966.85" y="1207.06" width="28.69" height="3.3"/>
    <path class="cls-3" d="M1205.66,1207.06h-64.43v-9.68h60.08c.34,0,.65.21.78.52l3.57,9.16Z"/>
    <polygon class="cls-23" points="1206.96 1210.37 1141.23 1210.37 1141.23 1207.06 1205.66 1207.06 1206.96 1210.37"/>
    <rect class="cls-1" x="937.16" y="1210.37" width="81.68" height="18.3"/>
    <rect class="cls-21" x="955.55" y="1210.37" width="28.69" height="18.3"/>
    <path class="cls-3" d="M1216,1228.66h-49.7v-18.3h43.4c.59,0,1.12.37,1.34.92l5.93,16.16c.14.62-.33,1.21-.97,1.21"/>
    <path class="cls-15" d="M1200.85,1067.18c-6.25,3.57-25.92,3.76-25.92,3.76,0,0,10.14-16.86,16.38-20.43,6.25-3.57,13.45-2.74,16.08,1.87,2.63,4.6-.3,11.23-6.55,14.8"/>
    <path class="cls-15" d="M1215.63,1086.23c-8.33-1.45-30.14,6.19-30.14,6.19,0,0,17.95,14.54,26.29,15.98,8.34,1.45,15.95-2.35,17.02-8.47,1.06-6.12-4.83-12.26-13.17-13.71"/>
    <path class="cls-15" d="M1161.89,1024.87c-2.8,7.98.93,30.67.93,30.67,0,0,17.09-15.38,19.9-23.36,2.8-7.98.41-16.09-5.34-18.11-5.75-2.02-12.68,2.82-15.49,10.8"/>
    <path class="cls-15" d="M925.09,1065.62c6.25,3.57,25.91,3.76,25.91,3.76,0,0-10.13-16.86-16.38-20.43-6.25-3.57-13.45-2.74-16.08,1.87-2.63,4.6.3,11.23,6.55,14.8"/>
    <path class="cls-15" d="M910.31,1084.67c8.34-1.45,30.14,6.19,30.14,6.19,0,0-17.95,14.54-26.29,15.98-8.34,1.45-15.95-2.35-17.02-8.47-1.06-6.12,4.83-12.26,13.17-13.71"/>
    <path class="cls-15" d="M964.05,1023.32c2.8,7.98-.93,30.67-.93,30.67,0,0-17.1-15.38-19.9-23.36-2.8-7.98-.41-16.09,5.34-18.11,5.75-2.02,12.68,2.82,15.49,10.8"/>
  </g>
  <text class="cls-47" transform="translate(546.18 658.59)"><tspan x="0" y="0">Bell Icon Designs</tspan></text>
  <g class="cls-43">
    <path class="cls-29" d="M1722.41,1004.9c-23.14,5.04-40.19,22.27-40.19,42.75,0,10.28,4.3,19.74,11.5,27.26-1.19,4.98,0,0,0,0l-5.14,21.53,27.65-8.99c35.53,6.69,74.37-6.11,74.37-39.8,0-24.43-24.26-44.24-54.19-44.24-4.84,0-9.54.52-14,1.49Z"/>
    <circle class="cls-30" cx="1712.7" cy="1047.87" r="6.34"/>
    <circle class="cls-30" cx="1736.14" cy="1047.87" r="6.34"/>
    <circle class="cls-30" cx="1760.13" cy="1047.87" r="6.34"/>
    <path class="cls-29" d="M1897.05,1004.86c6.04,10.46,2.46,23.85-8.01,29.89-10.46,6.04-23.85,2.46-29.89-8.01s-2.46-23.85,8.01-29.89c10.47-6.04,23.85-2.46,29.89,8.01Z"/>
    <path class="cls-34" d="M1899.95,1040.78c13.84,6.03,13.78,19.83,13.78,33.13,0,19.52-10.74,17.62-35.62,17.62s-35.1,1.9-35.1-17.62c0-13.3-.59-27.11,13.26-33.13"/>
    <path class="cls-34" d="M1899.95,1040.78c-2.13,2.1-4.77,3.92-7.9,5.34-12.12,5.49-27.33,3.02-35.79-5.34"/>
    <path class="cls-29" d="M1619.3,1049.05c0,24.24-19.65,43.9-43.9,43.9s-43.9-19.65-43.9-43.9,19.65-43.9,43.9-43.9,43.9,19.65,43.9,43.9Z"/>
    <path class="cls-18" d="M1587.18,1035.75c-.33.55-1.08.69-1.56.27-.32-.28-.66-.54-1.04-.79-.75-.5-1.58-.93-2.47-1.29-.9-.37-1.88-.66-2.94-.88-1.06-.22-2.18-.33-3.35-.33-3.41,0-5.91.65-7.51,1.95-1.59,1.3-2.39,3.07-2.39,5.31,0,1.54.39,2.75,1.16,3.63.77.88,1.95,1.6,3.55,2.14,1.59.55,3.66,1.12,6.19,1.71,2.75.59,5.14,1.28,7.18,2.09,2.03.81,3.59,1.9,4.67,3.27,1.08,1.38,1.62,3.24,1.62,5.58,0,1.8-.34,3.36-1.02,4.68-.68,1.32-1.65,2.42-2.92,3.3-1.27.88-2.76,1.53-4.48,1.95-1.72.42-3.61.63-5.66.63s-3.9-.21-5.77-.63-3.62-1.05-5.25-1.87c-1.38-.7-2.7-1.55-3.96-2.58-.4-.33-.49-.91-.22-1.35l.78-1.27c.34-.55,1.08-.66,1.57-.24.49.42,1.02.82,1.6,1.21.97.64,2.05,1.22,3.24,1.73,1.19.51,2.47.91,3.85,1.18s2.8.41,4.26.41c3.12,0,5.55-.57,7.29-1.71,1.74-1.14,2.61-2.82,2.61-5.06,0-1.61-.43-2.91-1.29-3.88-.86-.97-2.17-1.77-3.93-2.39-1.76-.62-3.94-1.23-6.55-1.81-2.71-.62-5-1.32-6.85-2.09-1.85-.77-3.25-1.79-4.21-3.05-.95-1.27-1.43-2.94-1.43-5.03,0-2.42.6-4.46,1.79-6.13,1.19-1.67,2.84-2.93,4.95-3.8,2.11-.86,4.5-1.29,7.18-1.29,1.72,0,3.33.18,4.81.52,1.48.35,2.86.85,4.12,1.51,1.01.53,1.97,1.16,2.87,1.89.4.33.48.91.22,1.35l-.71,1.16ZM1575.37,1023.81h.44c.58,0,1.05.47,1.05,1.05v5.39c0,.53-.4.98-.93,1.04l-.44.05c-.62.07-1.16-.42-1.16-1.04v-5.44c0-.58.47-1.05,1.04-1.05M1575.4,1067.12h.44c.57.02,1.02.49,1.02,1.05v5.08c0,.58-.47,1.05-1.05,1.05h-.44c-.58,0-1.04-.47-1.04-1.05v-5.09c0-.59.48-1.06,1.07-1.04M1574.55,1065.61v-33.07c0-.52.39-.97.91-1.04.63-.08,1.18.4,1.18,1.04v33.07c0,.6-.5,1.08-1.1,1.04-.55-.03-.99-.49-.99-1.04"/>
    <line class="cls-27" x1="2100.27" y1="1019.8" x2="2100.26" y2="1019.79"/>
    <line class="cls-27" x1="2034.85" y1="1018.74" x2="2034.83" y2="1018.76"/>
    <path class="cls-39" d="M2032.46,1037.58v31.69c0,3.71,3.03,6.74,6.74,6.74h55.97c3.71,0,6.74-3.03,6.74-6.74v-38.83c0-.3.24-.55.55-.55h8.23c.51,0,.74-.64.35-.97l-43.5-35.66c-.2-.17-.49-.17-.69,0l-43.51,35.66c-.4.32-.17.97.35.97h8.23c.3,0,.55.24.55.55v7.15Z"/>
    <path class="cls-39" d="M2062.82,1052.95h8.73c1.59,0,2.89,1.29,2.89,2.89v17.29c0,1.59-1.29,2.89-2.89,2.89h-8.73c-1.59,0-2.89-1.29-2.89-2.89v-17.29c0-1.59,1.29-2.89,2.89-2.89Z"/>
    <path class="cls-39" d="M2092.12,1167.76c0,13.77-24.94,48.93-24.94,48.93,0,0-24.94-35.15-24.94-48.93s11.17-24.94,24.94-24.94,24.94,11.17,24.94,24.94Z"/>
    <path class="cls-30" d="M2077.68,1169.32c0,5.79-4.7,10.49-10.49,10.49s-10.49-4.7-10.49-10.49,4.7-10.49,10.49-10.49,10.49,4.7,10.49,10.49Z"/>
    <rect class="cls-29" x="1700.97" y="1165.53" width="83.01" height="65.13" rx="12" ry="12"/>
    <path class="cls-38" d="M1700.99,1177.14c8.03,10.06,23.8,16.9,41.93,16.9s32.8-6.37,41.06-15.85"/>
    <path class="cls-40" d="M1730.99,1165.54v-4.93c0-2.47,2.02-4.49,4.49-4.49h14c2.47,0,4.49,2.02,4.49,4.49v4.93"/>
    <rect class="cls-29" x="1533.86" y="1161.5" width="88.03" height="71.75" rx="12" ry="12"/>
    <line class="cls-34" x1="1546.67" y1="1179.32" x2="1587.76" y2="1179.32"/>
    <line class="cls-34" x1="1547.07" y1="1187.88" x2="1596.95" y2="1187.88"/>
    <line class="cls-34" x1="1547.07" y1="1196.45" x2="1571.23" y2="1196.45"/>
    <path class="cls-18" d="M1594.31,1216.47l2.43,1.84c.76.57,1.85.42,2.43-.34l9.58-12.66c.58-.76.42-1.85-.34-2.43l-2.43-1.84c-.76-.57-1.85-.42-2.43.34l-9.58,12.66c-.57.76-.42,1.85.34,2.43"/>
    <path class="cls-18" d="M1606.06,1199.8l3.54,2.68c.46.35,1.11.25,1.45-.2l2.1-2.77c.34-.46.26-1.11-.2-1.46l-3.54-2.68c-.46-.35-1.11-.25-1.45.2l-2.1,2.77c-.34.46-.25,1.11.2,1.46"/>
    <path class="cls-18" d="M1592.04,1217.3l-.81,4.83c-.09.54.46.96.96.72l4.43-2.09c.46-.22.53-.85.12-1.15l-3.63-2.74c-.41-.31-.99-.07-1.08.43"/>
    <line class="cls-34" x1="1546.67" y1="1205.27" x2="1587.76" y2="1205.27"/>
    <line class="cls-34" x1="1547.07" y1="1213.79" x2="1576.09" y2="1213.79"/>
    <rect class="cls-32" x="1897.87" y="1210.87" width="17.42" height="6.08"/>
    <rect class="cls-32" x="1902.62" y="1156.17" width="6.72" height="3.86"/>
    <path class="cls-32" d="M1897.27,1165.97v-5.39c0-.3.24-.55.55-.55h16.26c.3,0,.55.24.55.55v5.38"/>
    <path class="cls-32" d="M1955.15,1221.4h-95.71c-.19,0-.34-.14-.34-.32l1.66-3.76c.13-.31.18-.38.37-.38h92.41c.19,0,.23.04.36.37l1.59,3.76c0,.18-.15.32-.34.32Z"/>
    <path class="cls-32" d="M1905.98,1165.22c-38,0-38,38.44-38,38.44h76.88s-.87-38.44-38.87-38.44Z"/>
    <path class="cls-32" d="M1958.59,1227.67h-102.89c-.19,0-.34-.15-.34-.34l2.11-5.55c.15-.36.17-.38.36-.38h98.73c.19,0,.22.03.37.42l2.01,5.51c0,.19-.15.34-.34.34Z"/>
    <path class="cls-32" d="M1945.08,1210.87h-76.87c-1.98,0-3.61-1.62-3.61-3.61s1.62-3.61,3.61-3.61h76.87c1.98,0,3.61,1.62,3.61,3.61s-1.62,3.61-3.61,3.61Z"/>
    <path class="cls-32" d="M1905.83,1146.23c-8.24,0-9.57,6.99-9.79,9.24-.03.37.26.69.64.69h18.51c.38,0,.68-.33.63-.71-.27-2.27-1.77-9.23-9.99-9.23Z"/>
    <path class="cls-35" d="M1906.36,1148.92c.25-.2.07-.55-.25-.55-1.65.05-2.95.36-4.95,1.25-2.09.93-2.52,3.09-1.54,3.85.59.46,1.56.83,3.22-1.13.79-.94.87-1,1.73-1.88.5-.5,1.15-1.04,1.78-1.55Z"/>
    <path class="cls-28" d="M1894.89,1172.08c.48-.87-.44-1.69-1.35-1.28-4.71,2.09-8.07,4.51-12.8,9.44-4.92,5.13-3.61,11.88.11,12.91,2.24.62,5.47.54,7.95-7.05,1.19-3.64,1.31-3.91,2.78-7.46.84-2.03,2.08-4.34,3.31-6.56Z"/>
    <path class="cls-26" d="M2179.34,1109.55v-33.71c7.83,0,29.71,0,29.71,0"/>
    <path class="cls-26" d="M2284.79,1108.77v-33.71c-7.83,0-29.71,0-29.71,0"/>
    <path class="cls-26" d="M2284.79,1142v33.71c-7.83,0-29.71,0-29.71,0"/>
    <path class="cls-26" d="M2179.34,1142.78v33.71c7.83,0,29.71,0,29.71,0"/>
    <line class="cls-34" x1="2196.25" y1="1137.47" x2="2196.25" y2="1113.3"/>
    <line class="cls-34" x1="2232.06" y1="1145.23" x2="2232.06" y2="1104.14"/>
    <line class="cls-34" x1="2219.15" y1="1139.9" x2="2219.15" y2="1110.87"/>
    <line class="cls-34" x1="2269.93" y1="1137.47" x2="2269.93" y2="1113.3"/>
    <line class="cls-34" x1="2244.54" y1="1139.2" x2="2244.54" y2="1110.18"/>
    <line class="cls-34" x1="2207.7" y1="1145.23" x2="2207.7" y2="1104.14"/>
    <line class="cls-34" x1="2257.24" y1="1145.23" x2="2257.24" y2="1104.14"/>
  </g>
  <text class="cls-47" transform="translate(1698.86 933.35)"><tspan x="0" y="0">In-app Icons</tspan></text>
  <rect class="cls-4" x="91.04" y="-10.48" width="2364.59" height="1390.7"/>
  <g>
    <path class="cls-11" d="M2041.11,743.81c-27.8,0-50.34-22.54-50.34-50.34s22.54-50.34,50.34-50.34,50.34,22.54,50.34,50.34-22.54,50.34-50.34,50.34"/>
    <path class="cls-18" d="M1899.33,743.81c-27.8,0-50.34-22.54-50.34-50.34s22.54-50.34,50.34-50.34,50.34,22.54,50.34,50.34-22.54,50.34-50.34,50.34"/>
    <path class="cls-15" d="M1770.56,743.81c-27.8,0-50.34-22.54-50.34-50.34s22.54-50.34,50.34-50.34,50.34,22.54,50.34,50.34-22.54,50.34-50.34,50.34"/>
    <path class="cls-9" d="M1639.05,743.81c-27.8,0-50.34-22.54-50.34-50.34s22.54-50.34,50.34-50.34,50.34,22.54,50.34,50.34-22.54,50.34-50.34,50.34"/>
    <path class="cls-14" d="M1507.55,743.81c-27.8,0-50.34-22.54-50.34-50.34s22.54-50.34,50.34-50.34,50.34,22.54,50.34,50.34-22.54,50.34-50.34,50.34"/>
    <path class="cls-13" d="M2132.22,693.47c0-27.8,22.54-50.34,50.34-50.34s50.34,22.54,50.34,50.34-22.54,50.34-50.34,50.34-50.34-22.54-50.34-50.34"/>
    <text class="cls-46" transform="translate(1487.21 786.53)"><tspan x="0" y="0">Sky</tspan></text>
    <text/>
    <text class="cls-46" transform="translate(1599.89 786.53)"><tspan x="0" y="0">Ocean</tspan></text>
    <text class="cls-46" transform="translate(1743.09 786.53)"><tspan x="0" y="0">Cloud</tspan></text>
    <text class="cls-46" transform="translate(1861.17 786.53)"><tspan x="0" y="0">Denim</tspan></text>
    <text class="cls-46" transform="translate(1991.07 786.53)"><tspan x="0" y="0">Midnight</tspan></text>
    <text class="cls-46" transform="translate(2156.42 786.53)"><tspan x="0" y="0">Black</tspan></text>
  </g>
</svg>